<?xml version="1.0" encoding="UTF-8"?>
<!DOCTYPE svg PUBLIC "-//W3C//DTD SVG 1.1//EN" "http://www.w3.org/Graphics/SVG/1.1/DTD/svg11.dtd">
<svg xmlns="http://www.w3.org/2000/svg" version="1.1" width="142px" height="145px" style="shape-rendering:geometricPrecision; text-rendering:geometricPrecision; image-rendering:optimizeQuality; fill-rule:evenodd; clip-rule:evenodd" xmlns:xlink="http://www.w3.org/1999/xlink">
<g><path style="opacity:0.004" fill="#d1d1d2" d="M 13.5,6.5 C 13.1667,6.5 12.8333,6.5 12.5,6.5C 12.8333,3.83333 13.1667,3.83333 13.5,6.5 Z"/></g>
<g><path style="opacity:0.012" fill="#d2d4d4" d="M 12.5,6.5 C 11.8333,7.16667 11.8333,7.16667 12.5,6.5 Z"/></g>
<g><path style="opacity:0.012" fill="#d3d4d5" d="M 130.5,8.5 C 130.167,8.5 129.833,8.5 129.5,8.5C 129.833,5.83333 130.167,5.83333 130.5,8.5 Z"/></g>
<g><path style="opacity:0.012" fill="#d3d4d5" d="M 11.5,10.5 C 10.475,10.1034 10.3083,9.43677 11,8.5C 11.4643,9.09442 11.631,9.76109 11.5,10.5 Z"/></g>
<g><path style="opacity:0.004" fill="#d3d4d5" d="M 130.5,8.5 C 131.525,8.89657 131.692,9.56323 131,10.5C 130.536,9.90558 130.369,9.23891 130.5,8.5 Z"/></g>
<g><path style="opacity:0.02" fill="#d3d4d5" d="M 10.5,15.5 C 10.1667,15.5 9.83333,15.5 9.5,15.5C 9.83333,10.1667 10.1667,10.1667 10.5,15.5 Z"/></g>
<g><path style="opacity:0.012" fill="#d2d3d4" d="M 131.5,15.5 C 131.343,14.1266 131.51,12.7932 132,11.5C 132.765,13.0657 132.598,14.3991 131.5,15.5 Z"/></g>
<g><path style="opacity:0.004" fill="#d2d4d4" d="M 9.5,15.5 C 8.83333,16.1667 8.83333,16.1667 9.5,15.5 Z"/></g>
<g><path style="opacity:0.016" fill="#d2d4d4" d="M 10.5,17.5 C 10.6567,18.8734 10.49,20.2068 10,21.5C 9.23502,19.9343 9.40168,18.6009 10.5,17.5 Z"/></g>
<g><path style="opacity:0.01" fill="#d2d3d4" d="M 131.5,17.5 C 132.598,18.6009 132.765,19.9343 132,21.5C 131.51,20.2068 131.343,18.8734 131.5,17.5 Z"/></g>
<g><path style="opacity:0.012" fill="#d2d4d4" d="M 130.5,22.5 C 131.525,22.8966 131.692,23.5632 131,24.5C 130.536,23.9056 130.369,23.2389 130.5,22.5 Z"/></g>
<g><path style="opacity:0.016" fill="#d2d3d4" d="M 11.5,22.5 C 11.631,23.2389 11.4643,23.9056 11,24.5C 10.3083,23.5632 10.475,22.8966 11.5,22.5 Z"/></g>
<g><path style="opacity:0.01" fill="#d2d3d4" d="M 12.5,26.5 C 12.6495,27.552 12.4828,28.552 12,29.5C 11.2599,28.2506 11.4265,27.2506 12.5,26.5 Z"/></g>
<g><path style="opacity:0.012" fill="#d3d4d5" d="M 129.5,26.5 C 130.525,26.8966 130.692,27.5632 130,28.5C 129.536,27.9056 129.369,27.2389 129.5,26.5 Z"/></g>
<g><path style="opacity:0.016" fill="#d2d4d4" d="M 12.5,30.5 C 13.525,30.8966 13.6917,31.5632 13,32.5C 12.5357,31.9056 12.369,31.2389 12.5,30.5 Z"/></g>
<g><path style="opacity:0.01" fill="#d2d3d4" d="M 128.5,29.5 C 129.573,30.2506 129.74,31.2506 129,32.5C 128.517,31.552 128.351,30.552 128.5,29.5 Z"/></g>
<g><path style="opacity:0.02" fill="#d1d3d3" d="M 130.5,37.5 C 129.833,36.1667 129.833,36.1667 130.5,37.5 Z"/></g>
<g><path style="opacity:0.012" fill="#d1d4d4" d="M 130.5,37.5 C 131.833,38.1667 131.833,38.1667 130.5,37.5 Z"/></g>
<g><path style="opacity:0.016" fill="#d1d3d3" d="M 131.5,39.5 C 132.833,40.1667 132.833,40.1667 131.5,39.5 Z"/></g>
<g><path style="opacity:0.016" fill="#d1d3d3" d="M 132.5,41.5 C 133.833,42.1667 133.833,42.1667 132.5,41.5 Z"/></g>
<g><path style="opacity:0.016" fill="#d1d3d3" d="M 133.5,43.5 C 134.833,44.1667 134.833,44.1667 133.5,43.5 Z"/></g>
<g><path style="opacity:0.016" fill="#d2d4d4" d="M 134.5,45.5 C 135.833,46.1667 135.833,46.1667 134.5,45.5 Z"/></g>
<g><path style="opacity:0.014" fill="#d2d3d4" d="M 1.5,60.5 C 2.57346,61.2506 2.74012,62.2506 2,63.5C 1.51722,62.552 1.35055,61.552 1.5,60.5 Z"/></g>
<g><path style="opacity:0.012" fill="#d2d3d4" d="M 141.5,65.5 C 141.5,70.8333 141.5,76.1667 141.5,81.5C 141.167,81.5 140.833,81.5 140.5,81.5C 140.179,75.9738 140.512,70.6405 141.5,65.5 Z"/></g>
<g><path style="opacity:0.016" fill="#d2d3d4" d="M 0.5,66.5 C 1.64966,71.3158 1.81632,76.3158 1,81.5C 0.500738,76.5111 0.334072,71.5111 0.5,66.5 Z"/></g>
<g><path style="opacity:0.004" fill="#d0d2d2" d="M 2.5,82.5 C 1.83333,83.1667 1.83333,83.1667 2.5,82.5 Z"/></g>
<g><path style="opacity:0.012" fill="#d2d3d4" d="M 139.5,81.5 C 139.833,81.5 140.167,81.5 140.5,81.5C 140.802,84.0593 140.468,86.3926 139.5,88.5C 139.5,86.1667 139.5,83.8333 139.5,81.5 Z"/></g>
<g><path style="opacity:0.004" fill="#d2d3d4" d="M 2.5,88.5 C 1.40168,87.3991 1.23502,86.0657 2,84.5C 2.49001,85.7932 2.65668,87.1266 2.5,88.5 Z"/></g>
<g><path style="opacity:0.004" fill="#d2d3d4" d="M 2.5,88.5 C 2.83333,88.5 3.16667,88.5 3.5,88.5C 3.5,89.8333 3.5,91.1667 3.5,92.5C 2.56552,91.4324 2.23219,90.099 2.5,88.5 Z"/></g>
<g><path style="opacity:0.009" fill="#d2d3d4" d="M 138.5,88.5 C 138.833,88.5 139.167,88.5 139.5,88.5C 139.768,90.099 139.434,91.4324 138.5,92.5C 138.5,91.1667 138.5,89.8333 138.5,88.5 Z"/></g>
<g><path style="opacity:0.008" fill="#d2d3d4" d="M 3.5,92.5 C 3.83333,92.5 4.16667,92.5 4.5,92.5C 4.16667,96.5 3.83333,96.5 3.5,92.5 Z"/></g>
<g><path style="opacity:0.012" fill="#d2d3d4" d="M 137.5,92.5 C 137.833,92.5 138.167,92.5 138.5,92.5C 138.737,93.791 138.404,94.791 137.5,95.5C 137.5,94.5 137.5,93.5 137.5,92.5 Z"/></g>
<g><path style="opacity:0.012" fill="#d2d3d4" d="M 136.5,95.5 C 136.833,95.5 137.167,95.5 137.5,95.5C 137.737,96.791 137.404,97.791 136.5,98.5C 136.5,97.5 136.5,96.5 136.5,95.5 Z"/></g>
<g><path style="opacity:0.01" fill="#d2d4d4" d="M 4.5,96.5 C 5.52502,96.8966 5.69169,97.5632 5,98.5C 4.53566,97.9056 4.36899,97.2389 4.5,96.5 Z"/></g>
<g><path style="opacity:0.016" fill="#d2d4d4" d="M 6.5,99.5 C 5.83333,100.167 5.83333,100.167 6.5,99.5 Z"/></g>
<g><path style="opacity:0.012" fill="#d2d4d5" d="M 135.5,98.5 C 135.833,98.5 136.167,98.5 136.5,98.5C 136.167,101.167 135.833,101.167 135.5,98.5 Z"/></g>
<g><path style="opacity:0.016" fill="#d1d4d4" d="M 134.5,101.5 C 135.833,102.167 135.833,102.167 134.5,101.5 Z"/></g>
<g><path style="opacity:0.004" fill="#d2d3d4" d="M 7.5,103.5 C 6.47498,103.103 6.30831,102.437 7,101.5C 7.46434,102.094 7.63101,102.761 7.5,103.5 Z"/></g>
<g><path style="opacity:0.016" fill="#d1d3d3" d="M 133.5,103.5 C 134.833,104.167 134.833,104.167 133.5,103.5 Z"/></g>
<g><path style="opacity:0.004" fill="#d2d3d4" d="M 7.5,103.5 C 7.83333,103.5 8.16667,103.5 8.5,103.5C 8.5,104.167 8.5,104.833 8.5,105.5C 7.66175,105.158 7.32842,104.492 7.5,103.5 Z"/></g>
<g><path style="opacity:0.016" fill="#d1d3d3" d="M 132.5,105.5 C 133.833,106.167 133.833,106.167 132.5,105.5 Z"/></g>
<g><path style="opacity:0.004" fill="#d2d3d4" d="M 8.5,105.5 C 8.83333,105.5 9.16667,105.5 9.5,105.5C 9.5,106.167 9.5,106.833 9.5,107.5C 8.66175,107.158 8.32842,106.492 8.5,105.5 Z"/></g>
<g><path style="opacity:0.008" fill="#d0d2d2" d="M 9.5,107.5 C 9.83333,107.5 10.1667,107.5 10.5,107.5C 10.3147,108.17 9.98135,108.17 9.5,107.5 Z"/></g>
<g><path style="opacity:0.008" fill="#d2d4d4" d="M 131.5,107.5 C 132.833,108.167 132.833,108.167 131.5,107.5 Z"/></g>
<g><path style="opacity:0.016" fill="#d2d4d4" d="M 11.5,110.5 C 10.8333,109.167 10.8333,109.167 11.5,110.5 Z"/></g>
<g><path style="opacity:0.012" fill="#d1d2d3" d="M 130.5,108.5 C 130.833,108.5 131.167,108.5 131.5,108.5C 131.672,109.492 131.338,110.158 130.5,110.5C 130.5,109.833 130.5,109.167 130.5,108.5 Z"/></g>
<g><path style="opacity:0.02" fill="#d1d3d3" d="M 129.5,110.5 C 129.833,110.5 130.167,110.5 130.5,110.5C 130.315,111.17 129.981,111.17 129.5,110.5 Z"/></g>
<g><path style="opacity:0.004" fill="#d2d3d4" d="M 11.5,110.5 C 11.8333,110.5 12.1667,110.5 12.5,110.5C 12.1667,113.167 11.8333,113.167 11.5,110.5 Z"/></g>
<g><path style="opacity:0.016" fill="#d1d3d3" d="M 128.5,112.5 C 129.833,113.167 129.833,113.167 128.5,112.5 Z"/></g>
<g><path style="opacity:0.012" fill="#d1d3d3" d="M 127.5,113.5 C 127.833,113.5 128.167,113.5 128.5,113.5C 128.672,114.492 128.338,115.158 127.5,115.5C 127.5,114.833 127.5,114.167 127.5,113.5 Z"/></g>
<g><path style="opacity:0.004" fill="#d2d2d3" d="M 15.5,114.5 C 15.631,115.239 15.4643,115.906 15,116.5C 14.3083,115.563 14.475,114.897 15.5,114.5 Z"/></g>
<g><path style="opacity:0.008" fill="#d1d3d3" d="M 126.5,115.5 C 126.833,115.5 127.167,115.5 127.5,115.5C 127.315,116.17 126.981,116.17 126.5,115.5 Z"/></g>
<g><path style="opacity:0.02" fill="#d1d3d3" d="M 125.5,116.5 C 125.833,116.5 126.167,116.5 126.5,116.5C 126.315,117.17 125.981,117.17 125.5,116.5 Z"/></g>
<g><path style="opacity:0.016" fill="#d0d2d2" d="M 124.5,117.5 C 124.833,117.5 125.167,117.5 125.5,117.5C 125.315,118.17 124.981,118.17 124.5,117.5 Z"/></g>
<g><path style="opacity:0.008" fill="#d0d2d2" d="M 123.5,118.5 C 123.833,118.5 124.167,118.5 124.5,118.5C 124.315,119.17 123.981,119.17 123.5,118.5 Z"/></g>
<g><path style="opacity:0.02" fill="#d1d3d3" d="M 122.5,119.5 C 122.833,119.5 123.167,119.5 123.5,119.5C 123.315,120.17 122.981,120.17 122.5,119.5 Z"/></g>
<g><path style="opacity:0.008" fill="#d3d4d5" d="M 20.5,120.5 C 20.631,121.239 20.4643,121.906 20,122.5C 19.3083,121.563 19.475,120.897 20.5,120.5 Z"/></g>
<g><path style="opacity:0.008" fill="#d3d4d5" d="M 121.5,120.5 C 121.833,120.5 122.167,120.5 122.5,120.5C 122.672,121.492 122.338,122.158 121.5,122.5C 121.5,121.833 121.5,121.167 121.5,120.5 Z"/></g>
<g><path style="opacity:0.012" fill="#d1d3d3" d="M 120.5,122.5 C 120.833,122.5 121.167,122.5 121.5,122.5C 121.315,123.17 120.981,123.17 120.5,122.5 Z"/></g>
<g><path style="opacity:0.012" fill="#d1d3d3" d="M 119.5,123.5 C 119.833,123.5 120.167,123.5 120.5,123.5C 120.315,124.17 119.981,124.17 119.5,123.5 Z"/></g>
<g><path style="opacity:0.008" fill="#d1d3d3" d="M 118.5,124.5 C 118.833,124.5 119.167,124.5 119.5,124.5C 119.315,125.17 118.981,125.17 118.5,124.5 Z"/></g>
<g><path style="opacity:0.004" fill="#d1d3d4" d="M 116.5,126.5 C 116.5,126.167 116.5,125.833 116.5,125.5C 117.167,125.5 117.833,125.5 118.5,125.5C 118.158,126.338 117.492,126.672 116.5,126.5 Z"/></g>
<g><path style="opacity:0.02" fill="#d0d2d1" d="M 115.5,126.5 C 115.833,126.5 116.167,126.5 116.5,126.5C 116.315,127.17 115.981,127.17 115.5,126.5 Z"/></g>
<g><path style="opacity:0.012" fill="#cfd1d1" d="M 114.5,127.5 C 114.833,127.5 115.167,127.5 115.5,127.5C 115.315,128.17 114.981,128.17 114.5,127.5 Z"/></g>
<g><path style="opacity:0.016" fill="#d0d2d2" d="M 113.5,128.5 C 113.833,128.5 114.167,128.5 114.5,128.5C 114.315,129.17 113.981,129.17 113.5,128.5 Z"/></g>
<g><path style="opacity:0.008" fill="#d1d2d2" d="M 112.5,129.5 C 112.833,129.5 113.167,129.5 113.5,129.5C 113.315,130.17 112.981,130.17 112.5,129.5 Z"/></g>
<g><path style="opacity:0.004" fill="#d2d2d3" d="M 110.5,131.5 C 110.5,131.167 110.5,130.833 110.5,130.5C 111.167,130.5 111.833,130.5 112.5,130.5C 112.158,131.338 111.492,131.672 110.5,131.5 Z"/></g>
<g><path style="opacity:0.012" fill="#d1d3d3" d="M 109.5,131.5 C 109.833,131.5 110.167,131.5 110.5,131.5C 110.315,132.17 109.981,132.17 109.5,131.5 Z"/></g>
<g><path style="opacity:0.006" fill="#d1d2d3" d="M 107.5,133.5 C 107.5,133.167 107.5,132.833 107.5,132.5C 108.167,132.5 108.833,132.5 109.5,132.5C 109.158,133.338 108.492,133.672 107.5,133.5 Z"/></g>
<g><path style="opacity:0.016" fill="#d1d3d3" d="M 106.5,133.5 C 106.833,133.5 107.167,133.5 107.5,133.5C 107.315,134.17 106.981,134.17 106.5,133.5 Z"/></g>
<g><path style="opacity:0.016" fill="#d1d3d3" d="M 104.5,134.5 C 105.833,135.167 105.833,135.167 104.5,134.5 Z"/></g>
<g><path style="opacity:0.961" fill="#cccdce" d="M 21.5,-0.5 C 23.5,-0.5 25.5,-0.5 27.5,-0.5C 34.0015,2.66825 40.5015,6.00159 47,9.5C 57.8911,6.02201 69.0577,4.68868 80.5,5.5C 85.2699,6.57069 90.1032,7.90402 95,9.5C 99.9599,6.93941 104.793,4.27275 109.5,1.5C 111.553,1.59794 113.22,0.931268 114.5,-0.5C 116.5,-0.5 118.5,-0.5 120.5,-0.5C 124.5,1.5 127.5,4.5 129.5,8.5C 129.721,11.0673 130.388,13.4006 131.5,15.5C 131.5,16.1667 131.5,16.8333 131.5,17.5C 129.719,21.1998 128.719,25.1998 128.5,29.5C 125.65,32.4967 125.984,35.1634 129.5,37.5C 129.427,39.0269 130.094,40.0269 131.5,40.5C 131.328,41.4916 131.662,42.1583 132.5,42.5C 132.328,43.4916 132.662,44.1583 133.5,44.5C 133.328,45.4916 133.662,46.1583 134.5,46.5C 138.442,57.8214 140.109,69.4881 139.5,81.5C 138.532,83.6074 138.198,85.9407 138.5,88.5C 137.566,89.5676 137.232,90.901 137.5,92.5C 136.596,93.209 136.263,94.209 136.5,95.5C 135.596,96.209 135.263,97.209 135.5,98.5C 134.596,99.209 134.263,100.209 134.5,101.5C 133.662,101.842 133.328,102.508 133.5,103.5C 132.662,103.842 132.328,104.508 132.5,105.5C 131.662,105.842 131.328,106.508 131.5,107.5C 130.833,107.5 130.5,107.833 130.5,108.5C 129.662,108.842 129.328,109.508 129.5,110.5C 128.662,110.842 128.328,111.508 128.5,112.5C 127.833,112.5 127.5,112.833 127.5,113.5C 126.662,113.842 126.328,114.508 126.5,115.5C 125.833,115.5 125.5,115.833 125.5,116.5C 124.833,116.5 124.5,116.833 124.5,117.5C 123.833,117.5 123.5,117.833 123.5,118.5C 122.833,118.5 122.5,118.833 122.5,119.5C 121.833,119.5 121.5,119.833 121.5,120.5C 120.662,120.842 120.328,121.508 120.5,122.5C 119.833,122.5 119.5,122.833 119.5,123.5C 118.833,123.5 118.5,123.833 118.5,124.5C 117.508,124.328 116.842,124.662 116.5,125.5C 115.833,125.5 115.5,125.833 115.5,126.5C 114.833,126.5 114.5,126.833 114.5,127.5C 113.833,127.5 113.5,127.833 113.5,128.5C 112.833,128.5 112.5,128.833 112.5,129.5C 111.508,129.328 110.842,129.662 110.5,130.5C 109.833,130.5 109.5,130.833 109.5,131.5C 108.508,131.328 107.842,131.662 107.5,132.5C 106.833,132.5 106.5,132.833 106.5,133.5C 105.508,133.328 104.842,133.662 104.5,134.5C 103.508,134.328 102.842,134.662 102.5,135.5C 101.833,135.5 101.5,135.833 101.5,136.5C 100.209,136.263 99.209,136.596 98.5,137.5C 97.209,137.263 96.209,137.596 95.5,138.5C 94.5084,138.328 93.8417,138.662 93.5,139.5C 92.209,139.263 91.209,139.596 90.5,140.5C 88.901,140.232 87.5676,140.566 86.5,141.5C 84.2646,141.205 82.2646,141.539 80.5,142.5C 74.1667,142.5 67.8333,142.5 61.5,142.5C 59.7354,141.539 57.7354,141.205 55.5,141.5C 51.6472,139.993 47.6472,138.66 43.5,137.5C 34.9047,133.041 27.2381,127.375 20.5,120.5C 18.8036,118.475 17.137,116.475 15.5,114.5C 14.4884,113.128 13.4884,111.795 12.5,110.5C 12.573,108.973 11.9063,107.973 10.5,107.5C 10.6716,106.508 10.3382,105.842 9.5,105.5C 9.67158,104.508 9.33825,103.842 8.5,103.5C 8.77089,101.62 8.10422,100.287 6.5,99.5C 6.59047,96.8478 5.92381,94.5145 4.5,92.5C 4.76781,90.901 4.43448,89.5676 3.5,88.5C 3.79472,86.2646 3.46138,84.2646 2.5,82.5C 1.06484,64.5704 5.39817,48.237 15.5,33.5C 14.6701,30.9836 13.6701,28.6502 12.5,26.5C 12.7678,24.901 12.4345,23.5676 11.5,22.5C 11.7845,20.5853 11.4511,18.9187 10.5,17.5C 10.5,16.8333 10.5,16.1667 10.5,15.5C 11.4511,14.0813 11.7845,12.4147 11.5,10.5C 12.6737,9.48631 13.3404,8.15298 13.5,6.5C 15.5491,3.45031 18.2157,1.11698 21.5,-0.5 Z"/></g>
<g><path style="opacity:1" fill="#e4e4e4" d="M 88.5,120.5 C 90.2252,120.843 90.7252,121.843 90,123.5C 88.3005,124.406 86.4672,124.739 84.5,124.5C 85.1628,127.821 85.8295,131.154 86.5,134.5C 86.3601,136.03 85.6935,137.03 84.5,137.5C 83.0552,134.063 82.0552,130.397 81.5,126.5C 79.2075,126.244 77.0408,126.577 75,127.5C 74.51,126.207 74.3433,124.873 74.5,123.5C 79.4119,123.102 84.0785,122.102 88.5,120.5 Z"/></g>
<g><path style="opacity:1" fill="#121212" d="M 24.5,88.5 C 36.515,116.673 57.515,127.007 87.5,119.5C 87.5,120.167 87.8333,120.5 88.5,120.5C 84.0785,122.102 79.4119,123.102 74.5,123.5C 74.3433,124.873 74.51,126.207 75,127.5C 77.0408,126.577 79.2075,126.244 81.5,126.5C 82.0552,130.397 83.0552,134.063 84.5,137.5C 84.5,137.833 84.5,138.167 84.5,138.5C 50.1201,143.808 25.1201,130.808 9.5,99.5C 9.83333,99.5 10.1667,99.5 10.5,99.5C 13.0585,102.933 15.3919,106.599 17.5,110.5C 18.1667,110.833 18.8333,111.167 19.5,111.5C 22.2801,110.543 24.9467,109.376 27.5,108C 29.8469,106.809 30.6802,104.976 30,102.5C 27.9485,98.3541 25.4485,94.6874 22.5,91.5C 23.5511,90.7777 24.2178,89.7777 24.5,88.5 Z"/></g>
<g><path style="opacity:1" fill="#e3e3e3" d="M 53.5,121.5 C 57.8509,122.17 62.1843,123.004 66.5,124C 68.1066,125.049 68.7733,126.549 68.5,128.5C 65.3534,127.12 62.02,126.12 58.5,125.5C 57.5,125.833 56.5,126.167 55.5,126.5C 59.2852,128.105 63.1186,129.772 67,131.5C 67.3423,133.818 66.8423,135.985 65.5,138C 60.7313,138.312 56.0646,137.645 51.5,136C 50.6198,134.644 50.2865,133.144 50.5,131.5C 52.6807,131.284 54.3474,132.117 55.5,134C 58.2272,134.818 60.8938,134.652 63.5,133.5C 59.5757,132.352 55.7424,131.019 52,129.5C 51.2815,126.593 51.7815,123.926 53.5,121.5 Z"/></g>
<g><path style="opacity:1" fill="#ececec" d="M 33.5,110.5 C 38.4078,111.374 42.5745,113.707 46,117.5C 46.1258,122.104 44.2925,125.938 40.5,129C 35.5672,128.615 31.4005,126.448 28,122.5C 27.3333,121.167 27.3333,119.833 28,118.5C 30.054,115.953 31.8874,113.286 33.5,110.5 Z"/></g>
<g><path style="opacity:1" fill="#0f0f0f" d="M 34.5,114.5 C 38.2026,114.862 41.2026,116.529 43.5,119.5C 40.7294,126.594 36.896,127.26 32,121.5C 31.3333,120.5 31.3333,119.5 32,118.5C 33.4813,117.529 34.3146,116.196 34.5,114.5 Z"/></g>
<g><path style="opacity:1" fill="#9b938d" d="M 27.5,56.5 C 30.4357,61.1053 34.1024,65.1053 38.5,68.5C 37.5934,71.4212 37.2601,74.4212 37.5,77.5C 36.1667,77.5 34.8333,77.5 33.5,77.5C 35.0329,85.7646 39.3662,91.9313 46.5,96C 48.0249,97.0086 49.6916,97.5086 51.5,97.5C 52.9894,105.508 57.156,111.842 64,116.5C 64.3742,115.584 64.8742,114.75 65.5,114C 69.1667,113.333 72.8333,113.333 76.5,114C 77.1258,114.75 77.6258,115.584 78,116.5C 84.8254,111.855 88.9921,105.521 90.5,97.5C 92.3084,97.5086 93.9751,97.0086 95.5,96C 98.1208,94.3459 100.621,92.5125 103,90.5C 105.107,86.6194 106.941,82.6194 108.5,78.5C 107.311,77.5713 105.978,77.238 104.5,77.5C 104.74,74.4212 104.407,71.4212 103.5,68.5C 107.898,65.1053 111.564,61.1053 114.5,56.5C 116.542,64.8297 117.876,73.163 118.5,81.5C 118.768,83.099 118.434,84.4324 117.5,85.5C 117.649,84.448 117.483,83.448 117,82.5C 107.254,112.905 86.7543,124.738 55.5,118C 36.209,109.929 25.8756,95.4286 24.5,74.5C 25.0706,68.4098 26.0706,62.4098 27.5,56.5 Z"/></g>
<g><path style="opacity:1" fill="#e3e3e2" d="M 27.5,56.5 C 26.0706,62.4098 25.0706,68.4098 24.5,74.5C 25.8756,95.4286 36.209,109.929 55.5,118C 86.7543,124.738 107.254,112.905 117,82.5C 117.483,83.448 117.649,84.448 117.5,85.5C 113.504,102.161 103.504,113.494 87.5,119.5C 57.515,127.007 36.515,116.673 24.5,88.5C 21.3291,77.2305 21.9958,66.2305 26.5,55.5C 27.1067,55.6236 27.44,55.9569 27.5,56.5 Z"/></g>
<g><path style="opacity:1" fill="#e8e8e8" d="M 22.5,91.5 C 25.4485,94.6874 27.9485,98.3541 30,102.5C 30.6802,104.976 29.8469,106.809 27.5,108C 24.9467,109.376 22.2801,110.543 19.5,111.5C 18.8333,111.167 18.1667,110.833 17.5,110.5C 15.3919,106.599 13.0585,102.933 10.5,99.5C 14.0532,96.3739 18.0532,93.7072 22.5,91.5 Z"/></g>
<g><path style="opacity:1" fill="#161616" d="M 16.5,98.5 C 18.9432,101.052 20.6099,104.052 21.5,107.5C 20.325,107.719 19.325,107.386 18.5,106.5C 16.5158,103.956 15.8492,101.289 16.5,98.5 Z"/></g>
<g><path style="opacity:1" fill="#171717" d="M 21.5,95.5 C 24.8062,97.7667 26.1395,100.767 25.5,104.5C 22.1672,102.186 20.8339,99.1859 21.5,95.5 Z"/></g>
<g><path style="opacity:1" fill="#0a0805" d="M 84.5,138.5 C 84.5,138.167 84.5,137.833 84.5,137.5C 85.6935,137.03 86.3601,136.03 86.5,134.5C 85.8295,131.154 85.1628,127.821 84.5,124.5C 86.4672,124.739 88.3005,124.406 90,123.5C 90.7252,121.843 90.2252,120.843 88.5,120.5C 87.8333,120.5 87.5,120.167 87.5,119.5C 103.504,113.494 113.504,102.161 117.5,85.5C 118.434,84.4324 118.768,83.099 118.5,81.5C 120.493,72.3996 119.327,63.7329 115,55.5C 114.601,55.7284 114.435,56.0618 114.5,56.5C 111.564,61.1053 107.898,65.1053 103.5,68.5C 104.407,71.4212 104.74,74.4212 104.5,77.5C 105.978,77.238 107.311,77.5713 108.5,78.5C 106.941,82.6194 105.107,86.6194 103,90.5C 100.621,92.5125 98.1208,94.3459 95.5,96C 93.9751,97.0086 92.3084,97.5086 90.5,97.5C 88.9921,105.521 84.8254,111.855 78,116.5C 77.6258,115.584 77.1258,114.75 76.5,114C 72.8333,113.333 69.1667,113.333 65.5,114C 64.8742,114.75 64.3742,115.584 64,116.5C 57.156,111.842 52.9894,105.508 51.5,97.5C 49.6916,97.5086 48.0249,97.0086 46.5,96C 39.3662,91.9313 35.0329,85.7646 33.5,77.5C 34.8333,77.5 36.1667,77.5 37.5,77.5C 37.2601,74.4212 37.5934,71.4212 38.5,68.5C 34.1024,65.1053 30.4357,61.1053 27.5,56.5C 27.44,55.9569 27.1067,55.6236 26.5,55.5C 21.9958,66.2305 21.3291,77.2305 24.5,88.5C 24.2178,89.7777 23.5511,90.7777 22.5,91.5C 18.0532,93.7072 14.0532,96.3739 10.5,99.5C 10.1667,99.5 9.83333,99.5 9.5,99.5C 1.00072,76.839 3.50072,55.5057 17,35.5C 16.0451,28.8817 14.8784,22.215 13.5,15.5C 13.8658,5.62673 18.8658,1.46007 28.5,3C 34.9043,5.7459 41.071,8.91257 47,12.5C 62.9172,5.8439 78.9172,5.8439 95,12.5C 100.823,9.34997 106.657,6.18331 112.5,3C 122.608,0.933754 127.942,5.10042 128.5,15.5C 126.784,22.1238 125.617,28.7905 125,35.5C 136.446,52.5957 139.779,71.2624 135,91.5C 126.943,116.728 110.109,132.395 84.5,138.5 Z"/></g>
<g><path style="opacity:1" fill="#e9e9e9" d="M 105.5,109.5 C 107.903,109.393 109.736,110.393 111,112.5C 112.914,114.748 114.414,117.248 115.5,120C 114.899,121.605 113.899,122.938 112.5,124C 109.926,126.243 107.092,128.076 104,129.5C 102.739,129.241 101.739,128.574 101,127.5C 98.7574,124.926 96.924,122.092 95.5,119C 98.6641,115.67 101.997,112.503 105.5,109.5 Z"/></g>
<g><path style="opacity:1" fill="#0f0f0f" d="M 105.5,113.5 C 108.37,114.528 110.37,116.528 111.5,119.5C 107.139,127.08 103.139,127.08 99.5,119.5C 101.215,117.118 103.215,115.118 105.5,113.5 Z"/></g>
<g><path style="opacity:1" fill="#e8e8e8" d="M 118.5,89.5 C 123.375,90.9356 128.042,92.9356 132.5,95.5C 132.081,96.6721 131.415,97.6721 130.5,98.5C 126.126,100.236 121.793,102.069 117.5,104C 119.917,105.626 122.417,107.126 125,108.5C 125.601,109.965 125.101,110.965 123.5,111.5C 118.906,109.716 114.906,107.216 111.5,104C 111.645,103.228 111.978,102.561 112.5,102C 116.984,100.257 121.317,98.2571 125.5,96C 123.246,94.744 120.912,93.5773 118.5,92.5C 117.438,91.5754 117.438,90.5754 118.5,89.5 Z"/></g>
<g><path style="opacity:1" fill="#f9bf2f" d="M 80.5,103.5 C 80.44,104.043 80.1067,104.376 79.5,104.5C 78.8333,103.833 78.1667,103.167 77.5,102.5C 72.1344,110.493 66.9677,110.493 62,102.5C 60.6507,105.07 59.484,105.07 58.5,102.5C 64.8763,95.2192 72.0429,94.5525 80,100.5C 80.4828,101.448 80.6495,102.448 80.5,103.5 Z"/></g>
<g><path style="opacity:1" fill="#ae841f" d="M 80.5,103.5 C 80.6495,102.448 80.4828,101.448 80,100.5C 72.0429,94.5525 64.8763,95.2192 58.5,102.5C 57.1944,99.3132 57.1944,95.9798 58.5,92.5C 59.5,93.1667 60.5,93.8333 61.5,94.5C 64.0131,92.4935 66.8464,91.1602 70,90.5C 72.8505,91.6738 75.6838,93.0072 78.5,94.5C 81.3075,91.5022 82.6409,92.1688 82.5,96.5C 82.5596,99.1554 81.8929,101.489 80.5,103.5 Z"/></g>
<g><path style="opacity:1" fill="#be9325" d="M 85.5,86.5 C 87.6979,87.1653 90.0312,87.8319 92.5,88.5C 92.2907,89.086 91.9574,89.586 91.5,90C 87.1936,90.9124 83.1936,90.4124 79.5,88.5C 81.5,87.8333 83.5,87.1667 85.5,86.5 Z"/></g>
<g><path style="opacity:1" fill="#664d12" d="M 56.5,87.5 C 53.8333,88.1667 51.1667,88.8333 48.5,89.5C 47.9569,89.44 47.6236,89.1067 47.5,88.5C 50.4281,87.5159 53.4281,87.1826 56.5,87.5 Z"/></g>
<g><path style="opacity:1" fill="#b1b1b1" d="M 127.5,71.5 C 130.123,72.9705 132.456,74.8039 134.5,77C 133.287,78.6303 132.454,80.4636 132,82.5C 130.062,83.8602 128.396,83.5268 127,81.5C 125.132,82.6719 123.298,82.5053 121.5,81C 122.872,80.5983 124.205,80.0983 125.5,79.5C 126.228,77.8068 127.228,76.3068 128.5,75C 127.663,73.9887 127.33,72.8221 127.5,71.5 Z"/></g>
<g><path style="opacity:1" fill="#775a16" d="M 48.5,75.5 C 49.4734,75.9867 50.4734,76.4867 51.5,77C 49.6183,77.1981 47.9516,77.6981 46.5,78.5C 44.9153,77.9976 44.4153,76.9976 45,75.5C 46.2917,76.7911 47.4583,76.7911 48.5,75.5 Z"/></g>
<g><path style="opacity:1" fill="#b5b5b5" d="M 12.5,71.5 C 14.6516,72.0768 14.985,73.2435 13.5,75C 14.7018,77.8041 16.7018,79.8041 19.5,81C 18.1354,82.6819 16.6354,82.8486 15,81.5C 13.6043,83.5268 11.9376,83.8602 10,82.5C 9.54643,80.4636 8.7131,78.6303 7.5,77C 9.33673,75.3751 11.0034,73.5418 12.5,71.5 Z"/></g>
<g><path style="opacity:1" fill="#848484" d="M 122.5,74.5 C 123.708,73.218 125.042,73.218 126.5,74.5C 125.754,75.7362 125.421,77.0695 125.5,78.5C 123.319,78.7163 121.653,77.883 120.5,76C 122.343,75.8413 123.009,75.3413 122.5,74.5 Z"/></g>
<g><path style="opacity:1" fill="#828282" d="M 15.5,73.5 C 16.8734,73.3433 18.2068,73.51 19.5,74C 19.1667,74.3333 18.8333,74.6667 18.5,75C 19.5,75.3333 20.5,75.6667 21.5,76C 20.3474,77.883 18.6807,78.7163 16.5,78.5C 16.3713,76.7839 16.038,75.1172 15.5,73.5 Z"/></g>
<g><path style="opacity:1" fill="#d9d9d9" d="M 118.5,81.5 C 117.876,73.163 116.542,64.8297 114.5,56.5C 114.435,56.0618 114.601,55.7284 115,55.5C 119.327,63.7329 120.493,72.3996 118.5,81.5 Z"/></g>
<g><path style="opacity:1" fill="#b1861f" d="M 106.5,53.5 C 104.21,57.7905 100.876,61.1238 96.5,63.5C 95.8326,66.6417 95.166,69.6417 94.5,72.5C 92.7788,68.7274 90.7788,65.0608 88.5,61.5C 94.9889,59.7874 100.989,57.1208 106.5,53.5 Z"/></g>
<g><path style="opacity:1" fill="#b28620" d="M 33.5,53.5 C 36.5162,54.3431 39.1829,55.8431 41.5,58C 45.1418,58.9142 48.8085,59.7475 52.5,60.5C 50.1922,64.7768 48.1922,69.1101 46.5,73.5C 45.0133,70.4542 44.0133,67.1209 43.5,63.5C 39.1237,61.1238 35.7904,57.7905 33.5,53.5 Z"/></g>
<g><path style="opacity:1" fill="#ab821e" d="M 119.5,20.5 C 120.647,24.6463 120.814,28.9796 120,33.5C 117.931,38.736 116.098,38.5693 114.5,33C 116.08,31.2774 117.58,29.4441 119,27.5C 119.497,25.1902 119.663,22.8568 119.5,20.5 Z"/></g>
<g><path style="opacity:1" fill="#a67e1d" d="M 21.5,20.5 C 22.1667,22.8333 22.8333,25.1667 23.5,27.5C 24.2288,29.7353 25.5621,31.5686 27.5,33C 25.7921,38.6338 23.9587,38.8004 22,33.5C 21.501,29.1794 21.3343,24.8461 21.5,20.5 Z"/></g>
<g><path style="opacity:1" fill="#af851f" d="M 46.5,23.5 C 46.335,26.8499 46.5017,30.1832 47,33.5C 48.3557,36.3289 49.8557,38.9955 51.5,41.5C 48.4037,40.4533 45.4037,39.12 42.5,37.5C 40.3132,31.6932 41.6465,27.0265 46.5,23.5 Z"/></g>
<g><path style="opacity:1" fill="#b0851f" d="M 93.5,23.5 C 98.4695,26.9343 99.8029,31.601 97.5,37.5C 95.2195,38.7019 92.8862,39.7019 90.5,40.5C 93.0057,35.1353 94.0057,29.4686 93.5,23.5 Z"/></g>
<g><path style="opacity:1" fill="#fabf30" d="M 93.5,23.5 C 94.0057,29.4686 93.0057,35.1353 90.5,40.5C 85.5148,42.1519 82.1814,45.4852 80.5,50.5C 78.4733,49.3067 76.9733,47.64 76,45.5C 75.8379,49.3783 77.5046,52.3783 81,54.5C 81.3333,57.5 81.6667,60.5 82,63.5C 84.0229,61.2307 84.8563,58.5641 84.5,55.5C 93.7845,56.882 98.4511,52.882 98.5,43.5C 102.31,45.2515 105.643,47.7515 108.5,51C 107.934,51.9947 107.267,52.828 106.5,53.5C 100.989,57.1208 94.9889,59.7874 88.5,61.5C 90.7788,65.0608 92.7788,68.7274 94.5,72.5C 93.2842,74.4509 91.6175,75.9509 89.5,77C 91.5,77 93.5,77 95.5,77C 92.7144,79.7262 89.381,81.3928 85.5,82C 88.2017,82.6066 90.8684,82.4399 93.5,81.5C 94.9317,81.7332 95.4317,82.3999 95,83.5C 92.1226,85.4035 88.9559,86.4035 85.5,86.5C 83.5,87.1667 81.5,87.8333 79.5,88.5C 78.391,88.4431 77.391,88.1098 76.5,87.5C 77.8405,83.4895 79.1738,79.4895 80.5,75.5C 83.0838,74.9517 84.0838,73.285 83.5,70.5C 78.8114,70.0842 74.3114,70.7509 70,72.5C 65.6886,70.7509 61.1886,70.0842 56.5,70.5C 56.3692,73.3667 57.7026,75.0334 60.5,75.5C 62.0884,79.3464 63.0884,83.3464 63.5,87.5C 59.666,88.7526 55.8327,90.0859 52,91.5C 50.6974,91.0217 49.5307,90.355 48.5,89.5C 51.1667,88.8333 53.8333,88.1667 56.5,87.5C 51.8089,87.4005 47.8089,85.5671 44.5,82C 47.7897,82.3685 51.123,82.3685 54.5,82C 51.4349,81.6317 48.7682,80.465 46.5,78.5C 47.9516,77.6981 49.6183,77.1981 51.5,77C 50.4734,76.4867 49.4734,75.9867 48.5,75.5C 47.5,75.1667 46.8333,74.5 46.5,73.5C 48.1922,69.1101 50.1922,64.7768 52.5,60.5C 48.8085,59.7475 45.1418,58.9142 41.5,58C 39.1829,55.8431 36.5162,54.3431 33.5,53.5C 32.5876,52.2618 32.4209,50.9285 33,49.5C 35.8298,46.8115 38.9964,44.8115 42.5,43.5C 42.5356,52.5465 46.8689,56.5465 55.5,55.5C 57.3494,65.8667 58.516,65.8667 59,55.5C 60.8478,52.9893 62.6811,50.4893 64.5,48C 64.3333,47.5 64.1667,47 64,46.5C 60.1043,52.2206 57.7709,51.5539 57,44.5C 55.2196,43.3606 53.3863,42.3606 51.5,41.5C 49.8557,38.9955 48.3557,36.3289 47,33.5C 46.5017,30.1832 46.335,26.8499 46.5,23.5C 49.4822,21.5258 52.4822,19.5258 55.5,17.5C 60.2689,20.3007 65.1022,22.9674 70,25.5C 75,22.8333 80,20.1667 85,17.5C 87.9707,19.3935 90.804,21.3935 93.5,23.5 Z"/></g>
<g><path style="opacity:1" fill="#aa811e" d="M 80.5,75.5 C 79.1738,79.4895 77.8405,83.4895 76.5,87.5C 71.9986,81.7979 73.332,77.7979 80.5,75.5 Z"/></g>
<g><path style="opacity:1" fill="#ad841e" d="M 60.5,75.5 C 65.5419,77.047 67.3752,80.3803 66,85.5C 65.2917,86.3805 64.4584,87.0472 63.5,87.5C 63.0884,83.3464 62.0884,79.3464 60.5,75.5 Z"/></g>
<g><path style="opacity:1" fill="#b0851f" d="M 98.5,43.5 C 98.4511,52.882 93.7845,56.882 84.5,55.5C 84.5,54.5 84.5,53.5 84.5,52.5C 89.944,53.1992 93.1107,50.8659 94,45.5C 95.1096,43.9632 96.6096,43.2965 98.5,43.5 Z"/></g>
<g><path style="opacity:1" fill="#af841f" d="M 42.5,43.5 C 44.0174,43.5106 45.1841,44.1772 46,45.5C 47.0512,50.7193 50.2179,53.0526 55.5,52.5C 55.5,53.5 55.5,54.5 55.5,55.5C 46.8689,56.5465 42.5356,52.5465 42.5,43.5 Z"/></g>
<g><path style="opacity:1" fill="#a17a1c" d="M 25.5,10.5 C 29.9612,10.7898 32.7945,13.1231 34,17.5C 34.6667,20.1667 34.6667,22.8333 34,25.5C 33.586,25.9574 33.086,26.2907 32.5,26.5C 31.6764,23.2152 31.1764,19.8818 31,16.5C 29.5772,13.9296 27.7439,11.9296 25.5,10.5 Z"/></g>
<g><path style="opacity:1" fill="#a47c1d" d="M 112.5,10.5 C 113.978,10.238 115.311,10.5713 116.5,11.5C 114.253,12.2446 112.42,13.578 111,15.5C 110.825,19.211 110.325,22.8776 109.5,26.5C 108.914,26.2907 108.414,25.9574 108,25.5C 106.624,19.5983 108.124,14.5983 112.5,10.5 Z"/></g>
<g><path style="opacity:1" fill="#40310c" d="M 19.5,16.5 C 20.7348,16.7214 21.7348,17.3881 22.5,18.5C 23.4841,21.4281 23.8174,24.4281 23.5,27.5C 22.8333,25.1667 22.1667,22.8333 21.5,20.5C 21.5,19.8333 21.1667,19.5 20.5,19.5C 20.4431,18.391 20.1098,17.391 19.5,16.5 Z"/></g>
<g><path style="opacity:1" fill="#b18822" d="M 121.5,9.5 C 125.14,13.7889 125.473,18.4556 122.5,23.5C 122.172,18.8239 121.839,14.1572 121.5,9.5 Z"/></g>
<g><path style="opacity:1" fill="#c69926" d="M 20.5,9.5 C 19.7814,11.7638 19.448,14.0971 19.5,16.5C 20.1098,17.391 20.4431,18.391 20.5,19.5C 20.762,20.9778 20.4287,22.3112 19.5,23.5C 16.5759,18.4453 16.9093,13.7786 20.5,9.5 Z"/></g>
<g><path style="opacity:1" fill="#ecb62d" d="M 112.5,6.5 C 114.857,6.33669 117.19,6.50335 119.5,7C 109.104,7.56384 104.104,13.0638 104.5,23.5C 101.319,21.4083 98.319,19.075 95.5,16.5C 101.098,12.8746 106.764,9.54126 112.5,6.5 Z"/></g>
<g><path style="opacity:1" fill="#ecb52d" d="M 22.5,7.5 C 24.9664,6.36594 27.633,6.19927 30.5,7C 35.9984,9.91481 41.3318,13.0815 46.5,16.5C 43.6002,19.1995 40.4335,21.5328 37,23.5C 37.8926,12.8952 33.0593,7.56187 22.5,7.5 Z"/></g>
<g><path style="opacity:1" fill="#c29224" d="M 22.5,7.5 C 22.1667,8.5 21.5,9.16667 20.5,9.5C 20.5,8.16667 21.1667,7.5 22.5,7.5 Z"/></g>
<g><path style="opacity:0.01" fill="#d3d4d5" d="M 80.5,5.5 C 81.9464,4.38705 83.6131,4.22039 85.5,5C 83.8659,5.49351 82.1992,5.66018 80.5,5.5 Z"/></g>
<g><path style="opacity:0.012" fill="#d2d4d4" d="M 105.5,1.5 C 106.833,2.16667 106.833,2.16667 105.5,1.5 Z"/></g>
<g><path style="opacity:0.008" fill="#d2d4d4" d="M 109.5,0.5 C 109.5,0.833333 109.5,1.16667 109.5,1.5C 106.833,1.16667 106.833,0.833333 109.5,0.5 Z"/></g>
<g><path style="opacity:0.008" fill="#d2d4d4" d="M 109.5,0.5 C 109.5,0.166667 109.5,-0.166667 109.5,-0.5C 110.167,-0.5 110.833,-0.5 111.5,-0.5C 111.158,0.338246 110.492,0.67158 109.5,0.5 Z"/></g>
<g><path style="opacity:0.004" fill="#d3d4d5" d="M 30.5,-0.5 C 31.1667,-0.5 31.8333,-0.5 32.5,-0.5C 31.8333,0.833333 31.1667,0.833333 30.5,-0.5 Z"/></g>
<g><path style="opacity:0.012" fill="#d2d2d3" d="M 102.5,136.5 C 102.5,136.167 102.5,135.833 102.5,135.5C 103.167,135.5 103.833,135.5 104.5,135.5C 104.158,136.338 103.492,136.672 102.5,136.5 Z"/></g>
<g><path style="opacity:0.008" fill="#d1d3d3" d="M 101.5,136.5 C 101.833,136.5 102.167,136.5 102.5,136.5C 102.315,137.17 101.981,137.17 101.5,136.5 Z"/></g>
<g><path style="opacity:0.01" fill="#d1d3d3" d="M 43.5,137.5 C 43.5,137.833 43.5,138.167 43.5,138.5C 40.8333,138.167 40.8333,137.833 43.5,137.5 Z"/></g>
<g><path style="opacity:0.01" fill="#d1d3d3" d="M 98.5,138.5 C 98.5,138.167 98.5,137.833 98.5,137.5C 101.167,137.833 101.167,138.167 98.5,138.5 Z"/></g>
<g><path style="opacity:0.016" fill="#d3d4d4" d="M 43.5,138.5 C 44.2389,138.369 44.9056,138.536 45.5,139C 44.5632,139.692 43.8966,139.525 43.5,138.5 Z"/></g>
<g><path style="opacity:0.016" fill="#d1d2d3" d="M 95.5,139.5 C 95.5,139.167 95.5,138.833 95.5,138.5C 96.5,138.5 97.5,138.5 98.5,138.5C 97.791,139.404 96.791,139.737 95.5,139.5 Z"/></g>
<g><path style="opacity:0.012" fill="#d2d4d4" d="M 93.5,140.5 C 93.5,140.167 93.5,139.833 93.5,139.5C 94.1667,139.5 94.8333,139.5 95.5,139.5C 95.1583,140.338 94.4916,140.672 93.5,140.5 Z"/></g>
<g><path style="opacity:0.012" fill="#d3d4d5" d="M 90.5,141.5 C 90.5,141.167 90.5,140.833 90.5,140.5C 91.5,140.5 92.5,140.5 93.5,140.5C 92.791,141.404 91.791,141.737 90.5,141.5 Z"/></g>
<g><path style="opacity:0.012" fill="#d2d3d4" d="M 55.5,141.5 C 55.5,141.833 55.5,142.167 55.5,142.5C 50.1667,142.167 50.1667,141.833 55.5,141.5 Z"/></g>
<g><path style="opacity:0.008" fill="#d3d4d5" d="M 86.5,142.5 C 86.5,142.167 86.5,141.833 86.5,141.5C 87.8333,141.5 89.1667,141.5 90.5,141.5C 89.4324,142.434 88.099,142.768 86.5,142.5 Z"/></g>
<g><path style="opacity:0.01" fill="#d2d3d4" d="M 55.5,142.5 C 56.8734,142.343 58.2068,142.51 59.5,143C 57.9343,143.765 56.6009,143.598 55.5,142.5 Z"/></g>
<g><path style="opacity:0.008" fill="#d2d4d5" d="M 61.5,142.5 C 61.5,142.833 61.5,143.167 61.5,143.5C 60.8299,143.019 60.8299,142.685 61.5,142.5 Z"/></g>
<g><path style="opacity:0.008" fill="#d2d4d4" d="M 80.5,142.5 C 81.8333,143.167 81.8333,143.167 80.5,142.5 Z"/></g>
<g><path style="opacity:0.012" fill="#d0d1d2" d="M 86.5,142.5 C 85.3991,143.598 84.0657,143.765 82.5,143C 83.7932,142.51 85.1266,142.343 86.5,142.5 Z"/></g>
<g><path style="opacity:0.016" fill="#d2d3d4" d="M 61.5,144.5 C 61.5,144.167 61.5,143.833 61.5,143.5C 63.7354,143.205 65.7354,143.539 67.5,144.5C 65.5,144.5 63.5,144.5 61.5,144.5 Z"/></g>
<g><path style="opacity:0.014" fill="#d2d3d3" d="M 74.5,144.5 C 76.2646,143.539 78.2646,143.205 80.5,143.5C 80.5,143.833 80.5,144.167 80.5,144.5C 78.5,144.5 76.5,144.5 74.5,144.5 Z"/></g>
</svg>
