<?xml version="1.0" encoding="UTF-8"?>
<!DOCTYPE svg PUBLIC "-//W3C//DTD SVG 1.1//EN" "http://www.w3.org/Graphics/SVG/1.1/DTD/svg11.dtd">
<svg xmlns="http://www.w3.org/2000/svg" version="1.1" width="142px" height="145px" style="shape-rendering:geometricPrecision; text-rendering:geometricPrecision; image-rendering:optimizeQuality; fill-rule:evenodd; clip-rule:evenodd" xmlns:xlink="http://www.w3.org/1999/xlink">
<g><path style="opacity:0.012" fill="#fefffe" d="M 63.5,9.5 C 64.8333,10.1667 64.8333,10.1667 63.5,9.5 Z"/></g>
<g><path style="opacity:0.008" fill="#fefffe" d="M 65.5,10.5 C 66.8333,11.1667 66.8333,11.1667 65.5,10.5 Z"/></g>
<g><path style="opacity:0.004" fill="#fdfefd" d="M 73.5,10.5 C 74.8333,11.1667 74.8333,11.1667 73.5,10.5 Z"/></g>
<g><path style="opacity:0.536" fill="#e9e9e9" d="M 62.5,12.5 C 62.56,11.9569 62.8933,11.6236 63.5,11.5C 65.3325,12.2485 66.9991,13.2485 68.5,14.5C 69.9397,13.0476 71.6064,12.0476 73.5,11.5C 72.9862,13.5116 72.8195,15.5116 73,17.5C 73.8159,18.8228 74.9826,19.4894 76.5,19.5C 75.0821,21.3079 73.0821,21.9746 70.5,21.5C 70.5,22.8333 70.5,24.1667 70.5,25.5C 69.1667,25.8333 69.1667,26.1667 70.5,26.5C 70.1034,27.525 69.4368,27.6917 68.5,27C 67.9152,25.6976 67.2485,24.531 66.5,23.5C 66.1667,20.8333 65.8333,20.8333 65.5,23.5C 64.0441,21.5816 62.3775,20.9149 60.5,21.5C 62.3806,20.238 63.7139,18.5713 64.5,16.5C 64.3318,14.8295 63.6651,13.4961 62.5,12.5 Z"/></g>
<g><path style="opacity:0.004" fill="#fdfefd" d="M 95.5,11.5 C 96.8333,12.1667 96.8333,12.1667 95.5,11.5 Z"/></g>
<g><path style="opacity:0.012" fill="#fefffe" d="M 62.5,12.5 C 62.631,13.2389 62.4643,13.9056 62,14.5C 61.3083,13.5632 61.475,12.8966 62.5,12.5 Z"/></g>
<g><path style="opacity:0.01" fill="#fefefe" d="M 74.5,12.5 C 75.525,12.8966 75.6917,13.5632 75,14.5C 74.5357,13.9056 74.369,13.2389 74.5,12.5 Z"/></g>
<g><path style="opacity:0.006" fill="#fdfefd" d="M 98.5,13.5 C 99.525,13.8966 99.6917,14.5632 99,15.5C 98.5357,14.9056 98.369,14.2389 98.5,13.5 Z"/></g>
<g><path style="opacity:0.009" fill="#fefffe" d="M 87.5,15.5 C 88.2506,14.4265 89.2506,14.2599 90.5,15C 89.552,15.4828 88.552,15.6495 87.5,15.5 Z"/></g>
<g><path style="opacity:0.014" fill="#fcfcfc" d="M 62.5,17.5 C 62.369,16.7611 62.5357,16.0944 63,15.5C 63.6917,16.4368 63.525,17.1034 62.5,17.5 Z"/></g>
<g><path style="opacity:0.991" fill="#070707" d="M 66.5,15.5 C 67.6879,16.6843 68.8545,16.6843 70,15.5C 70.3095,16.7659 70.8095,17.9326 71.5,19C 70.3333,19.5 69.5,20.3333 69,21.5C 68.0975,20.2986 66.9308,19.4652 65.5,19C 66.3366,17.9887 66.67,16.8221 66.5,15.5 Z"/></g>
<g><path style="opacity:0.02" fill="#fefffe" d="M 62.5,17.5 C 61.8333,18.1667 61.8333,18.1667 62.5,17.5 Z"/></g>
<g><path style="opacity:0.004" fill="#000000" d="M 38.5,18.5 C 39.8333,19.1667 39.8333,19.1667 38.5,18.5 Z"/></g>
<g><path style="opacity:0.322" fill="#000000" d="M 40.5,18.5 C 42.337,18.6395 42.6704,19.3061 41.5,20.5C 40.7025,20.0431 40.3691,19.3764 40.5,18.5 Z"/></g>
<g><path style="opacity:0.006" fill="#000000" d="M 43.5,18.5 C 44.525,18.8966 44.6917,19.5632 44,20.5C 43.5357,19.9056 43.369,19.2389 43.5,18.5 Z"/></g>
<g><path style="opacity:0.004" fill="#fefffe" d="M 77.5,19.5 C 76.8333,18.1667 76.8333,18.1667 77.5,19.5 Z"/></g>
<g><path style="opacity:0.01" fill="#f8f8f8" d="M 97.5,19.5 C 97.3505,18.448 97.5172,17.448 98,16.5C 98.5,17.6667 99.3333,18.5 100.5,19C 99.552,19.4828 98.552,19.6495 97.5,19.5 Z"/></g>
<g><path style="opacity:0.004" fill="#000000" d="M 33.5,20.5 C 32.8333,19.1667 32.8333,19.1667 33.5,20.5 Z"/></g>
<g><path style="opacity:0.008" fill="#fefffe" d="M 77.5,19.5 C 78.8333,20.1667 78.8333,20.1667 77.5,19.5 Z"/></g>
<g><path style="opacity:0.174" fill="#000000" d="M 33.5,20.5 C 33.9745,21.7296 35.3078,22.7296 37.5,23.5C 38.1835,23.1373 38.8501,22.8039 39.5,22.5C 39.5,23.8333 40.1667,24.5 41.5,24.5C 41.5,25.1667 41.8333,25.5 42.5,25.5C 40.6112,26.7416 38.6112,26.7416 36.5,25.5C 35.791,24.596 34.791,24.2627 33.5,24.5C 33.5,23.1667 33.5,21.8333 33.5,20.5 Z"/></g>
<g><path style="opacity:0.008" fill="#fdfefd" d="M 58.5,20.5 C 59.8333,21.1667 59.8333,21.1667 58.5,20.5 Z"/></g>
<g><path style="opacity:0.004" fill="#fefffe" d="M 103.5,21.5 C 102.833,20.1667 102.833,20.1667 103.5,21.5 Z"/></g>
<g><path style="opacity:0.008" fill="#000000" d="M 31.5,21.5 C 32.525,21.8966 32.6917,22.5632 32,23.5C 31.5357,22.9056 31.369,22.2389 31.5,21.5 Z"/></g>
<g><path style="opacity:0.402" fill="#000000" d="M 39.5,22.5 C 40.209,21.596 41.209,21.2627 42.5,21.5C 43.0527,23.5518 44.0527,23.8852 45.5,22.5C 47.1959,20.871 48.1959,21.2043 48.5,23.5C 47.1667,23.8333 47.1667,24.1667 48.5,24.5C 49.209,25.404 50.209,25.7373 51.5,25.5C 51.5,26.1667 51.5,26.8333 51.5,27.5C 50.6618,27.8417 50.3284,28.5084 50.5,29.5C 48.6208,30.3414 46.6208,30.6747 44.5,30.5C 41.5,29.1667 38.5,29.1667 35.5,30.5C 34.1779,30.33 33.0113,30.6634 32,31.5C 31.4926,30.0039 31.9926,28.8373 33.5,28C 38.243,27.4571 42.9097,27.4571 47.5,28C 47.8333,27.6667 48.1667,27.3333 48.5,27C 47.3333,26.5 46.5,25.6667 46,24.5C 44.9887,25.3366 43.8221,25.67 42.5,25.5C 41.8333,25.5 41.5,25.1667 41.5,24.5C 41.1667,23.5 40.5,22.8333 39.5,22.5 Z M 42.5,21.5 C 43.391,22.1098 44.391,22.4431 45.5,22.5C 44.0527,23.8852 43.0527,23.5518 42.5,21.5 Z"/></g>
<g><path style="opacity:0.004" fill="#000000" d="M 49.5,21.5 C 50.8333,22.1667 50.8333,22.1667 49.5,21.5 Z"/></g>
<g><path style="opacity:0.004" fill="#fefffe" d="M 103.5,21.5 C 104.833,22.1667 104.833,22.1667 103.5,21.5 Z"/></g>
<g><path style="opacity:0.164" fill="#000000" d="M 33.5,24.5 C 31.7103,27.047 30.0436,26.7137 28.5,23.5C 28.8333,23.1667 29.1667,22.8333 29.5,22.5C 30.5237,23.8532 31.857,24.5198 33.5,24.5 Z"/></g>
<g><path style="opacity:0.013" fill="#fefefe" d="M 71.5,25.5 C 71.5,24.5 71.5,23.5 71.5,22.5C 73.1992,22.3398 74.8659,22.5065 76.5,23C 74.4971,23.3345 72.8304,24.1679 71.5,25.5 Z"/></g>
<g><path style="opacity:0.413" fill="#eaeaea" d="M 97.5,19.5 C 99.0276,20.3092 100.694,20.9759 102.5,21.5C 101.082,23.3079 99.0821,23.9746 96.5,23.5C 96.5,25.5 96.5,27.5 96.5,29.5C 94.9699,28.7888 93.6366,27.7888 92.5,26.5C 91.8333,25.1667 91.1667,25.1667 90.5,26.5C 89.209,26.2627 88.209,26.596 87.5,27.5C 86.6236,27.6309 85.9569,27.2975 85.5,26.5C 86.8333,24.8333 88.1667,23.1667 89.5,21.5C 88.8721,19.7419 87.8721,18.2419 86.5,17C 88.3774,16.4242 90.2108,16.5909 92,17.5C 93.6537,16.3467 95.1537,15.0134 96.5,13.5C 96.4983,15.537 96.8316,17.537 97.5,19.5 Z"/></g>
<g><path style="opacity:0.992" fill="#191919" d="M 94.5,17.5 C 95.1031,19.1897 96.1031,20.6897 97.5,22C 95.9391,22.3176 94.7724,23.1509 94,24.5C 92.9326,23.8095 91.7659,23.3095 90.5,23C 91.8333,22 91.8333,21 90.5,20C 92.3197,19.7996 93.653,18.9663 94.5,17.5 Z"/></g>
<g><path style="opacity:0.012" fill="#000000" d="M 48.5,24.5 C 48.5,24.1667 48.5,23.8333 48.5,23.5C 51.1667,23.8333 51.1667,24.1667 48.5,24.5 Z"/></g>
<g><path style="opacity:0.098" fill="#000000" d="M 52.5,27.5 C 52.6716,26.5084 52.3382,25.8417 51.5,25.5C 51.3691,24.6236 51.7025,23.9569 52.5,23.5C 53.782,24.9584 53.782,26.2918 52.5,27.5 Z"/></g>
<g><path style="opacity:0.012" fill="#fdfdfd" d="M 65.5,23.5 C 65.8333,23.5 66.1667,23.5 66.5,23.5C 66.1667,26.1667 65.8333,26.1667 65.5,23.5 Z"/></g>
<g><path style="opacity:0.008" fill="#fdfefd" d="M 116.5,24.5 C 117.833,25.1667 117.833,25.1667 116.5,24.5 Z"/></g>
<g><path style="opacity:0.012" fill="#000000" d="M 36.5,25.5 C 36.1034,26.525 35.4368,26.6917 34.5,26C 35.0944,25.5357 35.7611,25.369 36.5,25.5 Z"/></g>
<g><path style="opacity:0.008" fill="#fefffe" d="M 70.5,25.5 C 70.8333,25.5 71.1667,25.5 71.5,25.5C 71.3147,26.1701 70.9813,26.1701 70.5,25.5 Z"/></g>
<g><path style="opacity:0.01" fill="#fefefe" d="M 97.5,29.5 C 97.5,27.8333 97.5,26.1667 97.5,24.5C 98.552,24.3505 99.552,24.5172 100.5,25C 99.1031,26.3103 98.1031,27.8103 97.5,29.5 Z"/></g>
<g><path style="opacity:0.012" fill="#fefffe" d="M 108.5,25.5 C 109.833,26.1667 109.833,26.1667 108.5,25.5 Z"/></g>
<g><path style="opacity:0.027" fill="#fcfcfc" d="M 90.5,26.5 C 91.1667,26.5 91.8333,26.5 92.5,26.5C 91.8333,27.8333 91.1667,27.8333 90.5,26.5 Z"/></g>
<g><path style="opacity:0.012" fill="#000000" d="M 51.5,27.5 C 51.8333,27.5 52.1667,27.5 52.5,27.5C 52.6716,28.4916 52.3382,29.1583 51.5,29.5C 51.5,28.8333 51.5,28.1667 51.5,27.5 Z"/></g>
<g><path style="opacity:0.02" fill="#fefffe" d="M 87.5,27.5 C 88.8333,28.1667 88.8333,28.1667 87.5,27.5 Z"/></g>
<g><path style="opacity:0.006" fill="#fefffe" d="M 105.5,27.5 C 106.525,27.8966 106.692,28.5632 106,29.5C 105.536,28.9056 105.369,28.2389 105.5,27.5 Z"/></g>
<g><path style="opacity:0.004" fill="#fdfefd" d="M 119.5,27.5 C 120.833,28.1667 120.833,28.1667 119.5,27.5 Z"/></g>
<g><path style="opacity:0.008" fill="#fefffe" d="M 92.5,28.5 C 93.8333,29.1667 93.8333,29.1667 92.5,28.5 Z"/></g>
<g><path style="opacity:0.014" fill="#fefefe" d="M 118.5,28.5 C 118.833,28.5 119.167,28.5 119.5,28.5C 119.167,33.8333 118.833,33.8333 118.5,28.5 Z"/></g>
<g><path style="opacity:0.008" fill="#000000" d="M 29.5,29.5 C 30.8333,30.1667 30.8333,30.1667 29.5,29.5 Z"/></g>
<g><path style="opacity:0.012" fill="#000000" d="M 50.5,29.5 C 50.8333,29.5 51.1667,29.5 51.5,29.5C 51.3147,30.1701 50.9813,30.1701 50.5,29.5 Z"/></g>
<g><path style="opacity:0.004" fill="#fdfefd" d="M 96.5,29.5 C 96.8333,29.5 97.1667,29.5 97.5,29.5C 97.3147,30.1701 96.9813,30.1701 96.5,29.5 Z"/></g>
<g><path style="opacity:0.018" fill="#000000" d="M 35.5,30.5 C 38.5,30.5 41.5,30.5 44.5,30.5C 42.5,31.1667 40.5,31.8333 38.5,32.5C 38.1667,32.5 37.8333,32.5 37.5,32.5C 36.8333,31.8333 36.1667,31.1667 35.5,30.5 Z"/></g>
<g><path style="opacity:0.006" fill="#fefffe" d="M 96.5,30.5 C 96.1034,31.525 95.4368,31.6917 94.5,31C 95.0944,30.5357 95.7611,30.369 96.5,30.5 Z"/></g>
<g><path style="opacity:0.004" fill="#000000" d="M 33.5,31.5 C 34.8333,32.1667 34.8333,32.1667 33.5,31.5 Z"/></g>
<g><path style="opacity:0.01" fill="#000000" d="M 46.5,32.5 C 46.8966,31.475 47.5632,31.3083 48.5,32C 47.9056,32.4643 47.2389,32.631 46.5,32.5 Z"/></g>
<g><path style="opacity:0.004" fill="#000000" d="M 37.5,32.5 C 36.8333,33.1667 36.8333,33.1667 37.5,32.5 Z"/></g>
<g><path style="opacity:0.16" fill="#000000" d="M 38.5,32.5 C 39.675,32.281 40.675,32.6143 41.5,33.5C 39.9483,34.7979 38.9483,34.4646 38.5,32.5 Z"/></g>
<g><path style="opacity:0.004" fill="#000000" d="M 42.5,32.5 C 43.8333,33.1667 43.8333,33.1667 42.5,32.5 Z"/></g>
<g><path style="opacity:0.012" fill="#fefffe" d="M 120.5,32.5 C 121.833,33.1667 121.833,33.1667 120.5,32.5 Z"/></g>
<g><path style="opacity:0.016" fill="#efefef" d="M 59.5,35.5 C 62.6399,34.3592 65.9733,34.1925 69.5,35C 66.1832,35.4983 62.8499,35.665 59.5,35.5 Z"/></g>
<g><path style="opacity:0.464" fill="#ebebeb" d="M 108.5,26.5 C 109.29,27.4013 110.29,28.0679 111.5,28.5C 113.128,29.8528 114.462,29.5195 115.5,27.5C 117.196,25.871 118.196,26.2043 118.5,28.5C 117.861,29.0968 117.528,29.9302 117.5,31C 118.637,33.0415 119.97,34.8748 121.5,36.5C 119.5,36.5 117.5,36.5 115.5,36.5C 115.034,38.2012 115.034,39.7012 115.5,41C 114.552,41.4828 113.552,41.6495 112.5,41.5C 112.737,40.209 112.404,39.209 111.5,38.5C 109.631,37.8354 107.631,37.1687 105.5,36.5C 106.833,35.1667 108.167,33.8333 109.5,32.5C 107.797,30.4928 107.463,28.4928 108.5,26.5 Z M 115.5,27.5 C 114.462,29.5195 113.128,29.8528 111.5,28.5C 112.833,28.1667 114.167,27.8333 115.5,27.5 Z"/></g>
<g><path style="opacity:0.996" fill="#161616" d="M 114.5,30.5 C 115.249,31.531 115.915,32.6976 116.5,34C 115.354,34.6449 114.354,35.4783 113.5,36.5C 112.205,35.9017 110.872,35.4017 109.5,35C 110.802,32.9782 112.468,31.4782 114.5,30.5 Z"/></g>
<g><path style="opacity:0.004" fill="#fefffe" d="M 122.5,36.5 C 122.369,35.7611 122.536,35.0944 123,34.5C 123.692,35.4368 123.525,36.1034 122.5,36.5 Z"/></g>
<g><path style="opacity:0.004" fill="#000000" d="M 39.5,35.5 C 40.8333,36.1667 40.8333,36.1667 39.5,35.5 Z"/></g>
<g><path style="opacity:0.01" fill="#b6b6b6" d="M 55.5,36.5 C 56.2506,35.4265 57.2506,35.2599 58.5,36C 57.552,36.4828 56.552,36.6495 55.5,36.5 Z"/></g>
<g><path style="opacity:0.004" fill="#fefefe" d="M 103.5,35.5 C 104.525,35.8966 104.692,36.5632 104,37.5C 103.536,36.9056 103.369,36.2389 103.5,35.5 Z"/></g>
<g><path style="opacity:0.004" fill="#fefffe" d="M 121.5,36.5 C 121.833,36.5 122.167,36.5 122.5,36.5C 122.315,37.1701 121.981,37.1701 121.5,36.5 Z"/></g>
<g><path style="opacity:0.004" fill="#fefffe" d="M 21.5,37.5 C 22.8333,38.1667 22.8333,38.1667 21.5,37.5 Z"/></g>
<g><path style="opacity:0.014" fill="#fefefe" d="M 121.5,37.5 C 120.122,38.2344 118.622,38.9011 117,39.5C 116.833,39.1667 116.667,38.8333 116.5,38.5C 118.045,37.5481 119.712,37.2148 121.5,37.5 Z"/></g>
<g><path style="opacity:0.01" fill="#fdfefd" d="M 40.5,39.5 C 41.6009,38.4017 42.9343,38.235 44.5,39C 43.2068,39.49 41.8734,39.6567 40.5,39.5 Z"/></g>
<g><path style="opacity:0.999" fill="#050505" d="M 70.5,37.5 C 81.4609,41.6698 92.4609,46.0031 103.5,50.5C 104.08,52.7488 105.413,54.4154 107.5,55.5C 108.417,58.1603 108.417,60.4936 107.5,62.5C 105.099,67.7049 105.099,72.8715 107.5,78C 105.951,81.6796 105.284,85.5129 105.5,89.5C 103.219,89.9227 101.552,89.256 100.5,87.5C 103.144,85.484 103.977,82.8173 103,79.5C 100.833,76.6667 98.6667,73.8333 96.5,71C 94.3225,69.7978 91.9892,69.2978 89.5,69.5C 89.3893,68.8826 89.056,68.3826 88.5,68C 86.236,67.7638 84.0693,67.2638 82,66.5C 78.5908,66.4145 75.0908,66.7479 71.5,67.5C 72.6345,70.5816 73.6345,73.5816 74.5,76.5C 73.0305,80.5063 72.0305,84.6729 71.5,89C 69.5,89.6667 67.5,89.6667 65.5,89C 67.133,85.2846 66.4664,82.1179 63.5,79.5C 59.2121,77.6884 55.2121,75.3551 51.5,72.5C 51.189,71.5222 50.5223,70.8555 49.5,70.5C 48.3112,72.3634 46.9779,74.0301 45.5,75.5C 45.1898,73.8564 44.1898,72.8564 42.5,72.5C 42.7709,70.6203 42.1042,69.287 40.5,68.5C 40.0269,67.0937 39.0269,66.427 37.5,66.5C 37.5,65.1667 37.5,63.8333 37.5,62.5C 37.1616,59.6748 38.1616,57.5082 40.5,56C 39.1807,55.805 37.8474,55.9717 36.5,56.5C 35.4634,54.2625 35.2967,51.9291 36,49.5C 37.7235,47.2833 39.2235,44.95 40.5,42.5C 44.1817,42.6653 47.8484,42.4986 51.5,42C 57.2365,38.1547 63.5698,36.6547 70.5,37.5 Z M 100.5,87.5 C 100.167,87.5 99.8333,87.5 99.5,87.5C 99.6432,84.9026 100.477,82.5692 102,80.5C 102.135,82.9216 101.635,85.2549 100.5,87.5 Z M 89.5,72.5 C 90.6226,71.2426 91.2893,71.5759 91.5,73.5C 90.8333,73.1667 90.1667,72.8333 89.5,72.5 Z"/></g>
<g><path style="opacity:0.01" fill="#fefefe" d="M 111.5,38.5 C 111.631,39.2389 111.464,39.9056 111,40.5C 103.658,39.1228 103.824,38.4561 111.5,38.5 Z"/></g>
<g><path style="opacity:1" fill="#cacaca" d="M 70.5,37.5 C 63.5698,36.6547 57.2365,38.1547 51.5,42C 47.8484,42.4986 44.1817,42.6653 40.5,42.5C 40.7911,41.3509 41.6244,40.6842 43,40.5C 45.4783,41.3319 47.9783,41.4986 50.5,41C 56.7481,36.7588 63.4148,35.5921 70.5,37.5 Z"/></g>
<g><path style="opacity:0.012" fill="#fdfdfd" d="M 25.5,43.5 C 25.1667,43.5 24.8333,43.5 24.5,43.5C 24.7911,42.3509 25.6244,41.6842 27,41.5C 27.8333,41.6667 28.6667,41.8333 29.5,42C 27.9419,42.21 26.6085,42.71 25.5,43.5 Z"/></g>
<g><path style="opacity:0.012" fill="#f3f3f3" d="M 19.5,43.5 C 18.8333,43.5 18.5,43.8333 18.5,44.5C 14.1074,44.5432 13.7741,44.0432 17.5,43C 18.8741,39.5899 19.5408,39.7566 19.5,43.5 Z"/></g>
<g><path style="opacity:0.506" fill="#c9c9c9" d="M 70.5,37.5 C 81.4244,40.2363 92.0911,43.9029 102.5,48.5C 102.833,49.1667 103.167,49.8333 103.5,50.5C 92.4609,46.0031 81.4609,41.6698 70.5,37.5 Z"/></g>
<g><path style="opacity:0.012" fill="#fefffe" d="M 113.5,42.5 C 114.833,43.1667 114.833,43.1667 113.5,42.5 Z"/></g>
<g><path style="opacity:0.004" fill="#fefffe" d="M 30.5,44.5 C 31.8333,45.1667 31.8333,45.1667 30.5,44.5 Z"/></g>
<g><path style="opacity:0.014" fill="#fefefe" d="M 122.5,44.5 C 123.788,46.0348 123.788,47.7015 122.5,49.5C 122.193,48.1125 122.193,46.4458 122.5,44.5 Z"/></g>
<g><path style="opacity:0.006" fill="#fefefe" d="M 132.5,45.5 C 132.897,44.475 133.563,44.3083 134.5,45C 133.906,45.4643 133.239,45.631 132.5,45.5 Z"/></g>
<g><path style="opacity:0.012" fill="#fefffe" d="M 132.5,45.5 C 132.5,45.8333 132.5,46.1667 132.5,46.5C 129.833,46.1667 129.833,45.8333 132.5,45.5 Z"/></g>
<g><path style="opacity:0.008" fill="#fefffe" d="M 28.5,46.5 C 29.8333,47.1667 29.8333,47.1667 28.5,46.5 Z"/></g>
<g><path style="opacity:0.004" fill="#fefffe" d="M 14.5,47.5 C 13.8333,48.1667 13.8333,48.1667 14.5,47.5 Z"/></g>
<g><path style="opacity:0.014" fill="#fefffe" d="M 27.5,47.5 C 27.8333,47.5 28.1667,47.5 28.5,47.5C 28.5,48.1667 28.5,48.8333 28.5,49.5C 28.1667,49.5 27.8333,49.5 27.5,49.5C 27.5,48.8333 27.5,48.1667 27.5,47.5 Z"/></g>
<g><path style="opacity:1" fill="#d2d2d2" d="M 42.5,43.5 C 43.666,45.5271 44.666,47.6938 45.5,50C 44.802,54.0319 43.4687,54.3653 41.5,51C 42.3223,48.5661 42.6556,46.0661 42.5,43.5 Z"/></g>
<g><path style="opacity:1" fill="#9f9f9f" d="M 68.5,49.5 C 67.2438,49.5386 66.2438,49.0386 65.5,48C 66.9976,47.4153 67.9976,47.9153 68.5,49.5 Z"/></g>
<g><path style="opacity:0.004" fill="#b7b7b7" d="M 102.5,48.5 C 103.167,47.1667 103.833,47.1667 104.5,48.5C 103.833,48.5 103.167,48.5 102.5,48.5 Z"/></g>
<g><path style="opacity:0.008" fill="#fdfefd" d="M 135.5,47.5 C 136.833,48.1667 136.833,48.1667 135.5,47.5 Z"/></g>
<g><path style="opacity:0.012" fill="#fefffe" d="M 16.5,48.5 C 16.5,48.8333 16.5,49.1667 16.5,49.5C 15.8299,49.0187 15.8299,48.6853 16.5,48.5 Z"/></g>
<g><path style="opacity:0.521" fill="#f7f7f7" d="M 24.5,43.5 C 24.8333,44.8333 25.1667,44.8333 25.5,43.5C 27.4147,43.2155 29.0813,43.5489 30.5,44.5C 29.5,44.8333 28.8333,45.5 28.5,46.5C 27.8333,46.5 27.5,46.8333 27.5,47.5C 26.1667,48.1667 26.1667,48.8333 27.5,49.5C 28.0965,51.398 28.0965,53.0646 27.5,54.5C 27.1583,53.6618 26.4916,53.3284 25.5,53.5C 25.1583,52.6618 24.4916,52.3284 23.5,52.5C 23.1667,51.1667 22.8333,51.1667 22.5,52.5C 21.8333,52.5 21.5,52.8333 21.5,53.5C 20.8333,53.5 20.5,53.8333 20.5,54.5C 19.8333,54.5 19.5,54.8333 19.5,55.5C 18.7611,55.631 18.0944,55.4643 17.5,55C 19.0997,52.3599 18.7664,50.1933 16.5,48.5C 16.1583,47.6618 15.4916,47.3284 14.5,47.5C 15.4475,46.0221 16.7809,45.0221 18.5,44.5C 19.1667,44.5 19.5,44.1667 19.5,43.5C 20.1614,42.2825 20.8281,40.9492 21.5,39.5C 22.5207,40.9014 23.5207,42.2347 24.5,43.5 Z"/></g>
<g><path style="opacity:0.992" fill="#262626" d="M 21.5,43.5 C 22.8304,44.8321 24.4971,45.6655 26.5,46C 24.6063,47.0793 24.273,48.4126 25.5,50C 24.5509,50.6172 23.7175,50.4506 23,49.5C 22.3333,50.1667 21.6667,50.8333 21,51.5C 20.7265,49.6711 19.8932,48.1711 18.5,47C 19.448,46.5172 20.448,46.3505 21.5,46.5C 21.5,45.5 21.5,44.5 21.5,43.5 Z"/></g>
<g><path style="opacity:0.008" fill="#fefffe" d="M 104.5,48.5 C 105.167,48.5 105.5,48.8333 105.5,49.5C 105.167,49.1667 104.833,48.8333 104.5,48.5 Z"/></g>
<g><path style="opacity:0.008" fill="#fdfefd" d="M 134.5,48.5 C 134.833,48.5 135.167,48.5 135.5,48.5C 135.672,49.4916 135.338,50.1583 134.5,50.5C 134.5,49.8333 134.5,49.1667 134.5,48.5 Z"/></g>
<g><path style="opacity:0.015" fill="#fdfdfd" d="M 16.5,49.5 C 17.5983,50.6009 17.765,51.9343 17,53.5C 16.51,52.2068 16.3433,50.8734 16.5,49.5 Z"/></g>
<g><path style="opacity:0.012" fill="#fefefe" d="M 28.5,49.5 C 29.525,49.8966 29.6917,50.5632 29,51.5C 28.5357,50.9056 28.369,50.2389 28.5,49.5 Z"/></g>
<g><path style="opacity:0.004" fill="#6f6f6f" d="M 33.5,50.5 C 32.475,50.1034 32.3083,49.4368 33,48.5C 33.4643,49.0944 33.631,49.7611 33.5,50.5 Z"/></g>
<g><path style="opacity:0.004" fill="#fefffe" d="M 105.5,49.5 C 106.167,49.5 106.5,49.8333 106.5,50.5C 106.167,50.1667 105.833,49.8333 105.5,49.5 Z"/></g>
<g><path style="opacity:0.91" fill="#d4d4d4" d="M 40.5,42.5 C 39.2235,44.95 37.7235,47.2833 36,49.5C 35.2967,51.9291 35.4634,54.2625 36.5,56.5C 36.2053,58.7354 36.5386,60.7354 37.5,62.5C 37.5,63.8333 37.5,65.1667 37.5,66.5C 36.1347,63.2644 35.1347,59.9311 34.5,56.5C 34.6716,55.5084 34.3382,54.8417 33.5,54.5C 34.8333,53.1667 34.8333,51.8333 33.5,50.5C 35.1398,47.1956 37.4731,44.529 40.5,42.5 Z"/></g>
<g><path style="opacity:0.004" fill="#fefffe" d="M 106.5,50.5 C 107.167,50.5 107.5,50.8333 107.5,51.5C 107.167,51.1667 106.833,50.8333 106.5,50.5 Z"/></g>
<g><path style="opacity:0.012" fill="#fefffe" d="M 133.5,50.5 C 133.833,50.5 134.167,50.5 134.5,50.5C 134.315,51.1701 133.981,51.1701 133.5,50.5 Z"/></g>
<g><path style="opacity:0.004" fill="#fefffe" d="M 107.5,51.5 C 108.833,52.1667 108.833,52.1667 107.5,51.5 Z"/></g>
<g><path style="opacity:0.008" fill="#fefffe" d="M 117.5,51.5 C 118.833,52.1667 118.833,52.1667 117.5,51.5 Z"/></g>
<g><path style="opacity:0.027" fill="#fefffe" d="M 22.5,52.5 C 22.8333,52.5 23.1667,52.5 23.5,52.5C 23.3147,53.1701 22.9813,53.1701 22.5,52.5 Z"/></g>
<g><path style="opacity:0.008" fill="#fefffe" d="M 29.5,52.5 C 30.8333,53.1667 30.8333,53.1667 29.5,52.5 Z"/></g>
<g><path style="opacity:1" fill="#9e9e9e" d="M 68.5,49.5 C 71.2474,50.9728 72.0807,53.3061 71,56.5C 70.6207,53.9699 69.7874,51.6365 68.5,49.5 Z"/></g>
<g><path style="opacity:0.02" fill="#fefffe" d="M 134.5,53.5 C 133.833,52.1667 133.833,52.1667 134.5,53.5 Z"/></g>
<g><path style="opacity:0.016" fill="#fefffe" d="M 21.5,53.5 C 21.8333,53.5 22.1667,53.5 22.5,53.5C 22.3147,54.1701 21.9813,54.1701 21.5,53.5 Z"/></g>
<g><path style="opacity:0.016" fill="#fdfefd" d="M 25.5,53.5 C 24.8333,54.1667 24.8333,54.1667 25.5,53.5 Z"/></g>
<g><path style="opacity:0.016" fill="#fdfefd" d="M 108.5,53.5 C 109.833,54.1667 109.833,54.1667 108.5,53.5 Z"/></g>
<g><path style="opacity:0.414" fill="#f5f5f5" d="M 132.5,46.5 C 133.833,46.5 134.5,47.1667 134.5,48.5C 133.662,48.8417 133.328,49.5084 133.5,50.5C 130.833,51.5 130.833,52.5 133.5,53.5C 133.733,55.0618 134.4,56.3951 135.5,57.5C 133.883,56.962 132.216,56.6287 130.5,56.5C 130.167,55.1667 129.833,55.1667 129.5,56.5C 128.833,56.5 128.5,56.8333 128.5,57.5C 127.04,58.4273 126.207,59.4273 126,60.5C 125.716,58.5689 124.882,56.5689 123.5,54.5C 118.234,52.6886 118.568,51.3553 124.5,50.5C 124.105,43.6328 125.605,42.9662 129,48.5C 130.302,47.9152 131.469,47.2485 132.5,46.5 Z"/></g>
<g><path style="opacity:0.992" fill="#1a1a1a" d="M 126.5,48.5 C 127.458,48.9528 128.292,49.6195 129,50.5C 132.11,49.3266 132.277,49.8266 129.5,52C 130.167,52.6667 130.833,53.3333 131.5,54C 129.899,54.2734 128.399,54.7734 127,55.5C 126.682,53.9391 125.849,52.7724 124.5,52C 125.973,51.2904 126.64,50.1238 126.5,48.5 Z"/></g>
<g><path style="opacity:0.008" fill="#fdfefd" d="M 134.5,53.5 C 135.167,53.5 135.5,53.8333 135.5,54.5C 135.167,54.1667 134.833,53.8333 134.5,53.5 Z"/></g>
<g><path style="opacity:0.004" fill="#fdfefd" d="M 15.5,54.5 C 16.8333,55.1667 16.8333,55.1667 15.5,54.5 Z"/></g>
<g><path style="opacity:0.016" fill="#fefffe" d="M 20.5,54.5 C 20.8333,54.5 21.1667,54.5 21.5,54.5C 21.3147,55.1701 20.9813,55.1701 20.5,54.5 Z"/></g>
<g><path style="opacity:0.012" fill="#fefffe" d="M 27.5,54.5 C 26.8333,55.1667 26.8333,55.1667 27.5,54.5 Z"/></g>
<g><path style="opacity:0.851" fill="#a2a2a2" d="M 103.5,50.5 C 105.587,51.5846 106.92,53.2512 107.5,55.5C 105.413,54.4154 104.08,52.7488 103.5,50.5 Z"/></g>
<g><path style="opacity:0.014" fill="#fefefe" d="M 123.5,54.5 C 123.649,55.552 123.483,56.552 123,57.5C 122.5,56.3333 121.667,55.5 120.5,55C 121.448,54.5172 122.448,54.3505 123.5,54.5 Z"/></g>
<g><path style="opacity:0.004" fill="#fefffe" d="M 135.5,54.5 C 136.833,55.1667 136.833,55.1667 135.5,54.5 Z"/></g>
<g><path style="opacity:0.012" fill="#fefffe" d="M 19.5,55.5 C 19.8333,55.5 20.1667,55.5 20.5,55.5C 20.3147,56.1701 19.9813,56.1701 19.5,55.5 Z"/></g>
<g><path style="opacity:0.008" fill="#e4e4e4" d="M 33.5,54.5 C 33.5,55.1667 33.5,55.8333 33.5,56.5C 32.1667,55.8333 32.1667,55.1667 33.5,54.5 Z"/></g>
<g><path style="opacity:0.004" fill="#fefffe" d="M 19.5,56.5 C 19.1034,57.525 18.4368,57.6917 17.5,57C 18.0944,56.5357 18.7611,56.369 19.5,56.5 Z"/></g>
<g><path style="opacity:0.008" fill="#dfe0df" d="M 129.5,56.5 C 129.833,56.5 130.167,56.5 130.5,56.5C 130.5,56.8333 130.5,57.1667 130.5,57.5C 130.167,57.1667 129.833,56.8333 129.5,56.5 Z"/></g>
<g><path style="opacity:0.004" fill="#fefffe" d="M 136.5,56.5 C 137.833,57.1667 137.833,57.1667 136.5,56.5 Z"/></g>
<g><path style="opacity:0.008" fill="#b9b9b9" d="M 110.5,58.5 C 110.369,57.7611 110.536,57.0944 111,56.5C 111.692,57.4368 111.525,58.1034 110.5,58.5 Z"/></g>
<g><path style="opacity:0.016" fill="#fefffe" d="M 128.5,57.5 C 128.833,57.5 129.167,57.5 129.5,57.5C 129.315,58.1701 128.981,58.1701 128.5,57.5 Z"/></g>
<g><path style="opacity:0.016" fill="#fefffe" d="M 130.5,57.5 C 131.239,57.369 131.906,57.5357 132.5,58C 131.563,58.6917 130.897,58.525 130.5,57.5 Z"/></g>
<g><path style="opacity:0.004" fill="#fefffe" d="M 135.5,57.5 C 135.833,57.5 136.167,57.5 136.5,57.5C 136.315,58.1701 135.981,58.1701 135.5,57.5 Z"/></g>
<g><path style="opacity:0.016" fill="#eeeeee" d="M 33.5,56.5 C 33.8333,56.5 34.1667,56.5 34.5,56.5C 34.1667,64.5 33.8333,64.5 33.5,56.5 Z"/></g>
<g><path style="opacity:1" fill="#5a5a5a" d="M 37.5,62.5 C 36.5386,60.7354 36.2053,58.7354 36.5,56.5C 37.8474,55.9717 39.1807,55.805 40.5,56C 38.1616,57.5082 37.1616,59.6748 37.5,62.5 Z"/></g>
<g><path style="opacity:0.004" fill="#fefffe" d="M 135.5,58.5 C 135.103,59.525 134.437,59.6917 133.5,59C 134.094,58.5357 134.761,58.369 135.5,58.5 Z"/></g>
<g><path style="opacity:0.632" fill="#d6d6d6" d="M 107.5,70.5 C 106.115,71.9473 106.448,72.9473 108.5,73.5C 108.5,73.8333 108.5,74.1667 108.5,74.5C 107.167,74.8333 107.167,75.1667 108.5,75.5C 108.102,80.4119 107.102,85.0785 105.5,89.5C 105.284,85.5129 105.951,81.6796 107.5,78C 105.099,72.8715 105.099,67.7049 107.5,62.5C 108.768,64.4274 108.768,67.094 107.5,70.5 Z"/></g>
<g><path style="opacity:1" fill="#929292" d="M 107.5,55.5 C 108.906,55.9731 109.573,56.9731 109.5,58.5C 109.665,62.1817 109.499,65.8484 109,69.5C 108.722,70.4158 108.222,71.0825 107.5,71.5C 107.5,71.1667 107.5,70.8333 107.5,70.5C 108.768,67.094 108.768,64.4274 107.5,62.5C 108.417,60.4936 108.417,58.1603 107.5,55.5 Z"/></g>
<g><path style="opacity:0.016" fill="#dedede" d="M 111.5,59.5 C 112.629,61.6282 112.796,63.9615 112,66.5C 111.503,64.1902 111.337,61.8568 111.5,59.5 Z"/></g>
<g><path style="opacity:0.004" fill="#fefffe" d="M 9.5,65.5 C 9.89657,64.475 10.5632,64.3083 11.5,65C 10.9056,65.4643 10.2389,65.631 9.5,65.5 Z"/></g>
<g><path style="opacity:0.398" fill="#dadada" d="M 109.5,58.5 C 109.833,58.5 110.167,58.5 110.5,58.5C 110.294,62.8982 110.627,67.2315 111.5,71.5C 110.662,71.8417 110.328,72.5084 110.5,73.5C 109.833,73.5 109.167,73.5 108.5,73.5C 108.167,72.8333 107.833,72.1667 107.5,71.5C 108.222,71.0825 108.722,70.4158 109,69.5C 109.499,65.8484 109.665,62.1817 109.5,58.5 Z"/></g>
<g><path style="opacity:0.012" fill="#d4d5d4" d="M 34.5,65.5 C 35.8333,66.1667 35.8333,66.1667 34.5,65.5 Z"/></g>
<g><path style="opacity:0.004" fill="#fdfefd" d="M 134.5,65.5 C 135.833,66.1667 135.833,66.1667 134.5,65.5 Z"/></g>
<g><path style="opacity:0.008" fill="#fefffe" d="M 17.5,66.5 C 18.8333,67.1667 18.8333,67.1667 17.5,66.5 Z"/></g>
<g><path style="opacity:0.998" fill="#f1f1f1" d="M 89.5,69.5 C 84.6579,72.0111 79.6579,74.3445 74.5,76.5C 73.6345,73.5816 72.6345,70.5816 71.5,67.5C 75.0908,66.7479 78.5908,66.4145 82,66.5C 84.0693,67.2638 86.236,67.7638 88.5,68C 89.056,68.3826 89.3893,68.8826 89.5,69.5 Z"/></g>
<g><path style="opacity:0.012" fill="#fdfefd" d="M 17.5,67.5 C 17.5,67.8333 17.5,68.1667 17.5,68.5C 14.8333,68.1667 14.8333,67.8333 17.5,67.5 Z"/></g>
<g><path style="opacity:0.004" fill="#fefffe" d="M 19.5,67.5 C 20.8333,68.1667 20.8333,68.1667 19.5,67.5 Z"/></g>
<g><path style="opacity:0.004" fill="#fefffe" d="M 36.5,68.5 C 35.8333,67.1667 35.8333,67.1667 36.5,68.5 Z"/></g>
<g><path style="opacity:0.82" fill="#d4d4d4" d="M 37.5,66.5 C 39.0269,66.427 40.0269,67.0937 40.5,68.5C 38.9731,68.573 37.9731,67.9063 37.5,66.5 Z"/></g>
<g><path style="opacity:0.009" fill="#fefefe" d="M 137.5,71.5 C 137.167,71.5 136.833,71.5 136.5,71.5C 136.833,66.1667 137.167,66.1667 137.5,71.5 Z"/></g>
<g><path style="opacity:0.57" fill="#f5f5f5" d="M 9.5,65.5 C 10.983,67.0938 12.483,68.7605 14,70.5C 15.3024,69.9152 16.469,69.2485 17.5,68.5C 18.1667,68.5 18.8333,68.5 19.5,68.5C 19.5,69.1667 19.5,69.8333 19.5,70.5C 18.6364,71.6883 17.6364,72.8549 16.5,74C 17.7051,75.3756 19.0384,76.5423 20.5,77.5C 20.631,78.2389 20.4643,78.9056 20,79.5C 18.6439,78.6198 17.1439,78.2865 15.5,78.5C 15.1667,77.1667 14.8333,77.1667 14.5,78.5C 13.6618,78.8417 13.3284,79.5084 13.5,80.5C 12.6618,80.8417 12.3284,81.5084 12.5,82.5C 10.6921,81.0821 10.0254,79.0821 10.5,76.5C 8.07553,76.3649 6.07553,76.0316 4.5,75.5C 5.09001,74.2011 6.09001,73.3678 7.5,73C 6.83333,72.6667 6.16667,72.3333 5.5,72C 7.04954,69.9277 8.38288,67.761 9.5,65.5 Z"/></g>
<g><path style="opacity:0.004" fill="#fefffe" d="M 36.5,68.5 C 37.8333,69.1667 37.8333,69.1667 36.5,68.5 Z"/></g>
<g><path style="opacity:0.016" fill="#fdfefd" d="M 131.5,68.5 C 132.833,69.1667 132.833,69.1667 131.5,68.5 Z"/></g>
<g><path style="opacity:0.008" fill="#fefffe" d="M 20.5,69.5 C 21.8333,70.1667 21.8333,70.1667 20.5,69.5 Z"/></g>
<g><path style="opacity:0.02" fill="#fdfefd" d="M 19.5,70.5 C 19.8333,70.5 20.1667,70.5 20.5,70.5C 20.3147,71.1701 19.9813,71.1701 19.5,70.5 Z"/></g>
<g><path style="opacity:0.008" fill="#fcfcfc" d="M 39.5,71.5 C 38.475,71.1034 38.3083,70.4368 39,69.5C 39.4643,70.0944 39.631,70.7611 39.5,71.5 Z"/></g>
<g><path style="opacity:1" fill="#bbbbbb" d="M 40.5,68.5 C 42.1042,69.287 42.7709,70.6203 42.5,72.5C 41.8333,72.1667 41.1667,71.8333 40.5,71.5C 40.5,70.5 40.5,69.5 40.5,68.5 Z"/></g>
<g><path style="opacity:0.011" fill="#fefefe" d="M 126.5,71.5 C 127.946,70.3871 129.613,70.2204 131.5,71C 129.866,71.4935 128.199,71.6602 126.5,71.5 Z"/></g>
<g><path style="opacity:0.016" fill="#cacbca" d="M 39.5,71.5 C 39.8333,71.5 40.1667,71.5 40.5,71.5C 40.3147,72.1701 39.9813,72.1701 39.5,71.5 Z"/></g>
<g><path style="opacity:0.004" fill="#fefefe" d="M 111.5,71.5 C 112.833,72.1667 112.833,72.8333 111.5,73.5C 111.5,72.8333 111.5,72.1667 111.5,71.5 Z"/></g>
<g><path style="opacity:0.015" fill="#fefefe" d="M 137.5,71.5 C 138.833,71.5 140.167,71.5 141.5,71.5C 141.5,71.8333 141.5,72.1667 141.5,72.5C 139.901,72.7678 138.568,72.4345 137.5,71.5 Z"/></g>
<g><path style="opacity:0.992" fill="#262626" d="M 11.5,70.5 C 12.4584,70.9528 13.2917,71.6195 14,72.5C 14.7175,71.5494 15.5509,71.3828 16.5,72C 15.1667,73.3333 15.1667,74.6667 16.5,76C 14.6711,76.2735 13.1711,77.1068 12,78.5C 11.5604,76.9238 10.727,75.5904 9.5,74.5C 10.8532,73.4763 11.5198,72.143 11.5,70.5 Z"/></g>
<g><path style="opacity:0.012" fill="#fefffe" d="M 40.5,73.5 C 41.8333,74.1667 41.8333,74.1667 40.5,73.5 Z"/></g>
<g><path style="opacity:0.298" fill="#dddddd" d="M 42.5,72.5 C 44.1898,72.8564 45.1898,73.8564 45.5,75.5C 43.5,75.5 42.5,74.5 42.5,72.5 Z"/></g>
<g><path style="opacity:0.004" fill="#fdfefd" d="M 110.5,73.5 C 110.833,73.5 111.167,73.5 111.5,73.5C 111.315,74.1701 110.981,74.1701 110.5,73.5 Z"/></g>
<g><path style="opacity:0.008" fill="#fdfefd" d="M 124.5,73.5 C 125.833,74.1667 125.833,74.1667 124.5,73.5 Z"/></g>
<g><path style="opacity:0.008" fill="#fefffe" d="M 2.5,74.5 C 3.83333,75.1667 3.83333,75.1667 2.5,74.5 Z"/></g>
<g><path style="opacity:0.008" fill="#ababab" d="M 51.5,73.5 C 51.5,74.1667 51.8333,74.5 52.5,74.5C 51.8743,75.5289 51.041,76.5289 50,77.5C 49.1558,75.5372 49.6558,74.2039 51.5,73.5 Z"/></g>
<g><path style="opacity:0.02" fill="#d5d6d5" d="M 108.5,74.5 C 109.167,74.5 109.5,74.8333 109.5,75.5C 109.167,75.1667 108.833,74.8333 108.5,74.5 Z"/></g>
<g><path style="opacity:0.324" fill="#ebebeb" d="M 51.5,72.5 C 50.5,72.5 49.5,72.5 48.5,72.5C 48.9227,74.7812 48.256,76.4479 46.5,77.5C 46.1667,76.8333 45.8333,76.1667 45.5,75.5C 46.9779,74.0301 48.3112,72.3634 49.5,70.5C 50.5223,70.8555 51.189,71.5222 51.5,72.5 Z"/></g>
<g><path style="opacity:0.008" fill="#fefffe" d="M 21.5,77.5 C 20.8333,76.1667 20.8333,76.1667 21.5,77.5 Z"/></g>
<g><path style="opacity:0.004" fill="#9b9b9b" d="M 109.5,75.5 C 110.525,75.8966 110.692,76.5632 110,77.5C 109.536,76.9056 109.369,76.2389 109.5,75.5 Z"/></g>
<g><path style="opacity:0.02" fill="#fefffe" d="M 140.5,76.5 C 140.833,76.5 141.167,76.5 141.5,76.5C 141.5,76.8333 141.5,77.1667 141.5,77.5C 141.167,77.1667 140.833,76.8333 140.5,76.5 Z"/></g>
<g><path style="opacity:0.008" fill="#fdfdfd" d="M 6.5,78.5 C 7.20895,77.596 8.20895,77.2627 9.5,77.5C 9.66018,79.1992 9.49351,80.8659 9,82.5C 8.87838,80.563 8.04504,79.2297 6.5,78.5 Z"/></g>
<g><path style="opacity:0.004" fill="#fefffe" d="M 21.5,77.5 C 22.8333,78.1667 22.8333,78.1667 21.5,77.5 Z"/></g>
<g><path style="opacity:0.012" fill="#d6d7d6" d="M 46.5,77.5 C 46.5,77.8333 46.5,78.1667 46.5,78.5C 45.8299,78.0187 45.8299,77.6853 46.5,77.5 Z"/></g>
<g><path style="opacity:1" fill="#b0b0b0" d="M 51.5,73.5 C 51.5,73.1667 51.5,72.8333 51.5,72.5C 55.2121,75.3551 59.2121,77.6884 63.5,79.5C 62.0695,79.5792 60.7362,79.2458 59.5,78.5C 59.1667,79 58.8333,79.5 58.5,80C 59.7357,81.8556 59.7357,83.6889 58.5,85.5C 60.0453,86.4519 61.712,86.7852 63.5,86.5C 63.3893,87.1174 63.056,87.6174 62.5,88C 60.1667,88.6667 57.8333,88.6667 55.5,88C 56.2524,87.3292 56.5858,86.4959 56.5,85.5C 57.8333,83.8333 57.8333,82.1667 56.5,80.5C 56.7373,79.209 56.404,78.209 55.5,77.5C 54.8333,76.1667 53.8333,75.1667 52.5,74.5C 51.8333,74.5 51.5,74.1667 51.5,73.5 Z"/></g>
<g><path style="opacity:0.016" fill="#fdfdfd" d="M 14.5,78.5 C 14.8333,78.5 15.1667,78.5 15.5,78.5C 15.6716,79.4916 15.3382,80.1583 14.5,80.5C 14.5,79.8333 14.5,79.1667 14.5,78.5 Z"/></g>
<g><path style="opacity:0.008" fill="#fcfdfc" d="M 46.5,78.5 C 47.8333,79.1667 47.8333,79.1667 46.5,78.5 Z"/></g>
<g><path style="opacity:0.008" fill="#e6e6e6" d="M 55.5,77.5 C 55.631,78.2389 55.4643,78.9056 55,79.5C 54.3083,78.5632 54.475,77.8966 55.5,77.5 Z"/></g>
<g><path style="opacity:0.996" fill="#0c0c0c" d="M 63.5,79.5 C 63.5,81.8333 63.5,84.1667 63.5,86.5C 61.712,86.7852 60.0453,86.4519 58.5,85.5C 59.7357,83.6889 59.7357,81.8556 58.5,80C 58.8333,79.5 59.1667,79 59.5,78.5C 60.7362,79.2458 62.0695,79.5792 63.5,79.5 Z"/></g>
<g><path style="opacity:0.01" fill="#fefefe" d="M 127.5,78.5 C 128.525,78.8966 128.692,79.5632 128,80.5C 127.536,79.9056 127.369,79.2389 127.5,78.5 Z"/></g>
<g><path style="opacity:0.965" fill="#f0f0f0" d="M 136.5,71.5 C 137.552,73.256 139.219,73.9227 141.5,73.5C 141.5,74.1667 141.5,74.8333 141.5,75.5C 140.833,75.5 140.5,75.8333 140.5,76.5C 139.508,76.3284 138.842,76.6618 138.5,77.5C 137.167,77.8333 137.167,78.1667 138.5,78.5C 138.843,80.4832 138.176,81.8166 136.5,82.5C 134.833,79.8333 133.167,79.8333 131.5,82.5C 130.508,82.3284 129.842,82.6618 129.5,83.5C 128.957,83.44 128.624,83.1067 128.5,82.5C 129.074,80.9411 129.74,79.4411 130.5,78C 129.324,76.3257 127.99,74.8257 126.5,73.5C 130.616,73.2663 133.283,71.2663 134.5,67.5C 135.172,68.9492 135.839,70.2825 136.5,71.5 Z"/></g>
<g><path style="opacity:0.99" fill="#242424" d="M 133.5,72.5 C 134.83,73.8321 136.497,74.6655 138.5,75C 137.107,76.1711 136.273,77.6711 136,79.5C 134.348,78.783 132.848,78.4496 131.5,78.5C 132.668,77.0944 132.335,75.9277 130.5,75C 132.119,74.7645 133.119,73.9311 133.5,72.5 Z"/></g>
<g><path style="opacity:0.009" fill="#fdfdfd" d="M 138.5,78.5 C 138.5,78.1667 138.5,77.8333 138.5,77.5C 139.167,77.5 139.833,77.5 140.5,77.5C 140.657,78.8734 140.49,80.2068 140,81.5C 139.768,80.2625 139.268,79.2625 138.5,78.5 Z"/></g>
<g><path style="opacity:0.014" fill="#fefefe" d="M 16.5,80.5 C 16.8966,79.475 17.5632,79.3083 18.5,80C 17.9056,80.4643 17.2389,80.631 16.5,80.5 Z"/></g>
<g><path style="opacity:0.004" fill="#000000" d="M 33.5,80.5 C 34.2506,79.4265 35.2506,79.2599 36.5,80C 35.552,80.4828 34.552,80.6495 33.5,80.5 Z"/></g>
<g><path style="opacity:0.012" fill="#f8f8f8" d="M 109.5,78.5 C 110.525,78.8966 110.692,79.5632 110,80.5C 109.536,79.9056 109.369,79.2389 109.5,78.5 Z"/></g>
<g><path style="opacity:0.008" fill="#fefefe" d="M 13.5,80.5 C 13.8333,80.5 14.1667,80.5 14.5,80.5C 14.6716,81.4916 14.3382,82.1583 13.5,82.5C 13.5,81.8333 13.5,81.1667 13.5,80.5 Z"/></g>
<g><path style="opacity:0.014" fill="#000000" d="M 27.5,81.5 C 28.9464,80.3871 30.6131,80.2204 32.5,81C 30.8659,81.4935 29.1992,81.6602 27.5,81.5 Z"/></g>
<g><path style="opacity:0.018" fill="#000000" d="M 26.5,82.5 C 25.7611,82.631 25.0944,82.4643 24.5,82C 25.4368,81.3083 26.1034,81.475 26.5,82.5 Z"/></g>
<g><path style="opacity:0.008" fill="#dddddd" d="M 56.5,80.5 C 56.631,81.2389 56.4643,81.9056 56,82.5C 55.3083,81.5632 55.475,80.8966 56.5,80.5 Z"/></g>
<g><path style="opacity:0.004" fill="#000000" d="M 122.5,81.5 C 123.833,82.1667 123.833,82.1667 122.5,81.5 Z"/></g>
<g><path style="opacity:0.008" fill="#fdfefd" d="M 126.5,81.5 C 127.833,82.1667 127.833,82.1667 126.5,81.5 Z"/></g>
<g><path style="opacity:0.004" fill="#fefffe" d="M 12.5,82.5 C 12.8333,82.5 13.1667,82.5 13.5,82.5C 13.3147,83.1701 12.9813,83.1701 12.5,82.5 Z"/></g>
<g><path style="opacity:0.012" fill="#000000" d="M 21.5,83.5 C 21.8966,82.475 22.5632,82.3083 23.5,83C 22.9056,83.4643 22.2389,83.631 21.5,83.5 Z"/></g>
<g><path style="opacity:0.012" fill="#b3b3b3" d="M 108.5,81.5 C 109.573,82.2506 109.74,83.2506 109,84.5C 108.517,83.552 108.351,82.552 108.5,81.5 Z"/></g>
<g><path style="opacity:0.004" fill="#000000" d="M 117.5,82.5 C 118.833,83.1667 118.833,83.1667 117.5,82.5 Z"/></g>
<g><path style="opacity:0.014" fill="#000000" d="M 119.5,83.5 C 119.897,82.475 120.563,82.3083 121.5,83C 120.906,83.4643 120.239,83.631 119.5,83.5 Z"/></g>
<g><path style="opacity:0.016" fill="#fdfefd" d="M 131.5,82.5 C 132.833,83.1667 132.833,83.1667 131.5,82.5 Z"/></g>
<g><path style="opacity:0.008" fill="#fcfdfc" d="M 136.5,82.5 C 136.5,82.8333 136.5,83.1667 136.5,83.5C 135.83,83.0187 135.83,82.6853 136.5,82.5 Z"/></g>
<g><path style="opacity:0.004" fill="#fefffe" d="M 12.5,83.5 C 12.1034,84.525 11.4368,84.6917 10.5,84C 11.0944,83.5357 11.7611,83.369 12.5,83.5 Z"/></g>
<g><path style="opacity:0.777" fill="#0c0c0c" d="M 45.5,84.5 C 46.5116,85.8717 47.5116,87.205 48.5,88.5C 48.4403,91.3408 47.7736,94.0075 46.5,96.5C 45.1667,97.1667 44.1667,98.1667 43.5,99.5C 42.2035,100.849 42.3702,102.182 44,103.5C 44.4643,102.906 44.631,102.239 44.5,101.5C 45.1667,101.5 45.5,101.167 45.5,100.5C 47.5,99.1667 49.1667,97.5 50.5,95.5C 54.1122,94.4886 57.7789,94.3219 61.5,95C 62.0659,95.9947 62.7326,96.828 63.5,97.5C 63.8333,100.167 64.1667,100.167 64.5,97.5C 65.4916,97.6716 66.1583,97.3382 66.5,96.5C 67.7095,96.0679 68.7095,95.4013 69.5,94.5C 74.1785,94.3342 78.8452,94.5008 83.5,95C 85.1376,98.0571 86.4709,98.0571 87.5,95C 93.8364,95.8262 100.17,95.6595 106.5,94.5C 106.157,92.5168 106.824,91.1834 108.5,90.5C 109.623,91.7574 110.289,91.4241 110.5,89.5C 111.404,88.791 111.737,87.791 111.5,86.5C 113.698,86.1249 115.698,85.4582 117.5,84.5C 119.591,84.6816 121.591,84.3482 123.5,83.5C 123.92,85.326 123.92,87.326 123.5,89.5C 122.957,89.56 122.624,89.8933 122.5,90.5C 123.522,91.354 124.355,92.354 125,93.5C 131.981,90.9008 135.815,93.2341 136.5,100.5C 135.662,100.842 135.328,101.508 135.5,102.5C 133.748,102.418 132.748,103.251 132.5,105C 133.148,106.44 133.481,107.94 133.5,109.5C 132.596,110.209 132.263,111.209 132.5,112.5C 131.662,112.842 131.328,113.508 131.5,114.5C 130.833,114.5 130.5,114.833 130.5,115.5C 129.833,115.5 129.5,115.833 129.5,116.5C 125.7,118.143 121.7,118.81 117.5,118.5C 116.828,117.733 115.995,117.066 115,116.5C 111.697,118.744 108.197,119.077 104.5,117.5C 103.833,116.167 103.167,116.167 102.5,117.5C 99.9039,118.265 97.2372,118.599 94.5,118.5C 92.9522,116.078 91.2855,116.078 89.5,118.5C 86.6097,118.722 83.943,118.055 81.5,116.5C 80.2613,116.942 79.2613,117.609 78.5,118.5C 75.5178,118.896 72.8511,118.229 70.5,116.5C 67.3276,118.67 63.9943,119.003 60.5,117.5C 59.5,116.167 58.5,116.167 57.5,117.5C 53.8815,118.244 50.2148,118.577 46.5,118.5C 44.8333,117.5 43.5,116.167 42.5,114.5C 42.362,110.714 41.6953,110.714 40.5,114.5C 39.8333,114.5 39.5,114.833 39.5,115.5C 38.5084,115.328 37.8417,115.662 37.5,116.5C 36.5084,116.328 35.8417,116.662 35.5,117.5C 34.8333,117.5 34.5,117.833 34.5,118.5C 28.9738,118.179 23.6405,118.512 18.5,119.5C 16.5,119.5 14.5,119.5 12.5,119.5C 13.5,116.167 14.5,112.833 15.5,109.5C 16.3382,109.158 16.6716,108.492 16.5,107.5C 17.0431,107.44 17.3764,107.107 17.5,106.5C 15.2235,105.579 12.8901,104.913 10.5,104.5C 10.6716,103.508 10.3382,102.842 9.5,102.5C 8.73196,96.2019 11.0653,91.3686 16.5,88C 19.7672,85.8713 23.1005,84.038 26.5,82.5C 33.0672,81.0242 39.4006,81.6909 45.5,84.5 Z M 35.5,94.5 C 35.4914,92.6916 35.9914,91.0249 37,89.5C 37.5986,91.5348 37.0986,93.2015 35.5,94.5 Z M 110.5,89.5 C 110.289,91.4241 109.623,91.7574 108.5,90.5C 109.167,90.1667 109.833,89.8333 110.5,89.5 Z M 21.5,93.5 C 22.4646,94.7211 22.298,96.0544 21,97.5C 20.4209,96.0715 20.5876,94.7382 21.5,93.5 Z M 48.5,95.5 C 49.1667,95.5 49.8333,95.5 50.5,95.5C 49.1667,97.5 47.5,99.1667 45.5,100.5C 45.1583,99.6618 44.4916,99.3284 43.5,99.5C 44.1667,98.1667 45.1667,97.1667 46.5,96.5C 47.3274,97.4387 47.9941,97.1054 48.5,95.5 Z M 118.5,98.5 C 120.807,99.405 120.807,100.738 118.5,102.5C 118.094,101.443 118.094,100.109 118.5,98.5 Z M 43.5,99.5 C 43.3284,100.492 43.6618,101.158 44.5,101.5C 44.631,102.239 44.4643,102.906 44,103.5C 42.3702,102.182 42.2035,100.849 43.5,99.5 Z M 31.5,103.5 C 32.2421,106.423 31.4087,109.09 29,111.5C 28.9779,108.549 29.8113,105.883 31.5,103.5 Z M 42.5,114.5 C 41.8333,114.5 41.1667,114.5 40.5,114.5C 41.6953,110.714 42.362,110.714 42.5,114.5 Z"/></g>
<g><path style="opacity:0.004" fill="#000100" d="M 45.5,84.5 C 45.8966,83.475 46.5632,83.3083 47.5,84C 46.9056,84.4643 46.2389,84.631 45.5,84.5 Z"/></g>
<g><path style="opacity:0.014" fill="#000000" d="M 117.5,83.5 C 117.5,83.8333 117.5,84.1667 117.5,84.5C 113.5,84.1667 113.5,83.8333 117.5,83.5 Z"/></g>
<g><path style="opacity:0.008" fill="#fefefe" d="M 129.5,83.5 C 130.167,83.5 130.833,83.5 131.5,83.5C 130.833,84.8333 130.167,84.8333 129.5,83.5 Z"/></g>
<g><path style="opacity:0.008" fill="#fefffe" d="M 136.5,83.5 C 137.833,84.1667 137.833,84.1667 136.5,83.5 Z"/></g>
<g><path style="opacity:0.921" fill="#f8f8f8" d="M 28.5,84.5 C 32.8461,84.3343 37.1794,84.501 41.5,85C 47.75,88.6131 48.0833,92.7798 42.5,97.5C 40.7749,98.0149 39.1083,98.6816 37.5,99.5C 42.8804,104.478 42.547,109.312 36.5,114C 35.1667,114.667 33.8333,115.333 32.5,116C 27.1771,116.499 21.8437,116.666 16.5,116.5C 19.426,107.393 22.7593,98.393 26.5,89.5C 26.3333,88.8333 26.1667,88.1667 26,87.5C 21.9129,89.7548 19.0796,93.0881 17.5,97.5C 20.2212,99.8447 19.8879,101.678 16.5,103C 12.0233,103.165 10.5233,100.998 12,96.5C 15.88,90.155 21.38,86.155 28.5,84.5 Z M 35.5,94.5 C 37.0986,93.2015 37.5986,91.5348 37,89.5C 35.9914,91.0249 35.4914,92.6916 35.5,94.5 Z M 21.5,93.5 C 20.5876,94.7382 20.4209,96.0715 21,97.5C 22.298,96.0544 22.4646,94.7211 21.5,93.5 Z M 31.5,103.5 C 29.8113,105.883 28.9779,108.549 29,111.5C 31.4087,109.09 32.2421,106.423 31.5,103.5 Z"/></g>
<g><path style="opacity:0.004" fill="#5d5d5d" d="M 56.5,85.5 C 56.1667,85.5 55.8333,85.5 55.5,85.5C 55.8333,82.8333 56.1667,82.8333 56.5,85.5 Z"/></g>
<g><path style="opacity:0.004" fill="#000000" d="M 111.5,84.5 C 112.833,85.1667 112.833,85.1667 111.5,84.5 Z"/></g>
<g><path style="opacity:0.012" fill="#000000" d="M 125.5,84.5 C 126.833,85.1667 126.833,85.1667 125.5,84.5 Z"/></g>
<g><path style="opacity:0.016" fill="#000000" d="M 16.5,85.5 C 17.8333,86.1667 17.8333,86.1667 16.5,85.5 Z"/></g>
<g><path style="opacity:0.012" fill="#e0e1e0" d="M 55.5,85.5 C 54.8333,86.1667 54.8333,86.1667 55.5,85.5 Z"/></g>
<g><path style="opacity:0.867" fill="#c6c6c6" d="M 89.5,69.5 C 91.9892,69.2978 94.3225,69.7978 96.5,71C 98.6667,73.8333 100.833,76.6667 103,79.5C 103.977,82.8173 103.144,85.484 100.5,87.5C 101.635,85.2549 102.135,82.9216 102,80.5C 100.477,82.5692 99.6432,84.9026 99.5,87.5C 98.7321,88.2625 98.2321,89.2625 98,90.5C 96.6631,88.9963 94.9964,87.9963 93,87.5C 93.8867,85.1785 94.7201,82.6785 95.5,80C 94.7927,77.4131 93.4594,75.2464 91.5,73.5C 91.2893,71.5759 90.6226,71.2426 89.5,72.5C 84.1838,73.9086 79.3504,76.2419 75,79.5C 74.3333,82.8333 73.6667,86.1667 73,89.5C 72.0053,90.0659 71.172,90.7326 70.5,91.5C 68.4727,91.6621 66.4727,91.4955 64.5,91C 64.1286,89.3967 63.7952,87.8967 63.5,86.5C 63.5,84.1667 63.5,81.8333 63.5,79.5C 66.4664,82.1179 67.133,85.2846 65.5,89C 67.5,89.6667 69.5,89.6667 71.5,89C 72.0305,84.6729 73.0305,80.5063 74.5,76.5C 79.6579,74.3445 84.6579,72.0111 89.5,69.5 Z M 100.5,87.5 C 100.167,87.5 99.8333,87.5 99.5,87.5C 99.6432,84.9026 100.477,82.5692 102,80.5C 102.135,82.9216 101.635,85.2549 100.5,87.5 Z M 89.5,72.5 C 90.6226,71.2426 91.2893,71.5759 91.5,73.5C 90.8333,73.1667 90.1667,72.8333 89.5,72.5 Z"/></g>
<g><path style="opacity:0.987" fill="#171717" d="M 92.5,70.5 C 95.8537,72.863 98.5204,75.863 100.5,79.5C 99.0541,81.6179 98.3874,83.9512 98.5,86.5C 97.1266,86.6567 95.7932,86.49 94.5,86C 95.8943,84.2605 96.5609,82.2605 96.5,80C 95.5852,76.6688 94.2518,73.5021 92.5,70.5 Z"/></g>
<g><path style="opacity:0.004" fill="#000000" d="M 111.5,85.5 C 111.5,85.8333 111.5,86.1667 111.5,86.5C 110.83,86.0187 110.83,85.6853 111.5,85.5 Z"/></g>
<g><path style="opacity:0.008" fill="#000000" d="M 49.5,88.5 C 49.1667,88.5 48.8333,88.5 48.5,88.5C 48.8333,85.8333 49.1667,85.8333 49.5,88.5 Z"/></g>
<g><path style="opacity:0.915" fill="#f7f7f7" d="M 119.5,86.5 C 120.239,86.369 120.906,86.5357 121.5,87C 120.692,89.0876 119.692,91.0876 118.5,93C 119.624,93.2492 120.624,93.7492 121.5,94.5C 120.167,95.1667 118.833,95.8333 117.5,96.5C 115.362,101.276 113.362,106.11 111.5,111C 112.137,112.713 113.137,112.879 114.5,111.5C 115.333,109.5 116.167,107.5 117,105.5C 118.356,104.62 119.856,104.286 121.5,104.5C 121.854,107.421 120.854,109.754 118.5,111.5C 121.813,113.254 123.48,112.254 123.5,108.5C 123.218,105.869 122.551,103.369 121.5,101C 123.257,95.6198 126.924,93.6198 132.5,95C 134.848,96.6884 135.015,98.5217 133,100.5C 132.255,97.2132 130.422,96.2132 127.5,97.5C 126.417,98.365 126.251,99.365 127,100.5C 132.046,104.594 132.546,109.094 128.5,114C 124.102,117.095 119.602,117.261 115,114.5C 110.89,117.485 107.223,117.152 104,113.5C 100.066,117.293 96.2323,117.293 92.5,113.5C 88.4541,117.785 84.9541,117.452 82,112.5C 78.4221,117.199 74.5887,117.532 70.5,113.5C 66.4541,117.785 62.9541,117.452 60,112.5C 56.4057,115.698 52.2391,116.865 47.5,116C 42.8267,112.329 42.3267,108.163 46,103.5C 48.2047,100.96 50.7047,98.7932 53.5,97C 62.3218,96.4492 63.6551,99.4492 57.5,106C 55.2537,107.039 53.087,108.206 51,109.5C 50.6913,111.391 51.5247,112.725 53.5,113.5C 58.2324,112.268 61.0657,109.268 62,104.5C 64.8686,100.617 68.5352,97.9499 73,96.5C 76.6053,96.4373 80.1053,96.9373 83.5,98C 80.6653,102.482 79.1653,107.315 79,112.5C 83.2708,108.297 86.2708,103.297 88,97.5C 90.0408,96.5769 92.2075,96.2436 94.5,96.5C 93.2731,101.461 91.6064,106.294 89.5,111C 90.6479,112.726 91.8145,112.559 93,110.5C 94.8333,106.167 96.6667,101.833 98.5,97.5C 100.833,96.1667 103.167,96.1667 105.5,97.5C 103.629,102.074 101.629,106.574 99.5,111C 100,111.5 100.5,112 101,112.5C 105.914,108.325 109.08,102.992 110.5,96.5C 109.833,95.8333 109.167,95.1667 108.5,94.5C 111.515,93.3249 113.515,91.1582 114.5,88C 116.382,87.8019 118.048,87.3019 119.5,86.5 Z M 118.5,98.5 C 118.094,100.109 118.094,101.443 118.5,102.5C 120.807,100.738 120.807,99.405 118.5,98.5 Z"/></g>
<g><path style="opacity:0.012" fill="#000000" d="M 124.5,86.5 C 125.525,86.8966 125.692,87.5632 125,88.5C 124.536,87.9056 124.369,87.2389 124.5,86.5 Z"/></g>
<g><path style="opacity:0.841" fill="#0e0e0e" d="M 35.5,86.5 C 36.8221,86.33 37.9887,86.6634 39,87.5C 40.6033,94.3901 38.1033,97.3901 31.5,96.5C 33.0355,93.2225 34.3689,89.8891 35.5,86.5 Z M 35.5,94.5 C 37.0986,93.2015 37.5986,91.5348 37,89.5C 35.9914,91.0249 35.4914,92.6916 35.5,94.5 Z"/></g>
<g><path style="opacity:0.012" fill="#000000" d="M 49.5,88.5 C 50.5983,89.6009 50.765,90.9343 50,92.5C 49.51,91.2068 49.3433,89.8734 49.5,88.5 Z"/></g>
<g><path style="opacity:0.016" fill="#c8c8c8" d="M 107.5,85.5 C 108.598,86.6009 108.765,87.9343 108,89.5C 107.51,88.2068 107.343,86.8734 107.5,85.5 Z"/></g>
<g><path style="opacity:0.004" fill="#f7f7f7" d="M 57.5,90.5 C 58.9464,89.3871 60.6131,89.2204 62.5,90C 60.8659,90.4935 59.1992,90.6602 57.5,90.5 Z"/></g>
<g><path style="opacity:0.996" fill="#d7d7d7" d="M 99.5,87.5 C 99.8333,87.5 100.167,87.5 100.5,87.5C 101.552,89.256 103.219,89.9227 105.5,89.5C 105.167,90.1667 104.833,90.8333 104.5,91.5C 103.5,91.5 102.5,91.5 101.5,91.5C 100.194,90.5326 99.5271,89.1993 99.5,87.5 Z"/></g>
<g><path style="opacity:0.012" fill="#000000" d="M 123.5,89.5 C 124.833,90.1667 124.833,90.1667 123.5,89.5 Z"/></g>
<g><path style="opacity:0.014" fill="#000000" d="M 125.5,91.5 C 125.897,90.475 126.563,90.3083 127.5,91C 126.906,91.4643 126.239,91.631 125.5,91.5 Z"/></g>
<g><path style="opacity:0.012" fill="#000000" d="M 131.5,90.5 C 132.833,91.1667 132.833,91.1667 131.5,90.5 Z"/></g>
<g><path style="opacity:0.01" fill="#000000" d="M 53.5,93.5 C 53.8966,92.475 54.5632,92.3083 55.5,93C 54.9056,93.4643 54.2389,93.631 53.5,93.5 Z"/></g>
<g><path style="opacity:0.012" fill="#000000" d="M 59.5,93.5 C 59.8966,92.475 60.5632,92.3083 61.5,93C 60.9056,93.4643 60.2389,93.631 59.5,93.5 Z"/></g>
<g><path style="opacity:0.012" fill="#797979" d="M 70.5,91.5 C 71.2389,91.369 71.9056,91.5357 72.5,92C 71.4293,92.8518 70.4293,93.6851 69.5,94.5C 67.8211,94.1077 66.1545,93.6077 64.5,93C 66.7078,92.8091 68.7078,92.3091 70.5,91.5 Z"/></g>
<g><path style="opacity:0.02" fill="#414141" d="M 101.5,91.5 C 102.5,92.8333 103.5,92.8333 104.5,91.5C 105.043,91.56 105.376,91.8933 105.5,92.5C 103.235,93.6474 100.902,93.8141 98.5,93C 99.2438,91.9614 100.244,91.4614 101.5,91.5 Z"/></g>
<g><path style="opacity:0.013" fill="#000000" d="M 50.5,95.5 C 49.8333,95.5 49.1667,95.5 48.5,95.5C 48.7856,93.0673 49.4523,93.0673 50.5,95.5 Z"/></g>
<g><path style="opacity:0.011" fill="#000000" d="M 66.5,96.5 C 65.5084,96.3284 64.8417,96.6618 64.5,97.5C 64.1667,97.5 63.8333,97.5 63.5,97.5C 64.0527,95.4482 65.0527,95.1148 66.5,96.5 Z"/></g>
<g><path style="opacity:0.013" fill="#000000" d="M 137.5,100.5 C 137.343,99.1266 137.51,97.7932 138,96.5C 138.765,98.0657 138.598,99.3991 137.5,100.5 Z"/></g>
<g><path style="opacity:0.021" fill="#010101" d="M 43.5,99.5 C 44.4916,99.3284 45.1583,99.6618 45.5,100.5C 44.8333,100.5 44.5,100.833 44.5,101.5C 43.6618,101.158 43.3284,100.492 43.5,99.5 Z"/></g>
<g><path style="opacity:0.791" fill="#0c0c0c" d="M 29.5,100.5 C 32.5904,99.83 34.257,100.997 34.5,104C 34.2679,108.98 31.9346,112.48 27.5,114.5C 26.2801,114.113 25.6135,113.28 25.5,112C 27.1367,108.256 28.4701,104.423 29.5,100.5 Z M 31.5,103.5 C 29.8113,105.883 28.9779,108.549 29,111.5C 31.4087,109.09 32.2421,106.423 31.5,103.5 Z"/></g>
<g><path style="opacity:0.012" fill="#000000" d="M 136.5,100.5 C 136.833,100.5 137.167,100.5 137.5,100.5C 137.315,101.17 136.981,101.17 136.5,100.5 Z"/></g>
<g><path style="opacity:0.85" fill="#111111" d="M 53.5,100.5 C 56.2048,100.38 56.8715,101.38 55.5,103.5C 54.1311,105.124 52.4645,105.624 50.5,105C 51.3862,103.385 52.3862,101.885 53.5,100.5 Z"/></g>
<g><path style="opacity:0.016" fill="#000000" d="M 9.5,102.5 C 8.83333,103.167 8.83333,103.167 9.5,102.5 Z"/></g>
<g><path style="opacity:0.72" fill="#0d0d0d" d="M 71.5,100.5 C 72.5,100.5 73.5,100.5 74.5,100.5C 74.2163,103.852 73.0496,106.852 71,109.5C 69.8904,111.037 68.3904,111.703 66.5,111.5C 66.4411,106.995 68.1078,103.329 71.5,100.5 Z"/></g>
<g><path style="opacity:0.004" fill="#000000" d="M 135.5,102.5 C 136.833,103.167 136.833,103.167 135.5,102.5 Z"/></g>
<g><path style="opacity:0.004" fill="#000000" d="M 10.5,104.5 C 9.83333,105.167 9.83333,105.167 10.5,104.5 Z"/></g>
<g><path style="opacity:0.013" fill="#000000" d="M 16.5,107.5 C 15.6618,107.842 15.3284,108.508 15.5,109.5C 14.6906,108.531 13.6906,107.698 12.5,107C 14.0657,106.235 15.3991,106.402 16.5,107.5 Z"/></g>
<g><path style="opacity:0.009" fill="#000000" d="M 134.5,109.5 C 134.351,108.448 134.517,107.448 135,106.5C 135.74,107.749 135.573,108.749 134.5,109.5 Z"/></g>
<g><path style="opacity:0.008" fill="#000000" d="M 133.5,109.5 C 133.833,109.5 134.167,109.5 134.5,109.5C 134.737,110.791 134.404,111.791 133.5,112.5C 133.5,111.5 133.5,110.5 133.5,109.5 Z"/></g>
<g><path style="opacity:0.006" fill="#000000" d="M 132.5,112.5 C 132.833,112.5 133.167,112.5 133.5,112.5C 133.672,113.492 133.338,114.158 132.5,114.5C 132.5,113.833 132.5,113.167 132.5,112.5 Z"/></g>
<g><path style="opacity:0.008" fill="#000000" d="M 40.5,115.5 C 40.5,115.167 40.5,114.833 40.5,114.5C 41.1667,114.5 41.8333,114.5 42.5,114.5C 42.5912,116.698 41.9245,117.031 40.5,115.5 Z"/></g>
<g><path style="opacity:0.016" fill="#000000" d="M 131.5,114.5 C 131.833,114.5 132.167,114.5 132.5,114.5C 132.315,115.17 131.981,115.17 131.5,114.5 Z"/></g>
<g><path style="opacity:0.008" fill="#000000" d="M 39.5,115.5 C 39.8333,115.5 40.1667,115.5 40.5,115.5C 40.3147,116.17 39.9813,116.17 39.5,115.5 Z"/></g>
<g><path style="opacity:0.008" fill="#000000" d="M 130.5,115.5 C 130.833,115.5 131.167,115.5 131.5,115.5C 131.315,116.17 130.981,116.17 130.5,115.5 Z"/></g>
<g><path style="opacity:0.008" fill="#000000" d="M 10.5,116.5 C 11.525,116.897 11.6917,117.563 11,118.5C 10.5357,117.906 10.369,117.239 10.5,116.5 Z"/></g>
<g><path style="opacity:0.012" fill="#000000" d="M 37.5,117.5 C 37.5,117.167 37.5,116.833 37.5,116.5C 38.1667,116.5 38.8333,116.5 39.5,116.5C 39.1583,117.338 38.4916,117.672 37.5,117.5 Z"/></g>
<g><path style="opacity:0.008" fill="#000000" d="M 129.5,116.5 C 129.833,116.5 130.167,116.5 130.5,116.5C 130.315,117.17 129.981,117.17 129.5,116.5 Z"/></g>
<g><path style="opacity:0.008" fill="#000000" d="M 35.5,118.5 C 35.5,118.167 35.5,117.833 35.5,117.5C 36.1667,117.5 36.8333,117.5 37.5,117.5C 37.1583,118.338 36.4916,118.672 35.5,118.5 Z"/></g>
<g><path style="opacity:0.016" fill="#000000" d="M 57.5,117.5 C 58.8333,118.167 58.8333,118.167 57.5,117.5 Z"/></g>
<g><path style="opacity:0.012" fill="#000100" d="M 60.5,117.5 C 60.5,117.833 60.5,118.167 60.5,118.5C 59.8299,118.019 59.8299,117.685 60.5,117.5 Z"/></g>
<g><path style="opacity:0.018" fill="#000000" d="M 102.5,118.5 C 102.5,118.167 102.5,117.833 102.5,117.5C 103.167,117.5 103.833,117.5 104.5,117.5C 104.5,117.833 104.5,118.167 104.5,118.5C 103.833,118.5 103.167,118.5 102.5,118.5 Z"/></g>
<g><path style="opacity:0.008" fill="#000000" d="M 129.5,117.5 C 128.833,118.167 128.833,118.167 129.5,117.5 Z"/></g>
<g><path style="opacity:0.016" fill="#000000" d="M 34.5,118.5 C 34.8333,118.5 35.1667,118.5 35.5,118.5C 35.3147,119.17 34.9813,119.17 34.5,118.5 Z"/></g>
<g><path style="opacity:0.008" fill="#000000" d="M 46.5,118.5 C 46.1034,119.525 45.4368,119.692 44.5,119C 45.0944,118.536 45.7611,118.369 46.5,118.5 Z"/></g>
<g><path style="opacity:0.01" fill="#000000" d="M 57.5,118.5 C 57.1034,119.525 56.4368,119.692 55.5,119C 56.0944,118.536 56.7611,118.369 57.5,118.5 Z"/></g>
<g><path style="opacity:0.008" fill="#000000" d="M 60.5,118.5 C 61.8333,119.167 61.8333,119.167 60.5,118.5 Z"/></g>
<g><path style="opacity:0.016" fill="#000000" d="M 68.5,118.5 C 69.8333,119.167 69.8333,119.167 68.5,118.5 Z"/></g>
<g><path style="opacity:0.008" fill="#000000" d="M 78.5,119.5 C 78.5,119.167 78.5,118.833 78.5,118.5C 81.1667,118.833 81.1667,119.167 78.5,119.5 Z"/></g>
<g><path style="opacity:0.008" fill="#000000" d="M 89.5,119.5 C 89.5,119.167 89.5,118.833 89.5,118.5C 92.1667,118.833 92.1667,119.167 89.5,119.5 Z"/></g>
<g><path style="opacity:0.02" fill="#000000" d="M 94.5,118.5 C 94.5,118.833 94.5,119.167 94.5,119.5C 93.8299,119.019 93.8299,118.685 94.5,118.5 Z"/></g>
<g><path style="opacity:0.008" fill="#000000" d="M 102.5,118.5 C 101.833,119.167 101.833,119.167 102.5,118.5 Z"/></g>
<g><path style="opacity:0.016" fill="#000000" d="M 104.5,118.5 C 105.833,119.167 105.833,119.167 104.5,118.5 Z"/></g>
<g><path style="opacity:0.012" fill="#000000" d="M 113.5,118.5 C 114.833,119.167 114.833,119.167 113.5,118.5 Z"/></g>
<g><path style="opacity:0.01" fill="#000000" d="M 117.5,118.5 C 117.5,118.833 117.5,119.167 117.5,119.5C 114.833,119.167 114.833,118.833 117.5,118.5 Z"/></g>
<g><path style="opacity:0.016" fill="#000000" d="M 126.5,118.5 C 127.833,119.167 127.833,119.167 126.5,118.5 Z"/></g>
<g><path style="opacity:0.015" fill="#000000" d="M 18.5,120.5 C 18.5,120.167 18.5,119.833 18.5,119.5C 37.1667,119.833 37.1667,120.167 18.5,120.5 Z"/></g>
<g><path style="opacity:0.015" fill="#000000" d="M 47.5,120.5 C 49.6282,119.371 51.9615,119.204 54.5,120C 52.1902,120.497 49.8568,120.663 47.5,120.5 Z"/></g>
<g><path style="opacity:0.015" fill="#000000" d="M 62.5,120.5 C 63.9464,119.387 65.6131,119.22 67.5,120C 65.8659,120.494 64.1992,120.66 62.5,120.5 Z"/></g>
<g><path style="opacity:0.014" fill="#000000" d="M 78.5,119.5 C 76.7116,120.622 74.7116,120.789 72.5,120C 74.4727,119.505 76.4727,119.338 78.5,119.5 Z"/></g>
<g><path style="opacity:0.016" fill="#000000" d="M 89.5,119.5 C 88.0536,120.613 86.3869,120.78 84.5,120C 86.1341,119.506 87.8008,119.34 89.5,119.5 Z"/></g>
<g><path style="opacity:0.014" fill="#000000" d="M 94.5,119.5 C 96.5273,119.338 98.5273,119.505 100.5,120C 98.2884,120.789 96.2884,120.622 94.5,119.5 Z"/></g>
<g><path style="opacity:0.014" fill="#000000" d="M 106.5,120.5 C 108.288,119.378 110.288,119.211 112.5,120C 110.527,120.495 108.527,120.662 106.5,120.5 Z"/></g>
<g><path style="opacity:0.013" fill="#000000" d="M 117.5,119.5 C 120.187,119.336 122.854,119.503 125.5,120C 122.633,120.801 119.966,120.634 117.5,119.5 Z"/></g>
<g><path style="opacity:0.004" fill="#000000" d="M 18.5,120.5 C 17.0536,121.613 15.3869,121.78 13.5,121C 15.1341,120.506 16.8008,120.34 18.5,120.5 Z"/></g>
</svg>
