<?xml version="1.0" encoding="utf-8"?>
<!-- Generator: Adobe Illustrator 23.0.6, SVG Export Plug-In . SVG Version: 6.00 Build 0)  -->
<svg xmlns="http://www.w3.org/2000/svg" xmlns:xlink="http://www.w3.org/1999/xlink" version="1.1" id="Layer_1" x="0px" y="0px" viewBox="0 0 739.9 615.7" style="enable-background:new 0 0 739.9 615.7;" xml:space="preserve" preserveAspectRatio="xMidYMid meet" width="174.2357723577236" height="145.0">
<style type="text/css">
	.st0{fill:#FFFFFF;}
	.st1{fill:#0033A1;}
	.st2{fill:#2C9942;}
</style>
<g>
	<path class="st0" d="M372.9,615.7c-62-0.3-127.1-13.9-188.5-43.7c-42.6-20.7-80.5-48-112.2-83.4c-31-34.7-53.4-74.1-64.7-119.5
		c-7.3-29.5-9.4-59.3-5.9-89.5c6-52.7,27-99.1,60.1-140.1c35.6-44.1,80.2-76.4,131.4-100c36.9-17,75.6-28.1,115.7-34.2
		c31.6-4.8,63.4-6.5,95.3-4.6c77.4,4.5,149.5,25.9,214.5,68.8c42,27.7,76.8,62.5,102.5,106c7,11.8,13,24.2,18.2,36.9
		c0.9,2.2,0.6,2.9-1.8,3.5c-52.5,12.1-105,24.2-157.5,36.4c-2.6,0.6-3.6,0.2-4.8-2.4c-14.7-32.5-38.3-57.1-68.2-76
		c-29-18.3-60.7-29.1-94.6-33.5c-47.8-6.1-93.9,0-137.8,20.4c-31.8,14.8-58.7,35.8-78.7,65c-19.2,28.2-28.3,59.3-25.6,93.4
		c2.4,30.3,14,57,32.8,80.6c25.4,31.7,58.4,52.4,96.6,65.2c33.2,11.1,67.3,14.7,102.2,11.5c40.6-3.7,78.2-16.1,111.9-39.2
		c26.7-18.3,47.8-41.7,61.3-71.4c0.7-1.6,1.4-2,3.1-1.6c53.1,12.3,106.2,24.6,159.3,36.7c2.2,0.5,2,1.3,1.3,3
		c-11.8,29-28.1,55.3-48.5,79c-40.9,47.6-91.7,80.8-149.9,103.3c-32.4,12.5-65.9,20.8-100.4,25.3
		C419.9,614.3,399.5,615.7,372.9,615.7z M708.9,198.8c-0.4-1-0.8-1.8-1.2-2.6c-6-11.7-12.9-22.9-20.6-33.6
		c-30.1-41.8-68.8-73.5-114.1-97.5C516.8,35.5,456.4,20.9,393,18.7c-38.3-1.3-76.2,2.3-113.4,11.2c-60.1,14.3-114.5,40.1-161.3,80.8
		c-31.3,27.2-56.4,59.2-73.6,97c-19.5,43.1-26.2,88-19.4,134.9c4.9,33.5,16.6,64.6,34.3,93.4c25.4,41.5,59.6,74.2,100.5,100
		c62.8,39.6,131.9,58.4,205.7,60.9c27.3,0.9,54.5-0.9,81.5-5.1c40.1-6.4,78.6-18,115.1-36c52.1-25.6,96.1-60.8,129-109
		c6.3-9.2,11.9-18.8,17-29c-5-1.1-9.7-2.2-14.4-3.3c-35.4-8.2-70.9-16.3-106.3-24.6c-1.7-0.4-2.5,0-3.3,1.4
		c-1.3,2.2-2.7,4.4-4.2,6.5c-20.1,29.3-46.6,51.3-78.1,67.4c-46.8,24-96.6,32.4-148.7,27.9c-26.4-2.3-52-8.2-76.6-18.2
		c-38.8-15.8-72.1-39.1-96.6-73.5c-30.6-43.1-39.4-90.2-23.6-141.1c11-35.3,32.8-63.4,61.6-86.1c40.5-32,87.2-48.1,138.2-52.4
		c21.4-1.8,42.8-1,64,2.2c32.5,4.9,63.2,15,91.6,31.5c29.4,17.1,54,39.3,72.1,68.3c1.4,2.3,2.6,2.9,5.4,2.3
		c23.8-5.6,47.6-11.1,71.4-16.6C677,206.2,692.8,202.5,708.9,198.8z"/>
	<path class="st0" d="M562.7,294.4L562.7,294.4c-0.8-10.5-1.9-21.6-6.3-32.6c-8.3-20.3-24.2-34.7-47.3-42.5
		c-12.4-4.2-25.7-6.4-39.3-6.4c0,0,0,0,0,0c-11.7,0-23.7,1.5-36.6,4.6c-32.9,7.9-61.4,24.7-84.7,49.9c-5.1,5.5-10.5,11.4-16.6,18
		L314,304.9l5.6-25.7c3.7-16.8-2-31.8-7.4-43c-2.3-4.9-7.3-10-12.3-10.5h-12.1c0.3,6.7-0.4,16.1-5.3,22.7c-3.4,4.6-8.2,7.3-14.1,7.9
		l-4.3,0.5l-2.3-3.6c-0.2-0.2-0.7-0.9-1.1-1.4c-5.9-7.1-15.2-16.3-16.1-23.8c-0.5-4.1,3.8-16.2,3.8-16.2l-14-0.3
		c-12.9,0.7-19.3,6.4-22,9.8c-6.1,7.6-9.8,17.1-11.3,29c-1.2,8.9-1.8,20.6,4.1,31.8c3.3,6.4,7.6,12.3,12.7,17.6l2,2l0,2.8
		c0,5.8,0.5,11.3,1.5,16.7c1.8,10.3,5.5,25.3,16.7,37.3c9.4,10.1,20.2,17.9,31.9,23.2c11.9,5.4,24.9,8.2,38.7,8.5
		c2.3,0,4.7,0.1,7.3,0.1c5.1,0,10.2-0.1,15.4-0.2l3.2-0.1l13.7,15.2c2.9,3.2,6.5,5.1,11.1,5.8l0.1,0c11.7,1.9,23.2-0.1,33.8-5.9
		c1.7-0.9,3.4-1.9,5.1-2.9l4.6-2.7l3.9,3.6c2.9,2.7,6.7,4.2,10.8,4.2c1.6,0,2.8-0.2,3.7-0.4l0.3,0c15.4-2.6,27.6-9,36.5-19.2
		l2.1-2.4l3.2,0c4.2,0,8.3,0,12.1,0h6.4c4.2,0,8.3,0,12.5,0h0.3c3.5,0,8.3-0.1,13.3-0.7c16.9-2,30.1-6.2,41.6-13.1
		c1.7-1,3.4-2.2,5.5-3.6c4.7-3.2,6.3-7.3,6.8-10.2l0.2-1.3l0.3-0.4C563.7,348.7,563.5,304.9,562.7,294.4z"/>
	<path class="st1" d="M550.3,345.5c-1.3-5.5-1.6-11.1-1.6-16.8c-0.1-11.1,0.3-22.2-0.6-33.2c-0.7-9.6-1.6-19.1-5.3-28.1
		c-7.2-17.7-21-28.2-38.5-34.2c-22.4-7.6-45.1-6.9-67.8-1.4c-30.4,7.3-56.2,22.7-77.4,45.6c-9.8,10.5-19.5,21.2-29.1,31.8
		c-13,14.3-29.1,20.8-48.4,19.2c-5.2-0.4-10.3-1.3-14.9-3.9c-5.4-3.1-7.9-7.7-7.5-14c0.1-1.9,0.8-2.6,2.7-2.7
		c4.4-0.3,8.7-1.2,13.1-1.9c18.2-2.8,26.9-14.2,30.3-29.4c2.7-12-1.1-23.2-6.2-33.9c0-0.1-0.3,0-0.5-0.1c-0.3,1.2-0.6,2.4-0.9,3.6
		c-3.4,13.3-10.4,23.2-24.7,26.4c-2.9,0.7-5.9,1.4-8.9,1.4c-2.3,0-2.9,0.8-2.8,3.1c0.2,5.2-1.1,10-6,13.5c0.1-0.7,0.1-1.1,0.2-1.5
		c3.4-11,2.2-21.1-5.2-30.2c-3.8-4.7-7.5-9.6-11.2-14.5c-2-2.6-3.9-5.3-4.6-8.6c-1-4.5-1.5-8.9,1.3-13.5c-5.5,0.3-9.1,4.5-12.1,8.3
		c-5.1,6.4-7.2,13.9-8.3,21.8c-1,7.9-1.3,15.7,2.6,23.1c3.7,7,8.6,13,14.5,18.2c1.6,1.4,2.2,2.7,2,4.8c-0.3,6.9-0.1,13.7,1.1,20.5
		c1.9,11,5.2,21.5,12.9,29.8c16.2,17.3,36.4,26.6,60.2,27c14.6,0.3,29.3-0.5,44-0.3c4.8,0.1,7.4-1.1,9.4-5.9
		c3.3-8,13.9-13.4,22.4-12.1c-1.3,0.6-2.3,1-3.3,1.4c-4.7,2.1-9.2,4.4-12.8,8c-2.6,2.6-4.2,5.7-3.6,9.6c1.1,7.3,1.4,14.4-5.9,19.1
		c0.8,0.9,1.8,1,2.7,1.1c8.7,1.4,16.8-0.1,24.5-4.3c9.8-5.4,19-11.7,27.9-18.5c1.5-1.1,2.1-1,2.9,0.6c2.6,5.2,3,10.4,0.1,15.6
		c-0.4,0.7-1,1.6-0.4,2.3c0.5,0.6,1.4,0.3,2.2,0.1c13.6-2.2,24.9-8.1,32.3-20.2c0.9-1.4,1.9-1.7,3.4-1.7c13.2,0,26.5,0,39.7,0
		c3.9,0,7.9-0.1,11.8-0.6c12.6-1.5,24.7-4.5,35.7-11.1c1.6-1,3.2-2,4.7-3.1c0.4-0.3,1-0.7,0.8-1.3c-0.2-0.7-0.9-0.4-1.5-0.5
		c-0.7-0.1-1.3,0-2,0c-26,0-52.1,0-78.1,0c-1.9,0-3.7-0.2-5.6-0.7c-8-1.9-14.1-6.9-19.8-12.4c-5.2-5.1-5.2-5-0.2-10.2
		c1.3-1.3,1.9-1.4,3.3-0.1c3.8,3.7,7.9,7.2,11.8,10.9c5.1,5,11,6.9,18.3,6.8c24.7-0.4,49.4-0.2,74.1-0.1
		C550.3,348.3,550.8,347.8,550.3,345.5z M465.1,320.3c-8.9-5.1-13.5-5.3-23.5-1.1c0.5-3.8,1.8-7.1,3.9-10.1c3.1-4.3,7.6-5.6,13-3.9
		c4.6,1.4,7.1,4.9,7.3,10.2C465.8,317,465.8,318.7,465.1,320.3z"/>
	<path class="st0" d="M647.9,582.1c1.4-3.9,2.8-7.4,3.8-10.9c0.9-3.1,3.2-2,5-2.1c2.3-0.1,1.3,1.8,1.5,2.8c0.5,4.3,0.8,8.7,1.1,13.1
		c0.1,1.2,1,2.9-1.6,3c-2.2,0.1-2.1-1.2-2.2-2.6c-0.2-3.8-0.5-7.7-1.4-11.6c-1.3,3.9-2.6,7.8-3.8,11.7c-0.5,1.5-1.1,2.2-2.9,2.2
		c-1.7,0-2.2-0.8-2.6-2.2c-1.2-4-2.5-8-4.2-12c-0.2,3.8-0.5,7.7-0.7,11.5c-0.1,1.5,0.2,3-2.2,2.9c-2.6-0.1-1.5-1.8-1.4-3
		c0.3-4.5,0.6-8.9,0.9-13.4c0.1-1-0.4-2.8,1.6-2.5c1.7,0.3,4-1.3,5,1.7C645,574.5,646.4,578,647.9,582.1z"/>
	<path class="st0" d="M626.9,569.1c2.1,0,4.2,0,6.3,0c1,0,2-0.1,2,1.5c0,1.3-0.6,1.6-1.8,1.7c-4.5,0.3-4.5,0.3-4.5,4.9
		c0,3-0.1,6,0,8.9c0,1.4-0.3,2-1.8,1.9c-1.4,0-2-0.4-1.9-1.9c0.1-3.5-0.1-7,0.1-10.4c0.1-2.6-0.4-4-3.3-3.5c-0.4,0.1-0.8,0-1.2,0
		c-1.3,0.1-1.8-0.4-1.8-1.7c0-1.3,0.7-1.4,1.7-1.4C622.7,569.1,624.8,569.1,626.9,569.1z"/>
	<path class="st1" d="M708.9,198.8c-16.1,3.7-31.9,7.4-47.8,11c-23.8,5.5-47.6,11-71.4,16.6c-2.7,0.6-3.9,0-5.4-2.3
		c-18-29.1-42.7-51.3-72.1-68.3c-28.5-16.5-59.1-26.6-91.6-31.5c-21.3-3.2-42.6-4-64-2.2c-51,4.3-97.7,20.4-138.2,52.4
		c-28.8,22.7-50.6,50.8-61.6,86.1c-15.8,50.8-7,98,23.6,141.1c24.5,34.4,57.8,57.7,96.6,73.5c24.6,10,50.1,16,76.6,18.2
		c52.2,4.5,101.9-3.9,148.7-27.9c31.4-16.1,58-38.1,78.1-67.4c1.5-2.1,2.9-4.3,4.2-6.5c0.8-1.4,1.6-1.8,3.3-1.4
		c35.4,8.3,70.9,16.4,106.3,24.6c4.7,1.1,9.5,2.2,14.4,3.3c-5.1,10.2-10.8,19.8-17,29c-33,48.2-77,83.4-129,109
		c-36.5,17.9-74.9,29.6-115.1,36c-27,4.3-54.2,6.1-81.5,5.1c-73.8-2.5-142.9-21.4-205.7-60.9c-40.9-25.8-75.1-58.6-100.5-100
		c-17.7-28.8-29.4-59.9-34.3-93.4c-6.8-46.8-0.2-91.8,19.4-134.9c17.2-37.9,42.3-69.9,73.6-97C165.1,70.1,219.5,44.3,279.6,30
		c37.3-8.9,75.2-12.5,113.4-11.2c63.4,2.1,123.7,16.8,180.1,46.5c45.3,23.9,84,55.7,114.1,97.5c7.7,10.7,14.5,21.9,20.6,33.6
		C708.1,197.1,708.4,197.9,708.9,198.8z M677.3,431.4c-26.5-6.1-52.6-12.2-78.8-18.2c-1.5-0.4-2.5-0.1-3.5,1.3
		c-20.2,26.9-45.5,47.8-74.9,63.8c-50.8,27.5-105.3,38-162.7,34.3c-27.3-1.8-53.8-7.1-79.5-16.3c-41.3-14.7-77.5-37.4-106.4-70.8
		c-25.2-29.1-40.9-62.7-44.7-101.2c-3.1-31.2,2.4-61.1,15.8-89.4c17.3-36.7,44.2-64.9,77.9-86.9c42.8-27.9,90.3-41.9,141-44.8
		c38.5-2.2,76.3,2.4,113,14.8c48.7,16.4,90.2,43.3,121.4,84.8c1,1.3,1.9,1.4,3.3,1.1c25.2-5.9,50.3-11.7,75.5-17.4
		c2.8-0.6,3.1-1.1,1.5-3.6c-22.3-34.6-51.2-62.7-85.4-85.3c-56.8-37.5-119.7-56.5-187.3-60.7c-29-1.8-57.9-0.4-86.7,4
		c-43.8,6.7-85.4,20.1-124.4,41.4c-42.9,23.4-79.3,54.2-106.9,94.8c-24.6,36-38.9,75.7-41.2,119.4c-2.1,40.5,6.4,78.9,24.7,115
		c19.8,39,48.1,70.8,83.1,96.8c55.6,41.3,118.6,63.1,187,70c27.7,2.8,55.5,2.5,83.2-0.4c33.4-3.5,65.9-11,97.3-22.9
		c50.8-19.3,95.3-47.8,131.6-88.6C660.9,455.3,669.5,443.9,677.3,431.4z"/>
	<path class="st2" d="M677.3,431.4c-7.8,12.5-16.4,24-26,34.7c-36.3,40.8-80.8,69.4-131.6,88.6c-31.4,11.9-63.9,19.3-97.3,22.9
		c-27.7,2.9-55.5,3.2-83.2,0.4c-68.5-6.9-131.4-28.7-187-70c-35-26-63.3-57.8-83.1-96.8c-18.4-36.2-26.8-74.5-24.7-115
		c2.3-43.7,16.6-83.4,41.2-119.4c27.6-40.6,64.1-71.4,106.9-94.8c38.9-21.3,80.5-34.7,124.4-41.4c28.8-4.4,57.7-5.8,86.7-4
		c67.6,4.3,130.5,23.2,187.3,60.7c34.2,22.6,63.1,50.7,85.4,85.3c1.6,2.4,1.3,2.9-1.5,3.6c-25.2,5.7-50.4,11.6-75.5,17.4
		c-1.4,0.3-2.3,0.2-3.3-1.1c-31.2-41.5-72.7-68.4-121.4-84.8c-36.7-12.3-74.4-17-113-14.8c-50.8,2.9-98.2,16.9-141,44.8
		c-33.7,22-60.6,50.2-77.9,86.9c-13.4,28.3-18.8,58.2-15.8,89.4c3.8,38.6,19.5,72.1,44.7,101.2c28.9,33.4,65,56.1,106.4,70.8
		c25.7,9.2,52.3,14.5,79.5,16.3c57.4,3.7,111.9-6.7,162.7-34.3c29.4-16,54.7-36.9,74.9-63.8c1-1.4,1.9-1.7,3.5-1.3
		C624.7,419.2,650.8,425.2,677.3,431.4z"/>
</g>
</svg>
