<?xml version="1.0" encoding="UTF-8"?>
<!DOCTYPE svg PUBLIC "-//W3C//DTD SVG 1.1//EN" "http://www.w3.org/Graphics/SVG/1.1/DTD/svg11.dtd">
<svg xmlns="http://www.w3.org/2000/svg" version="1.1" width="130px" height="145px" style="shape-rendering:geometricPrecision; text-rendering:geometricPrecision; image-rendering:optimizeQuality; fill-rule:evenodd; clip-rule:evenodd" xmlns:xlink="http://www.w3.org/1999/xlink">
<g><path style="opacity:0.012" fill="#253d52" d="M 62.5,4.5 C 63.2506,3.42654 64.2506,3.25988 65.5,4C 64.552,4.48278 63.552,4.64945 62.5,4.5 Z"/></g>
<g><path style="opacity:0.004" fill="#263e52" d="M 67.5,4.5 C 68.9464,3.38705 70.6131,3.22039 72.5,4C 70.8659,4.49351 69.1992,4.66018 67.5,4.5 Z"/></g>
<g><path style="opacity:0.008" fill="#00021e" d="M 62.5,4.5 C 62.5,4.83333 62.5,5.16667 62.5,5.5C 61.8299,5.01865 61.8299,4.68532 62.5,4.5 Z"/></g>
<g><path style="opacity:0.004" fill="#999ca4" d="M 59.5,5.5 C 60.8333,6.16667 60.8333,6.16667 59.5,5.5 Z"/></g>
<g><path style="opacity:0.012" fill="#122d43" d="M 59.5,6.5 C 58.7494,7.57346 57.7494,7.74012 56.5,7C 57.448,6.51722 58.448,6.35055 59.5,6.5 Z"/></g>
<g><path style="opacity:1" fill="#ca152c" d="M 64.5,7.5 C 67.941,7.30108 71.2744,7.80108 74.5,9C 71.5,10.6667 68.5,12.3333 65.5,14C 63.0709,14.7033 60.7375,14.5366 58.5,13.5C 58.7822,12.2223 59.4489,11.2223 60.5,10.5C 61.2623,8.73758 62.5956,7.73758 64.5,7.5 Z"/></g>
<g><path style="opacity:0.008" fill="#07162d" d="M 83.5,11.5 C 82.448,11.6495 81.448,11.4828 80.5,11C 81.7494,10.2599 82.7494,10.4265 83.5,11.5 Z"/></g>
<g><path style="opacity:0.984" fill="#bf1a31" d="M 57.5,10.5 C 56.1767,12.6824 54.5101,13.3491 52.5,12.5C 54.0495,11.5592 55.7162,10.8925 57.5,10.5 Z"/></g>
<g><path style="opacity:0.008" fill="#032039" d="M 83.5,11.5 C 84.8333,12.1667 84.8333,12.1667 83.5,11.5 Z"/></g>
<g><path style="opacity:1" fill="#b71b31" d="M 76.5,12.5 C 69.503,15.0066 62.503,17.6732 55.5,20.5C 57.79,16.2096 61.4566,14.3762 66.5,15C 68.3325,14.2515 69.9991,13.2515 71.5,12C 73.3869,11.2204 75.0536,11.3871 76.5,12.5 Z"/></g>
<g><path style="opacity:1" fill="#34283e" d="M 64.5,7.5 C 66.9479,6.52693 69.6146,6.1936 72.5,6.5C 73.8734,6.34332 75.2068,6.50999 76.5,7C 77.8333,8 77.8333,9 76.5,10C 78.441,11.9028 80.7743,12.7361 83.5,12.5C 83.5,12.8333 83.5,13.1667 83.5,13.5C 81.7376,13.3573 80.0709,13.6906 78.5,14.5C 77.4777,14.1445 76.811,13.4778 76.5,12.5C 75.0536,11.3871 73.3869,11.2204 71.5,12C 69.9991,13.2515 68.3325,14.2515 66.5,15C 61.4566,14.3762 57.79,16.2096 55.5,20.5C 51.2315,21.3726 46.8982,21.7059 42.5,21.5C 40.9581,20.8365 39.2914,20.1698 37.5,19.5C 37.6236,18.8933 37.9569,18.56 38.5,18.5C 43.6503,19.6507 48.9836,19.8174 54.5,19C 55.727,17.4126 55.3937,16.0793 53.5,15C 50.854,14.5026 48.1873,14.3359 45.5,14.5C 47.7146,13.7321 50.0479,13.0654 52.5,12.5C 54.5101,13.3491 56.1767,12.6824 57.5,10.5C 58.3478,9.37505 59.3478,9.37505 60.5,10.5C 59.4489,11.2223 58.7822,12.2223 58.5,13.5C 60.7375,14.5366 63.0709,14.7033 65.5,14C 68.5,12.3333 71.5,10.6667 74.5,9C 71.2744,7.80108 67.941,7.30108 64.5,7.5 Z"/></g>
<g><path style="opacity:0.998" fill="#0c263d" d="M 76.5,12.5 C 76.811,13.4778 77.4777,14.1445 78.5,14.5C 80.0709,13.6906 81.7376,13.3573 83.5,13.5C 84.1174,13.6107 84.6174,13.944 85,14.5C 85.567,17.1677 86.067,19.8344 86.5,22.5C 85.6618,22.8417 85.3284,23.5084 85.5,24.5C 83.9864,28.4153 82.6531,32.5819 81.5,37C 83.8614,38.3383 86.1947,38.1717 88.5,36.5C 92.2881,38.2432 96.2881,39.5766 100.5,40.5C 101.919,41.4511 103.585,41.7845 105.5,41.5C 105.5,52.1667 105.5,62.8333 105.5,73.5C 104.527,75.9479 104.194,78.6146 104.5,81.5C 103.833,81.5 103.5,81.8333 103.5,82.5C 102.034,83.347 101.2,84.6803 101,86.5C 100.826,81.3165 100.326,76.3165 99.5,71.5C 100.247,61.558 99.0801,51.8914 96,42.5C 94.1552,40.9126 92.1552,39.5792 90,38.5C 87.2764,39.6868 84.4431,40.3535 81.5,40.5C 81.3118,42.1033 81.8118,43.4366 83,44.5C 83.3333,43.8333 83.6667,43.1667 84,42.5C 84.6667,43.8333 85.3333,43.8333 86,42.5C 86.4828,43.448 86.6495,44.448 86.5,45.5C 84.4086,45.6816 82.4086,45.3482 80.5,44.5C 79.4173,45.365 79.2506,46.365 80,47.5C 82.3968,50.4 85.2302,52.7333 88.5,54.5C 90.3957,53.3606 91.3957,54.0272 91.5,56.5C 89.2009,65.7017 87.5342,75.0351 86.5,84.5C 85.2437,88.2557 84.2437,87.9223 83.5,83.5C 81.3083,81.545 78.975,81.2117 76.5,82.5C 77.881,80.7259 77.5477,79.2259 75.5,78C 73.3225,76.7978 70.9892,76.2978 68.5,76.5C 67.7281,75.3065 66.7281,74.3065 65.5,73.5C 62.2486,69.6299 61.9152,65.6299 64.5,61.5C 64.8333,60.1667 65.1667,58.8333 65.5,57.5C 67.099,57.2322 68.4324,57.5655 69.5,58.5C 68.5,58.5 67.5,58.5 66.5,58.5C 66.4609,60.3588 67.2942,61.6921 69,62.5C 69.3333,66.5 69.6667,70.5 70,74.5C 70.2819,70.9605 70.7819,67.4605 71.5,64C 70.8464,62.013 69.513,60.6797 67.5,60C 70.7916,59.9964 73.4582,58.8297 75.5,56.5C 77.2726,55.6857 77.7726,54.3524 77,52.5C 76.6232,53.9423 75.7899,54.9423 74.5,55.5C 76.4838,49.9388 78.1505,44.2721 79.5,38.5C 79.2547,36.3367 78.2547,34.67 76.5,33.5C 75.5723,35.3348 74.4056,35.6682 73,34.5C 72.5172,35.448 72.3505,36.448 72.5,37.5C 71.2973,36.0575 70.7973,34.3908 71,32.5C 73.1788,33.2611 75.3455,32.9278 77.5,31.5C 75.9793,31.1203 74.3126,30.9536 72.5,31C 73.5786,30.044 74.7453,29.2106 76,28.5C 76.6172,27.5509 76.4506,26.7175 75.5,26C 70.6535,25.1143 66.1535,23.6143 62,21.5C 59.7002,21.4944 57.5336,21.9944 55.5,23C 53.9314,27.6419 51.9314,32.1419 49.5,36.5C 49.5288,38.0293 50.1955,39.196 51.5,40C 49.5,40.6667 47.5,41.3333 45.5,42C 47.5723,44.1485 49.4056,43.9818 51,41.5C 51.4135,45.6541 52.9135,49.3207 55.5,52.5C 53.9256,52.0629 52.7589,51.0629 52,49.5C 51.6174,50.056 51.1174,50.3893 50.5,50.5C 46.446,50.7895 45.946,50.1229 49,48.5C 49.6917,47.5632 49.525,46.8966 48.5,46.5C 41.5501,41.7553 40.7168,36.422 46,30.5C 49.0334,26.9685 52.2,23.6352 55.5,20.5C 62.503,17.6732 69.503,15.0066 76.5,12.5 Z"/></g>
<g><path style="opacity:1" fill="#c3192f" d="M 58.5,13.5 C 58.0478,16.6741 57.0478,17.0075 55.5,14.5C 56.325,13.6143 57.325,13.281 58.5,13.5 Z"/></g>
<g><path style="opacity:0.006" fill="#04142b" d="M 86.5,14.5 C 87.5983,15.6009 87.765,16.9343 87,18.5C 86.51,17.2068 86.3433,15.8734 86.5,14.5 Z"/></g>
<g><path style="opacity:1" fill="#ce132b" d="M 45.5,14.5 C 48.1873,14.3359 50.854,14.5026 53.5,15C 55.3937,16.0793 55.727,17.4126 54.5,19C 48.9836,19.8174 43.6503,19.6507 38.5,18.5C 40.3403,16.3311 42.6737,14.9977 45.5,14.5 Z"/></g>
<g><path style="opacity:0.008" fill="#15263d" d="M 34.5,20.5 C 33.475,20.1034 33.3083,19.4368 34,18.5C 34.4643,19.0944 34.631,19.7611 34.5,20.5 Z"/></g>
<g><path style="opacity:0.01" fill="#374e60" d="M 87.5,22.5 C 87.3505,21.448 87.5172,20.448 88,19.5C 88.7401,20.7494 88.5735,21.7494 87.5,22.5 Z"/></g>
<g><path style="opacity:0.004" fill="#374b5e" d="M 86.5,22.5 C 86.8333,22.5 87.1667,22.5 87.5,22.5C 87.6716,23.4916 87.3382,24.1583 86.5,24.5C 86.5,23.8333 86.5,23.1667 86.5,22.5 Z"/></g>
<g><path style="opacity:0.004" fill="#566876" d="M 85.5,24.5 C 85.8333,24.5 86.1667,24.5 86.5,24.5C 86.3147,25.1701 85.9813,25.1701 85.5,24.5 Z"/></g>
<g><path style="opacity:0.016" fill="#3c5364" d="M 35.5,24.5 C 35.56,23.9569 35.8933,23.6236 36.5,23.5C 37.6139,24.723 37.7805,26.0563 37,27.5C 36.7679,26.2625 36.2679,25.2625 35.5,24.5 Z"/></g>
<g><path style="opacity:0.012" fill="#122e44" d="M 85.5,25.5 C 84.8333,26.1667 84.8333,26.1667 85.5,25.5 Z"/></g>
<g><path style="opacity:1" fill="#ca152c" d="M 55.5,20.5 C 52.2,23.6352 49.0334,26.9685 46,30.5C 40.7168,36.422 41.5501,41.7553 48.5,46.5C 48.189,47.4778 47.5223,48.1445 46.5,48.5C 38.3665,44.8032 36.1999,38.8032 40,30.5C 41.9827,29.2343 42.9827,27.5676 43,25.5C 41.6325,27.8146 40.7991,27.8146 40.5,25.5C 40.7517,23.9271 41.4183,22.5938 42.5,21.5C 46.8982,21.7059 51.2315,21.3726 55.5,20.5 Z"/></g>
<g><path style="opacity:0.004" fill="#000c28" d="M 37.5,30.5 C 36.8333,29.1667 36.8333,29.1667 37.5,30.5 Z"/></g>
<g><path style="opacity:0.008" fill="#192130" d="M 84.5,30.5 C 85.5983,31.6009 85.765,32.9343 85,34.5C 84.51,33.2068 84.3433,31.8734 84.5,30.5 Z"/></g>
<g><path style="opacity:0.012" fill="#21394f" d="M 36.5,30.5 C 36.6621,32.5273 36.4955,34.5273 36,36.5C 35.2109,34.2884 35.3775,32.2884 36.5,30.5 Z"/></g>
<g><path style="opacity:0.008" fill="#2f4558" d="M 89.5,35.5 C 90.2506,34.4265 91.2506,34.2599 92.5,35C 91.552,35.4828 90.552,35.6495 89.5,35.5 Z"/></g>
<g><path style="opacity:0.012" fill="#2a3a4d" d="M 88.5,36.5 C 87.448,36.6495 86.448,36.4828 85.5,36C 86.7494,35.2599 87.7494,35.4265 88.5,36.5 Z"/></g>
<g><path style="opacity:1" fill="#c4c6c9" d="M 72.5,37.5 C 72.7031,39.0443 73.3698,40.3777 74.5,41.5C 73.1667,42.1667 71.8333,42.8333 70.5,43.5C 71.2427,44.1818 71.9094,44.8485 72.5,45.5C 70.901,45.2322 69.5676,45.5655 68.5,46.5C 67.8333,46.5 67.5,46.8333 67.5,47.5C 64.8333,48.1667 64.8333,48.8333 67.5,49.5C 67.9321,50.7095 68.5987,51.7095 69.5,52.5C 70.5,52.5 71.5,52.5 72.5,52.5C 72.5,53.5 72.5,54.5 72.5,55.5C 71.2067,56.1582 69.7067,56.4915 68,56.5C 64.7181,56.2693 61.5514,55.6026 58.5,54.5C 58.0269,53.0937 57.0269,52.427 55.5,52.5C 52.9135,49.3207 51.4135,45.6541 51,41.5C 49.4056,43.9818 47.5723,44.1485 45.5,42C 47.5,41.3333 49.5,40.6667 51.5,40C 50.1955,39.196 49.5288,38.0293 49.5,36.5C 51.9314,32.1419 53.9314,27.6419 55.5,23C 57.5336,21.9944 59.7002,21.4944 62,21.5C 66.1535,23.6143 70.6535,25.1143 75.5,26C 76.4506,26.7175 76.6172,27.5509 76,28.5C 74.7453,29.2106 73.5786,30.044 72.5,31C 74.3126,30.9536 75.9793,31.1203 77.5,31.5C 75.3455,32.9278 73.1788,33.2611 71,32.5C 70.7973,34.3908 71.2973,36.0575 72.5,37.5 Z"/></g>
<g><path style="opacity:1" fill="#415465" d="M 58.5,32.5 C 61.1569,32.162 63.4902,32.8287 65.5,34.5C 63.9815,33.983 62.6482,34.6496 61.5,36.5C 59.9974,35.9478 58.3307,35.9478 56.5,36.5C 56.5271,34.8007 57.1938,33.4674 58.5,32.5 Z"/></g>
<g><path style="opacity:1" fill="#1f3248" d="M 57.5,28.5 C 60.8988,29.0164 64.2321,29.8497 67.5,31C 67,31.5 66.5,32 66,32.5C 61.802,29.6371 57.9687,29.9705 54.5,33.5C 54.1667,33.3333 53.8333,33.1667 53.5,33C 55.0414,31.6288 56.3747,30.1288 57.5,28.5 Z"/></g>
<g><path style="opacity:0.012" fill="#344a5c" d="M 33.5,38.5 C 33.8966,37.475 34.5632,37.3083 35.5,38C 34.9056,38.4643 34.2389,38.631 33.5,38.5 Z"/></g>
<g><path style="opacity:1" fill="#8f989e" d="M 74.5,55.5 C 73.8333,55.5 73.1667,55.5 72.5,55.5C 72.5,54.5 72.5,53.5 72.5,52.5C 71.5,52.5 70.5,52.5 69.5,52.5C 70.9002,51.8999 71.9002,50.8999 72.5,49.5C 72.8333,49.5 73.1667,49.5 73.5,49.5C 76.2178,47.5774 75.8845,46.244 72.5,45.5C 71.9094,44.8485 71.2427,44.1818 70.5,43.5C 71.8333,42.8333 73.1667,42.1667 74.5,41.5C 73.3698,40.3777 72.7031,39.0443 72.5,37.5C 72.3505,36.448 72.5172,35.448 73,34.5C 74.4056,35.6682 75.5723,35.3348 76.5,33.5C 78.2547,34.67 79.2547,36.3367 79.5,38.5C 78.1505,44.2721 76.4838,49.9388 74.5,55.5 Z"/></g>
<g><path style="opacity:0.016" fill="#1f3343" d="M 32.5,39.5 C 30.8008,39.6602 29.1341,39.4935 27.5,39C 29.3869,38.2204 31.0536,38.3871 32.5,39.5 Z"/></g>
<g><path style="opacity:0.008" fill="#1e364b" d="M 22.5,40.5 C 23.6009,39.4017 24.9343,39.235 26.5,40C 25.2068,40.49 23.8734,40.6567 22.5,40.5 Z"/></g>
<g><path style="opacity:0.008" fill="#233849" d="M 100.5,40.5 C 101.601,39.4017 102.934,39.235 104.5,40C 103.207,40.49 101.873,40.6567 100.5,40.5 Z"/></g>
<g><path style="opacity:0.963" fill="#05243c" d="M 32.5,39.5 C 33.791,39.2627 34.791,39.596 35.5,40.5C 35.3284,41.4916 35.6618,42.1583 36.5,42.5C 36.5,42.8333 36.5,43.1667 36.5,43.5C 36.5,44.1667 36.8333,44.5 37.5,44.5C 37.5,45.1667 37.8333,45.5 38.5,45.5C 38.5,46.1667 38.8333,46.5 39.5,46.5C 39.8417,47.3382 40.5084,47.6716 41.5,47.5C 41.5,47.8333 41.5,48.1667 41.5,48.5C 41.4142,49.4959 41.7476,50.3292 42.5,51C 40.6009,53.9877 38.6009,56.8211 36.5,59.5C 36.1667,59.5 35.8333,59.5 35.5,59.5C 34.8333,59.5 34.5,59.8333 34.5,60.5C 34.1667,60.5 33.8333,60.5 33.5,60.5C 32.8333,60.5 32.5,60.8333 32.5,61.5C 31.8333,61.5 31.5,61.8333 31.5,62.5C 30.8333,62.5 30.5,62.8333 30.5,63.5C 29.8333,63.5 29.5,63.8333 29.5,64.5C 28.8333,64.5 28.5,64.8333 28.5,65.5C 27.8333,65.5 27.5,65.8333 27.5,66.5C 26.8333,66.5 26.5,66.8333 26.5,67.5C 26.5,67.8333 26.5,68.1667 26.5,68.5C 25.8333,68.5 25.5,68.8333 25.5,69.5C 24.6618,69.8417 24.3284,70.5084 24.5,71.5C 24.5,72.1667 24.5,72.8333 24.5,73.5C 23.8333,73.1667 23.1667,72.8333 22.5,72.5C 22.5,62.1667 22.5,51.8333 22.5,41.5C 26.0781,41.4512 29.4115,40.7846 32.5,39.5 Z"/></g>
<g><path style="opacity:0.012" fill="#0f2940" d="M 106.5,73.5 C 106.334,63.1613 106.5,52.828 107,42.5C 107.825,53.0083 107.659,63.3416 106.5,73.5 Z"/></g>
<g><path style="opacity:0.016" fill="#07253c" d="M 20.5,42.5 C 21.6588,52.992 21.8255,63.6586 21,74.5C 20.5002,63.8385 20.3335,53.1719 20.5,42.5 Z"/></g>
<g><path style="opacity:1" fill="#8c2134" d="M 68.5,46.5 C 70.1667,46.5 71.8333,46.5 73.5,46.5C 73.5,47.5 73.5,48.5 73.5,49.5C 73.1667,49.5 72.8333,49.5 72.5,49.5C 70.8333,49.5 69.1667,49.5 67.5,49.5C 67.5,48.8333 67.5,48.1667 67.5,47.5C 67.5,46.8333 67.8333,46.5 68.5,46.5 Z"/></g>
<g><path style="opacity:1" fill="#3a4659" d="M 68.5,46.5 C 69.5676,45.5655 70.901,45.2322 72.5,45.5C 75.8845,46.244 76.2178,47.5774 73.5,49.5C 73.5,48.5 73.5,47.5 73.5,46.5C 71.8333,46.5 70.1667,46.5 68.5,46.5 Z"/></g>
<g><path style="opacity:1" fill="#4c2d40" d="M 67.5,47.5 C 67.5,48.1667 67.5,48.8333 67.5,49.5C 64.8333,48.8333 64.8333,48.1667 67.5,47.5 Z"/></g>
<g><path style="opacity:1" fill="#3a4054" d="M 67.5,49.5 C 69.1667,49.5 70.8333,49.5 72.5,49.5C 71.9002,50.8999 70.9002,51.8999 69.5,52.5C 68.5987,51.7095 67.9321,50.7095 67.5,49.5 Z"/></g>
<g><path style="opacity:1" fill="#445668" d="M 75.5,56.5 C 73.5,57.1667 71.5,57.8333 69.5,58.5C 68.4324,57.5655 67.099,57.2322 65.5,57.5C 62.6538,57.4484 60.3204,56.4484 58.5,54.5C 61.5514,55.6026 64.7181,56.2693 68,56.5C 69.7067,56.4915 71.2067,56.1582 72.5,55.5C 73.1667,55.5 73.8333,55.5 74.5,55.5C 75.7899,54.9423 76.6232,53.9423 77,52.5C 77.7726,54.3524 77.2726,55.6857 75.5,56.5 Z"/></g>
<g><path style="opacity:1" fill="#979fa3" d="M 55.5,52.5 C 57.0269,52.427 58.0269,53.0937 58.5,54.5C 60.3204,56.4484 62.6538,57.4484 65.5,57.5C 65.1667,58.8333 64.8333,60.1667 64.5,61.5C 63.8333,61.5 63.1667,61.5 62.5,61.5C 59.6336,58.4789 56.3003,55.9789 52.5,54C 51.1772,53.1841 50.5106,52.0174 50.5,50.5C 51.1174,50.3893 51.6174,50.056 52,49.5C 52.7589,51.0629 53.9256,52.0629 55.5,52.5 Z"/></g>
<g><path style="opacity:1" fill="#a8b2ba" d="M 75.5,56.5 C 73.4582,58.8297 70.7916,59.9964 67.5,60C 69.513,60.6797 70.8464,62.013 71.5,64C 70.7819,67.4605 70.2819,70.9605 70,74.5C 69.6667,70.5 69.3333,66.5 69,62.5C 67.2942,61.6921 66.4609,60.3588 66.5,58.5C 67.5,58.5 68.5,58.5 69.5,58.5C 71.5,57.8333 73.5,57.1667 75.5,56.5 Z"/></g>
<g><path style="opacity:1" fill="#00618f" d="M 57.5,96.5 C 53.8945,96.2014 50.5612,95.0347 47.5,93C 48.5,92.6667 49.5,92.3333 50.5,92C 43.1238,91.6586 36.9571,88.8253 32,83.5C 30.878,81.5932 30.0447,79.5932 29.5,77.5C 28.2075,65.957 33.2075,61.1236 44.5,63C 51.1081,64.6337 56.7748,67.8003 61.5,72.5C 60.2713,73.2811 58.938,73.7811 57.5,74C 60.4715,74.7943 63.4715,75.461 66.5,76C 63.7047,77.7932 61.2047,79.9598 59,82.5C 58.6489,87.1976 58.1489,91.8642 57.5,96.5 Z"/></g>
<g><path style="opacity:1" fill="#0b5c88" d="M 62.5,61.5 C 63.1667,61.5 63.8333,61.5 64.5,61.5C 61.9152,65.6299 62.2486,69.6299 65.5,73.5C 65.5654,73.9382 65.3988,74.2716 65,74.5C 62.9936,71.3283 60.4936,68.6617 57.5,66.5C 58.5141,63.4694 60.1807,61.8027 62.5,61.5 Z"/></g>
<g><path style="opacity:1" fill="#a1a8ab" d="M 91.5,56.5 C 92.6408,59.6399 92.8075,62.9733 92,66.5C 89.8611,72.6687 88.0277,78.6687 86.5,84.5C 87.5342,75.0351 89.2009,65.7017 91.5,56.5 Z"/></g>
<g><path style="opacity:1" fill="#cbcdcd" d="M 99.5,71.5 C 100.093,80.6626 99.2598,89.6626 97,98.5C 96.3724,103.635 93.5391,105.968 88.5,105.5C 86.5648,104.85 84.5648,104.517 82.5,104.5C 80.5242,102.989 78.1909,102.156 75.5,102C 72.459,96.7988 71.7924,91.2988 73.5,85.5C 74.8333,84.8333 75.8333,83.8333 76.5,82.5C 78.975,81.2117 81.3083,81.545 83.5,83.5C 84.2437,87.9223 85.2437,88.2557 86.5,84.5C 88.0277,78.6687 89.8611,72.6687 92,66.5C 92.8075,62.9733 92.6408,59.6399 91.5,56.5C 91.3957,54.0272 90.3957,53.3606 88.5,54.5C 85.2302,52.7333 82.3968,50.4 80,47.5C 79.2506,46.365 79.4173,45.365 80.5,44.5C 82.4086,45.3482 84.4086,45.6816 86.5,45.5C 86.6495,44.448 86.4828,43.448 86,42.5C 85.3333,43.8333 84.6667,43.8333 84,42.5C 83.6667,43.1667 83.3333,43.8333 83,44.5C 81.8118,43.4366 81.3118,42.1033 81.5,40.5C 84.4431,40.3535 87.2764,39.6868 90,38.5C 92.1552,39.5792 94.1552,40.9126 96,42.5C 99.0801,51.8914 100.247,61.558 99.5,71.5 Z"/></g>
<g><path style="opacity:0.012" fill="#16263a" d="M 105.5,73.5 C 105.833,73.5 106.167,73.5 106.5,73.5C 106.167,82.8333 105.833,82.8333 105.5,73.5 Z"/></g>
<g><path style="opacity:1" fill="#00608e" d="M 68.5,76.5 C 70.9892,76.2978 73.3225,76.7978 75.5,78C 77.5477,79.2259 77.881,80.7259 76.5,82.5C 75.8333,83.8333 74.8333,84.8333 73.5,85.5C 71.4672,86.8984 70.4672,88.8984 70.5,91.5C 70.8815,95.0277 71.8815,98.361 73.5,101.5C 70.1194,103.12 67.4527,102.287 65.5,99C 63.2922,98.8091 61.2922,98.3091 59.5,97.5C 60.0892,92.5195 60.5892,87.5195 61,82.5C 63.1141,79.8792 65.6141,77.8792 68.5,76.5 Z"/></g>
<g><path style="opacity:0.004" fill="#435567" d="M 22.5,82.5 C 21.4265,81.7494 21.2599,80.7494 22,79.5C 22.4828,80.448 22.6495,81.448 22.5,82.5 Z"/></g>
<g><path style="opacity:0.008" fill="#1a2839" d="M 104.5,81.5 C 105.598,82.6009 105.765,83.9343 105,85.5C 104.51,84.2068 104.343,82.8734 104.5,81.5 Z"/></g>
<g><path style="opacity:1" fill="#19334c" d="M 62.5,5.5 C 66.0419,5.18723 69.3752,5.52056 72.5,6.5C 69.6146,6.1936 66.9479,6.52693 64.5,7.5C 62.5956,7.73758 61.2623,8.73758 60.5,10.5C 59.3478,9.37505 58.3478,9.37505 57.5,10.5C 55.7162,10.8925 54.0495,11.5592 52.5,12.5C 50.0479,13.0654 47.7146,13.7321 45.5,14.5C 42.6737,14.9977 40.3403,16.3311 38.5,18.5C 37.9569,18.56 37.6236,18.8933 37.5,19.5C 39.2914,20.1698 40.9581,20.8365 42.5,21.5C 41.4183,22.5938 40.7517,23.9271 40.5,25.5C 40.7991,27.8146 41.6325,27.8146 43,25.5C 42.9827,27.5676 41.9827,29.2343 40,30.5C 36.1999,38.8032 38.3665,44.8032 46.5,48.5C 47.5223,48.1445 48.189,47.4778 48.5,46.5C 49.525,46.8966 49.6917,47.5632 49,48.5C 45.946,50.1229 46.446,50.7895 50.5,50.5C 50.5106,52.0174 51.1772,53.1841 52.5,54C 56.3003,55.9789 59.6336,58.4789 62.5,61.5C 60.1807,61.8027 58.5141,63.4694 57.5,66.5C 60.4936,68.6617 62.9936,71.3283 65,74.5C 65.3988,74.2716 65.5654,73.9382 65.5,73.5C 66.7281,74.3065 67.7281,75.3065 68.5,76.5C 65.6141,77.8792 63.1141,79.8792 61,82.5C 60.5892,87.5195 60.0892,92.5195 59.5,97.5C 58.8333,97.1667 58.1667,96.8333 57.5,96.5C 58.1489,91.8642 58.6489,87.1976 59,82.5C 61.2047,79.9598 63.7047,77.7932 66.5,76C 63.4715,75.461 60.4715,74.7943 57.5,74C 58.938,73.7811 60.2713,73.2811 61.5,72.5C 56.7748,67.8003 51.1081,64.6337 44.5,63C 33.2075,61.1236 28.2075,65.957 29.5,77.5C 28.6862,75.369 28.1862,73.0356 28,70.5C 27.7428,72.9065 26.5762,74.5732 24.5,75.5C 23.596,76.209 23.2627,77.209 23.5,78.5C 22.5386,76.7354 22.2053,74.7354 22.5,72.5C 23.1667,72.8333 23.8333,73.1667 24.5,73.5C 25.8333,72.8333 25.8333,72.1667 24.5,71.5C 24.3284,70.5084 24.6618,69.8417 25.5,69.5C 26.206,70.5573 26.5393,70.2239 26.5,68.5C 27.8333,68.1667 27.8333,67.8333 26.5,67.5C 26.5,66.8333 26.8333,66.5 27.5,66.5C 28.1667,66.5 28.5,66.1667 28.5,65.5C 29.1667,65.5 29.5,65.1667 29.5,64.5C 30.1667,64.5 30.5,64.1667 30.5,63.5C 31.1667,63.5 31.5,63.1667 31.5,62.5C 32.1667,62.5 32.5,62.1667 32.5,61.5C 32.5,60.8333 32.8333,60.5 33.5,60.5C 33.8333,61.8333 34.1667,61.8333 34.5,60.5C 34.5,59.8333 34.8333,59.5 35.5,59.5C 35.8333,60.8333 36.1667,60.8333 36.5,59.5C 38.6009,56.8211 40.6009,53.9877 42.5,51C 41.7476,50.3292 41.4142,49.4959 41.5,48.5C 42.8333,48.1667 42.8333,47.8333 41.5,47.5C 41.1583,46.6618 40.4916,46.3284 39.5,46.5C 38.8333,46.5 38.5,46.1667 38.5,45.5C 37.8333,45.5 37.5,45.1667 37.5,44.5C 36.8333,44.5 36.5,44.1667 36.5,43.5C 37.8333,43.1667 37.8333,42.8333 36.5,42.5C 35.6618,42.1583 35.3284,41.4916 35.5,40.5C 37.1745,37.4928 37.8412,34.1595 37.5,30.5C 38.2891,30.2172 38.9558,29.7172 39.5,29C 38.2203,26.8683 38.2203,24.7016 39.5,22.5C 38.6086,21.4104 37.6086,21.4104 36.5,22.5C 35.4777,22.1445 34.811,21.4778 34.5,20.5C 36.2659,18.2294 38.2659,16.0627 40.5,14C 47.3328,12.5853 53.9994,10.5853 60.5,8C 61.3805,7.2917 62.0472,6.45837 62.5,5.5 Z"/></g>
<g><path style="opacity:1" fill="#969ea5" d="M 51.5,63.5 C 49.8235,62.8166 49.1568,61.4832 49.5,59.5C 53.4109,57.7317 55.0776,59.065 54.5,63.5C 53.5,63.5 52.5,63.5 51.5,63.5 Z"/></g>
<g><path style="opacity:0.999" fill="#055e8b" d="M 51.5,63.5 C 52.5,63.5 53.5,63.5 54.5,63.5C 55.0776,59.065 53.4109,57.7317 49.5,59.5C 48.8423,60.3984 48.1757,61.3984 47.5,62.5C 39.219,60.098 39.0523,56.4314 47,51.5C 51.2378,54.3719 55.4044,57.3719 59.5,60.5C 58.376,61.914 57.376,63.414 56.5,65C 54.4652,65.5986 52.7985,65.0986 51.5,63.5 Z"/></g>
<g><path style="opacity:0.004" fill="#182e41" d="M 22.5,82.5 C 22.8333,82.5 23.1667,82.5 23.5,82.5C 23.1667,87.8333 22.8333,87.8333 22.5,82.5 Z"/></g>
<g><path style="opacity:0.012" fill="#142940" d="M 103.5,86.5 C 104.573,87.2506 104.74,88.2506 104,89.5C 103.517,88.552 103.351,87.552 103.5,86.5 Z"/></g>
<g><path style="opacity:0.012" fill="#1c3043" d="M 24.5,87.5 C 24.5,88.5 24.5,89.5 24.5,90.5C 23.1667,89.5 23.1667,88.5 24.5,87.5 Z"/></g>
<g><path style="opacity:0.012" fill="#162737" d="M 24.5,90.5 C 24.8333,90.5 25.1667,90.5 25.5,90.5C 25.1667,94.5 24.8333,94.5 24.5,90.5 Z"/></g>
<g><path style="opacity:0.012" fill="#1c2f45" d="M 102.5,90.5 C 103.525,90.8966 103.692,91.5632 103,92.5C 102.536,91.9056 102.369,91.2389 102.5,90.5 Z"/></g>
<g><path style="opacity:0.008" fill="#182734" d="M 101.5,93.5 C 102.525,93.8966 102.692,94.5632 102,95.5C 101.536,94.9056 101.369,94.2389 101.5,93.5 Z"/></g>
<g><path style="opacity:0.008" fill="#1f384e" d="M 26.5,94.5 C 26.5,95.1667 26.5,95.8333 26.5,96.5C 25.1667,95.8333 25.1667,95.1667 26.5,94.5 Z"/></g>
<g><path style="opacity:0.012" fill="#263644" d="M 26.5,96.5 C 26.8333,96.5 27.1667,96.5 27.5,96.5C 27.5,97.5 27.5,98.5 27.5,99.5C 26.596,98.791 26.2627,97.791 26.5,96.5 Z"/></g>
<g><path style="opacity:0.008" fill="#202f40" d="M 100.5,96.5 C 101.525,96.8966 101.692,97.5632 101,98.5C 100.536,97.9056 100.369,97.2389 100.5,96.5 Z"/></g>
<g><path style="opacity:0.012" fill="#1d3243" d="M 27.5,99.5 C 27.8333,99.5 28.1667,99.5 28.5,99.5C 28.5,100.167 28.5,100.833 28.5,101.5C 26.1432,101.663 23.8098,101.497 21.5,101C 23.7078,100.809 25.7078,100.309 27.5,99.5 Z"/></g>
<g><path style="opacity:0.008" fill="#253d51" d="M 99.5,101.5 C 99.369,100.761 99.5357,100.094 100,99.5C 102.069,100.264 104.236,100.764 106.5,101C 104.19,101.497 101.857,101.663 99.5,101.5 Z"/></g>
<g><path style="opacity:0.004" fill="#223b4f" d="M 116.5,104.5 C 115.833,103.167 115.833,103.167 116.5,104.5 Z"/></g>
<g><path style="opacity:0.004" fill="#12181e" d="M 116.5,104.5 C 117.525,104.897 117.692,105.563 117,106.5C 116.536,105.906 116.369,105.239 116.5,104.5 Z"/></g>
<g><path style="opacity:1" fill="#b3b7bc" d="M 34.5,107.5 C 34.7719,111.723 34.7719,115.723 34.5,119.5C 33.1667,119.5 31.8333,119.5 30.5,119.5C 30.6625,114.453 30.3292,109.453 29.5,104.5C 31.1667,104.5 32.8333,104.5 34.5,104.5C 34.5,105.5 34.5,106.5 34.5,107.5 Z"/></g>
<g><path style="opacity:1" fill="#0d253d" d="M 29.5,77.5 C 30.0447,79.5932 30.878,81.5932 32,83.5C 36.9571,88.8253 43.1238,91.6586 50.5,92C 49.5,92.3333 48.5,92.6667 47.5,93C 50.5612,95.0347 53.8945,96.2014 57.5,96.5C 58.1667,96.8333 58.8333,97.1667 59.5,97.5C 61.2922,98.3091 63.2922,98.8091 65.5,99C 67.4527,102.287 70.1194,103.12 73.5,101.5C 71.8815,98.361 70.8815,95.0277 70.5,91.5C 70.4672,88.8984 71.4672,86.8984 73.5,85.5C 71.7924,91.2988 72.459,96.7988 75.5,102C 78.1909,102.156 80.5242,102.989 82.5,104.5C 84.5648,104.517 86.5648,104.85 88.5,105.5C 88.5,109.167 88.5,112.833 88.5,116.5C 88.5,117.5 88.5,118.5 88.5,119.5C 89.8333,119.5 91.1667,119.5 92.5,119.5C 93.1635,117.958 93.8302,116.291 94.5,114.5C 95.1698,116.291 95.8365,117.958 96.5,119.5C 97.5676,120.434 98.901,120.768 100.5,120.5C 100.149,117.762 99.4822,115.096 98.5,112.5C 98.6236,111.893 98.9569,111.56 99.5,111.5C 100.309,109.708 100.809,107.708 101,105.5C 101.183,108.365 101.683,111.031 102.5,113.5C 104.102,115.074 106.102,115.741 108.5,115.5C 108.719,116.675 108.386,117.675 107.5,118.5C 105.929,117.691 104.262,117.357 102.5,117.5C 102.5,118.833 102.5,120.167 102.5,121.5C 104.099,121.232 105.432,121.566 106.5,122.5C 87.9303,119.934 69.2636,118.934 50.5,119.5C 47.6146,119.194 44.9479,119.527 42.5,120.5C 39.8333,120.5 37.1667,120.5 34.5,120.5C 34.5,120.167 34.5,119.833 34.5,119.5C 34.7719,115.723 34.7719,111.723 34.5,107.5C 35.4345,106.432 35.7678,105.099 35.5,103.5C 30.3603,103.416 30.3603,102.75 35.5,101.5C 36.8333,101.167 36.8333,100.833 35.5,100.5C 33.6112,101.38 31.6112,101.38 29.5,100.5C 29.5,99.8333 29.1667,99.5 28.5,99.5C 28.7373,98.209 28.404,97.209 27.5,96.5C 27.6716,95.5084 27.3382,94.8417 26.5,94.5C 26.7678,92.901 26.4345,91.5676 25.5,90.5C 25.7373,89.209 25.404,88.209 24.5,87.5C 24.7845,85.5853 24.4511,83.9187 23.5,82.5C 23.5,81.1667 23.5,79.8333 23.5,78.5C 24.404,77.791 24.7373,76.791 24.5,75.5C 26.5762,74.5732 27.7428,72.9065 28,70.5C 28.1862,73.0356 28.6862,75.369 29.5,77.5 Z"/></g>
<g><path style="opacity:1" fill="#c4c6c9" d="M 58.5,105.5 C 56.9519,105.821 56.2852,106.821 56.5,108.5C 57.5,108.5 58.5,108.5 59.5,108.5C 59.5,109.5 59.5,110.5 59.5,111.5C 58.1667,111.5 56.8333,111.5 55.5,111.5C 55.5,112.833 55.5,114.167 55.5,115.5C 57.5,115.167 59.5,114.833 61.5,114.5C 59.2579,117.684 56.7579,118.017 54,115.5C 53.3333,112.167 53.3333,108.833 54,105.5C 56.2269,103.121 58.7269,102.954 61.5,105C 60.552,105.483 59.552,105.649 58.5,105.5 Z"/></g>
<g><path style="opacity:1" fill="#9ba4ab" d="M 58.5,105.5 C 59.552,105.649 60.552,105.483 61.5,105C 58.7269,102.954 56.2269,103.121 54,105.5C 53.3333,108.833 53.3333,112.167 54,115.5C 56.7579,118.017 59.2579,117.684 61.5,114.5C 62.4345,115.568 62.7678,116.901 62.5,118.5C 58.8333,118.5 55.1667,118.5 51.5,118.5C 52.8333,113.167 52.8333,107.833 51.5,102.5C 55.1667,102.5 58.8333,102.5 62.5,102.5C 62.5,103.833 62.5,105.167 62.5,106.5C 60.901,106.768 59.5676,106.434 58.5,105.5 Z"/></g>
<g><path style="opacity:0.012" fill="#06243b" d="M 9.5,105.5 C 10.6533,111.653 10.82,117.986 10,124.5C 9.50046,118.175 9.33379,111.842 9.5,105.5 Z"/></g>
<g><path style="opacity:1" fill="#bec1c5" d="M 63.5,102.5 C 67.1352,103.114 70.8019,103.448 74.5,103.5C 74.6198,106.205 73.6198,106.872 71.5,105.5C 70.3661,109.831 70.3661,114.164 71.5,118.5C 69.8333,118.5 68.1667,118.5 66.5,118.5C 67.5404,114.151 67.5404,109.818 66.5,105.5C 64.1052,106.523 63.1052,105.523 63.5,102.5 Z"/></g>
<g><path style="opacity:1" fill="#c2c4c7" d="M 99.5,111.5 C 98.9569,111.56 98.6236,111.893 98.5,112.5C 99.4822,115.096 100.149,117.762 100.5,120.5C 98.901,120.768 97.5676,120.434 96.5,119.5C 96.5,117.5 96.5,115.5 96.5,113.5C 95.1667,113.5 93.8333,113.5 92.5,113.5C 92.5,115.5 92.5,117.5 92.5,119.5C 91.1667,119.5 89.8333,119.5 88.5,119.5C 88.5,118.5 88.5,117.5 88.5,116.5C 89.4767,113.713 89.81,110.713 89.5,107.5C 90.5,107.5 91.5,107.5 92.5,107.5C 92.5,108.5 92.5,109.5 92.5,110.5C 93.5,110.5 94.5,110.5 95.5,110.5C 93.3354,106.162 94.6687,104.162 99.5,104.5C 99.5,106.833 99.5,109.167 99.5,111.5 Z"/></g>
<g><path style="opacity:1" fill="#bfc1c5" d="M 44.5,102.5 C 46.5,102.5 48.5,102.5 50.5,102.5C 48.5525,107.623 47.2192,112.957 46.5,118.5C 44.1667,118.5 41.8333,118.5 39.5,118.5C 39.383,113.248 38.383,108.248 36.5,103.5C 38.1667,103.5 39.8333,103.5 41.5,103.5C 41.933,106.166 42.433,108.832 43,111.5C 44.0416,108.536 44.5416,105.536 44.5,102.5 Z"/></g>
<g><path style="opacity:1" fill="#a7adb3" d="M 82.5,104.5 C 83.8083,105.232 85.1416,106.066 86.5,107C 84.5116,107.18 82.5116,107.014 80.5,106.5C 80.5,107.5 80.5,108.5 80.5,109.5C 81.8333,109.5 83.1667,109.5 84.5,109.5C 84.5,110.5 84.5,111.5 84.5,112.5C 83.1667,112.5 81.8333,112.5 80.5,112.5C 80.5,113.5 80.5,114.5 80.5,115.5C 82.5,115.167 84.5,114.833 86.5,114.5C 86.5,115.833 86.5,117.167 86.5,118.5C 82.8333,118.5 79.1667,118.5 75.5,118.5C 76.7031,113.818 76.7031,109.151 75.5,104.5C 77.6552,104.162 79.9885,104.162 82.5,104.5 Z"/></g>
<g><path style="opacity:1" fill="#556776" d="M 96.5,119.5 C 95.8365,117.958 95.1698,116.291 94.5,114.5C 93.8302,116.291 93.1635,117.958 92.5,119.5C 92.5,117.5 92.5,115.5 92.5,113.5C 93.8333,113.5 95.1667,113.5 96.5,113.5C 96.5,115.5 96.5,117.5 96.5,119.5 Z"/></g>
<g><path style="opacity:1" fill="#7e182f" d="M 42.5,120.5 C 44.9479,119.527 47.6146,119.194 50.5,119.5C 57.1667,120.167 63.8333,120.833 70.5,121.5C 63.5,121.5 56.5,121.5 49.5,121.5C 47.3926,120.532 45.0593,120.198 42.5,120.5 Z"/></g>
<g><path style="opacity:1" fill="#b8bcc0" d="M 107.5,122.5 C 107.167,122.5 106.833,122.5 106.5,122.5C 105.432,121.566 104.099,121.232 102.5,121.5C 102.5,120.167 102.5,118.833 102.5,117.5C 104.262,117.357 105.929,117.691 107.5,118.5C 108.386,117.675 108.719,116.675 108.5,115.5C 106.102,115.741 104.102,115.074 102.5,113.5C 102.5,110.833 102.5,108.167 102.5,105.5C 105.518,105.704 108.518,106.037 111.5,106.5C 111.5,107.833 111.5,109.167 111.5,110.5C 110.07,110.579 108.736,110.246 107.5,109.5C 106.614,110.325 106.281,111.325 106.5,112.5C 108.467,112.261 110.301,112.594 112,113.5C 112.498,116.482 112.665,119.482 112.5,122.5C 110.833,122.5 109.167,122.5 107.5,122.5 Z"/></g>
<g><path style="opacity:0.988" fill="#b6152d" d="M 34.5,120.5 C 37.1667,120.5 39.8333,120.5 42.5,120.5C 45.0593,120.198 47.3926,120.532 49.5,121.5C 38.5454,121.851 27.7121,123.184 17,125.5C 15.1021,124.648 15.2688,123.981 17.5,123.5C 23.1987,122.415 28.8653,121.415 34.5,120.5 Z"/></g>
<g><path style="opacity:0.987" fill="#122a41" d="M 29.5,100.5 C 31.6112,101.38 33.6112,101.38 35.5,100.5C 35.5,100.833 35.5,101.167 35.5,101.5C 30.3603,102.75 30.3603,103.416 35.5,103.5C 35.7678,105.099 35.4345,106.432 34.5,107.5C 34.5,106.5 34.5,105.5 34.5,104.5C 32.8333,104.5 31.1667,104.5 29.5,104.5C 30.3292,109.453 30.6625,114.453 30.5,119.5C 31.8333,119.5 33.1667,119.5 34.5,119.5C 34.5,119.833 34.5,120.167 34.5,120.5C 28.8653,121.415 23.1987,122.415 17.5,123.5C 15.2688,123.981 15.1021,124.648 17,125.5C 27.7121,123.184 38.5454,121.851 49.5,121.5C 56.5,121.5 63.5,121.5 70.5,121.5C 75.6946,121.179 80.6946,121.513 85.5,122.5C 81.0614,122.932 76.7281,123.099 72.5,123C 75.2022,123.912 76.8689,125.746 77.5,128.5C 77.5,128.833 77.5,129.167 77.5,129.5C 76.8333,129.5 76.5,129.833 76.5,130.5C 75.8333,130.5 75.5,130.833 75.5,131.5C 74.5084,131.328 73.8417,131.662 73.5,132.5C 72.8333,132.5 72.5,132.833 72.5,133.5C 70.9731,133.427 69.9731,134.094 69.5,135.5C 67.9731,135.427 66.9731,136.094 66.5,137.5C 65.5084,137.328 64.8417,137.662 64.5,138.5C 63.8333,138.5 63.1667,138.5 62.5,138.5C 57.3981,134.574 52.3981,130.408 47.5,126C 45.82,126.771 44.1533,126.605 42.5,125.5C 39.5,124.167 36.5,124.167 33.5,125.5C 28.5859,125.362 23.9192,126.028 19.5,127.5C 16.3484,128.041 13.8484,127.041 12,124.5C 11.5004,117.842 11.3337,111.175 11.5,104.5C 17.3495,103.804 23.0161,102.804 28.5,101.5C 29.1667,101.5 29.5,101.167 29.5,100.5 Z"/></g>
<g><path style="opacity:1" fill="#c4c6c9" d="M 19.5,105.5 C 21.8333,105.5 24.1667,105.5 26.5,105.5C 26.7683,108.119 26.435,110.619 25.5,113C 26.5541,115.382 27.2208,117.882 27.5,120.5C 25.8333,120.5 24.1667,120.5 22.5,120.5C 22.5,118.833 22.5,117.167 22.5,115.5C 21.5,115.5 20.5,115.5 19.5,115.5C 20.0289,118.604 19.0289,120.937 16.5,122.5C 16.1667,122 15.8333,121.5 15.5,121C 16.7338,116.169 16.7338,111.336 15.5,106.5C 17.099,106.768 18.4324,106.434 19.5,105.5 Z"/></g>
<g><path style="opacity:1" fill="#4f5c6d" d="M 20.5,108.5 C 21.5,108.5 22.5,108.5 23.5,108.5C 23.8333,111.5 22.5,112.833 19.5,112.5C 19.4326,111.041 19.7659,109.708 20.5,108.5 Z"/></g>
<g><path style="opacity:0.984" fill="#b5162d" d="M 50.5,119.5 C 69.2636,118.934 87.9303,119.934 106.5,122.5C 106.833,122.5 107.167,122.5 107.5,122.5C 109.042,123.163 110.709,123.83 112.5,124.5C 111.833,124.833 111.167,125.167 110.5,125.5C 102.273,123.597 93.9401,122.597 85.5,122.5C 80.6946,121.513 75.6946,121.179 70.5,121.5C 63.8333,120.833 57.1667,120.167 50.5,119.5 Z"/></g>
<g><path style="opacity:0.016" fill="#1c2936" d="M 116.5,123.5 C 117.525,123.897 117.692,124.563 117,125.5C 116.536,124.906 116.369,124.239 116.5,123.5 Z"/></g>
<g><path style="opacity:0.004" fill="#2e3d51" d="M 33.5,125.5 C 36.5,125.5 39.5,125.5 42.5,125.5C 39.5,126.833 36.5,126.833 33.5,125.5 Z"/></g>
<g><path style="opacity:1" fill="#22374c" d="M 99.5,71.5 C 100.326,76.3165 100.826,81.3165 101,86.5C 101.2,84.6803 102.034,83.347 103.5,82.5C 102.674,86.1359 102.008,89.8026 101.5,93.5C 100.596,94.209 100.263,95.209 100.5,96.5C 98.655,97.9955 98.3217,99.6621 99.5,101.5C 104.662,102.731 109.996,103.731 115.5,104.5C 116.081,112.441 115.414,120.108 113.5,127.5C 109.5,127.167 105.5,126.833 101.5,126.5C 96.0709,124.988 90.4042,124.321 84.5,124.5C 83.0527,123.115 82.0527,123.448 81.5,125.5C 80.8333,125.5 80.5,125.833 80.5,126.5C 79.8333,126.5 79.5,126.833 79.5,127.5C 78.8333,127.5 78.5,127.833 78.5,128.5C 78.1667,128.5 77.8333,128.5 77.5,128.5C 76.8689,125.746 75.2022,123.912 72.5,123C 76.7281,123.099 81.0614,122.932 85.5,122.5C 93.9401,122.597 102.273,123.597 110.5,125.5C 111.167,125.167 111.833,124.833 112.5,124.5C 110.709,123.83 109.042,123.163 107.5,122.5C 109.167,122.5 110.833,122.5 112.5,122.5C 112.665,119.482 112.498,116.482 112,113.5C 110.301,112.594 108.467,112.261 106.5,112.5C 106.281,111.325 106.614,110.325 107.5,109.5C 108.736,110.246 110.07,110.579 111.5,110.5C 111.5,109.167 111.5,107.833 111.5,106.5C 108.518,106.037 105.518,105.704 102.5,105.5C 102.5,108.167 102.5,110.833 102.5,113.5C 101.683,111.031 101.183,108.365 101,105.5C 100.809,107.708 100.309,109.708 99.5,111.5C 99.5,109.167 99.5,106.833 99.5,104.5C 94.6687,104.162 93.3354,106.162 95.5,110.5C 94.5,110.5 93.5,110.5 92.5,110.5C 92.5,109.5 92.5,108.5 92.5,107.5C 91.5,107.5 90.5,107.5 89.5,107.5C 89.81,110.713 89.4767,113.713 88.5,116.5C 88.5,112.833 88.5,109.167 88.5,105.5C 93.5391,105.968 96.3724,103.635 97,98.5C 99.2598,89.6626 100.093,80.6626 99.5,71.5 Z M 84.5,124.5 C 83.391,124.557 82.391,124.89 81.5,125.5C 82.0527,123.448 83.0527,123.115 84.5,124.5 Z"/></g>
<g><path style="opacity:0.008" fill="#283c50" d="M 26.5,127.5 C 28.2884,126.378 30.2884,126.211 32.5,127C 30.5273,127.495 28.5273,127.662 26.5,127.5 Z"/></g>
<g><path style="opacity:0.016" fill="#1a3348" d="M 80.5,126.5 C 81.8333,127.167 81.8333,127.167 80.5,126.5 Z"/></g>
<g><path style="opacity:0.012" fill="#1b2e45" d="M 101.5,126.5 C 99.3718,127.629 97.0385,127.796 94.5,127C 96.8098,126.503 99.1432,126.337 101.5,126.5 Z"/></g>
<g><path style="opacity:0.008" fill="#273a4b" d="M 19.5,128.5 C 19.5,128.167 19.5,127.833 19.5,127.5C 27.5,127.833 27.5,128.167 19.5,128.5 Z"/></g>
<g><path style="opacity:1" fill="#c5c8ca" d="M 63.5,122.5 C 63.991,125.152 65.6576,126.652 68.5,127C 66.4746,128.194 66.1413,129.694 67.5,131.5C 66.467,132.452 65.3004,132.452 64,131.5C 62.7387,131.759 61.7387,132.426 61,133.5C 60.6466,132.328 60.8132,131.162 61.5,130C 60.7282,128.779 59.7282,127.779 58.5,127C 59.7932,126.51 61.1266,126.343 62.5,126.5C 62.4326,125.041 62.7659,123.708 63.5,122.5 Z"/></g>
<g><path style="opacity:0.016" fill="#092940" d="M 79.5,127.5 C 79.8333,127.5 80.1667,127.5 80.5,127.5C 80.3147,128.17 79.9813,128.17 79.5,127.5 Z"/></g>
<g><path style="opacity:0.012" fill="#001933" d="M 113.5,127.5 C 114.833,128.167 114.833,128.167 113.5,127.5 Z"/></g>
<g><path style="opacity:0.008" fill="#354759" d="M 19.5,128.5 C 18.0536,129.613 16.3869,129.78 14.5,129C 16.1341,128.506 17.8008,128.34 19.5,128.5 Z"/></g>
<g><path style="opacity:0.016" fill="#000724" d="M 78.5,128.5 C 78.8333,128.5 79.1667,128.5 79.5,128.5C 79.3147,129.17 78.9813,129.17 78.5,128.5 Z"/></g>
<g><path style="opacity:0.012" fill="#293e52" d="M 113.5,128.5 C 111.712,129.622 109.712,129.789 107.5,129C 109.473,128.505 111.473,128.338 113.5,128.5 Z"/></g>
<g><path style="opacity:0.016" fill="#011e37" d="M 77.5,129.5 C 77.8333,129.5 78.1667,129.5 78.5,129.5C 78.3147,130.17 77.9813,130.17 77.5,129.5 Z"/></g>
<g><path style="opacity:0.016" fill="#21364b" d="M 76.5,130.5 C 76.8333,130.5 77.1667,130.5 77.5,130.5C 77.3147,131.17 76.9813,131.17 76.5,130.5 Z"/></g>
<g><path style="opacity:0.008" fill="#3a4c5d" d="M 75.5,131.5 C 75.8333,131.5 76.1667,131.5 76.5,131.5C 76.3147,132.17 75.9813,132.17 75.5,131.5 Z"/></g>
<g><path style="opacity:0.004" fill="#373f4d" d="M 73.5,133.5 C 73.5,133.167 73.5,132.833 73.5,132.5C 74.1667,132.5 74.8333,132.5 75.5,132.5C 75.1583,133.338 74.4916,133.672 73.5,133.5 Z"/></g>
<g><path style="opacity:0.016" fill="#0c2139" d="M 72.5,133.5 C 72.8333,133.5 73.1667,133.5 73.5,133.5C 73.3147,134.17 72.9813,134.17 72.5,133.5 Z"/></g>
<g><path style="opacity:0.012" fill="#26364b" d="M 72.5,134.5 C 71.8333,135.167 71.8333,135.167 72.5,134.5 Z"/></g>
<g><path style="opacity:0.016" fill="#08233b" d="M 69.5,135.5 C 70.8333,136.167 70.8333,136.167 69.5,135.5 Z"/></g>
<g><path style="opacity:0.012" fill="#1c2d43" d="M 69.5,136.5 C 68.8333,137.167 68.8333,137.167 69.5,136.5 Z"/></g>
<g><path style="opacity:0.016" fill="#0f2c41" d="M 66.5,137.5 C 67.8333,138.167 67.8333,138.167 66.5,137.5 Z"/></g>
<g><path style="opacity:0.012" fill="#2b4154" d="M 62.5,138.5 C 61.8333,139.167 61.8333,139.167 62.5,138.5 Z"/></g>
<g><path style="opacity:0.008" fill="#293c4f" d="M 64.5,139.5 C 64.5,139.167 64.5,138.833 64.5,138.5C 65.1667,138.5 65.8333,138.5 66.5,138.5C 66.1583,139.338 65.4916,139.672 64.5,139.5 Z"/></g>
<g><path style="opacity:0.008" fill="#475665" d="M 64.5,139.5 C 63.8333,140.167 63.8333,140.167 64.5,139.5 Z"/></g>
</svg>
