<?xml version="1.0" encoding="utf-8"?>
<!-- Generator: Adobe Illustrator 23.0.6, SVG Export Plug-In . SVG Version: 6.00 Build 0)  -->
<svg xmlns="http://www.w3.org/2000/svg" xmlns:xlink="http://www.w3.org/1999/xlink" version="1.1" id="Isolation_Mode" x="0px" y="0px" viewBox="0 0 399 383" style="enable-background:new 0 0 399 383;" xml:space="preserve" preserveAspectRatio="xMidYMid meet" width="151.0574412532637" height="145.0">
<style type="text/css">
	.st0{fill:#CFD1D2;}
	.st1{fill:#1B449C;}
	.st2{fill:#FFFFFF;}
</style>
<g>
	<path class="st0" d="M388.3,182.5c0.1-1.1,0.2-2.3,0.3-3.4c2-31.5-11.3-61.2-22.9-80.5c-3.9-6.4-8.3-12.9-13.1-19.1
		c-18.5-25.4-42.6-46-69.7-59.6c-1.7-0.8-3.3-1.6-4.9-2.4C251.6,5.2,222.1-0.8,192.8,0.1C95,2.9,14.5,81.8,9.6,179.6L9,191
		c-2.9,2.4-6.2,5.9-7.9,11l-0.4,1.2l-0.4,3l0,0.6c-0.1,1.9-0.2,4.4-0.2,7c0,25,5.2,49.2,15.6,71.9L28,310.2l13.8,30.3l5.4-37.7
		c0.6,0.8,1.3,1.7,1.9,2.5c17.4,23.9,40.4,43.7,66.6,57c26.4,13.5,56.3,20.7,86.3,20.7c90.7,0,168.8-64.6,185.8-153.6l11.4-59.5
		L388.3,182.5z"/>
	<circle cx="193.8" cy="191.2" r="175.2"/>
	<path class="st1" d="M376,207.8c7.6-20.7,8.5-43.3,1.9-64.4c-4.7-15-11.8-29.3-19.1-41.4c-5.9-9.9-12.8-19.3-20.5-27.9
		c-16.4-19.7-36.7-36-59.1-47.2c-1.5-0.8-3.1-1.5-4.7-2.3C249.4,13,221.2,7.2,193,8C99.3,10.8,22.2,86.3,17.5,180l-0.8,15l0,0
		c-2.7,2.1-8.4,10.2-8.4,10.2l-0.2,1.4c0,0-0.2,4.8-0.2,7.2c0,23.9,5,47,14.8,68.7l11.9,22.6l3.1,6.8l3.9-27.5
		c0.2-1.1,0.4-2.3,0.6-3.4c5.9,10.1,12.8,19.5,20.4,28.1c34.1,41,85.1,65.4,139.2,65.4c86.9,0,161.7-61.9,178-147.1l5.7-30.1
		L376,207.8z M71.2,271.5c-1.2-2-2.4-3.9-3.6-5.9c-0.1-0.1-0.2-0.3-0.3-0.4c-4-6.9-7.5-14.1-10.5-21.5l2.4-3
		c7.9-11.2,19-22.8,33.6-34.8c8.5-7,17.6-13.5,27.3-19.5c-3.2,28.1,0.8,48,12.1,59.4c1.5,2,3.1,3.9,5,5.5c14.4,12.8,33.4,8,37.2,6.8
		c25.9-5.1,54.1-34.1,70.8-54.1c3.7,15.7,9.4,24.2,13.8,28.6c3.3,4.4,6.4,6.7,8.2,7.8c14.5,11.8,35.7,13.8,59.9,5.4
		c5.5-1.9,10.6-4.1,15.3-6.5c-7.5,21.5-19.9,41.3-36.2,57.6c-28.8,28.8-67.1,44.6-107.8,44.6c-22.8,0-44.9-5-64.9-14.4
		C108.1,314.6,86.5,295.3,71.2,271.5z M205.5,99.9c-30.5-2.9-64.5,6.9-103.7,29.9c-17,10-33.6,21.3-49.3,33.8
		c5.8-29.7,20-56.5,41.7-78.2c28.8-28.8,67.1-44.6,107.8-44.6s79,15.9,107.8,44.6c2.7,2.7,6.1,6.2,9.7,10.3
		c7.7,9.3,16.1,20.9,21.7,33.4c0.9,1.9,1.6,3.8,2.3,5.7l-9.2-10.4c-21.6-24.3-53.3-18.4-67.1-11.8l-2.8,1.3l-0.1,0.2
		c-15.5,6.9-30.4,18.8-44.4,35.7c-27.6,33.2-43.6,43.8-49.4,45.3c-2.6-0.2-4.7-2.3-5-4.9c-0.3-2.9-0.4-6.8,0.1-12
		c2.4-23,35.1-50.8,47.5-59.5l17.9-12.7L205.5,99.9z M286.8,171.9c0-1.5,0.1-3,0.3-4.5c0.8-4.1,2.1-8.1,4-11.6
		c10.7-16.6,39.3-13.7,39.6-13.7l15.4,1.7c3.2,13.6,1.3,25.7-5.5,36c-8.1,12-23.3,19.9-37,19.1c-5.6-0.3-10-1.9-13.3-4.7
		c-1.6-2.6-2.7-5.8-3.2-9.5c-0.1-0.8-0.2-1.6-0.3-2.4L286.8,171.9z"/>
	<g>
		<path class="st2" d="M348.4,102.2c-17.2-28.8-42.7-52.9-72.7-68c-1.5-0.7-3-1.5-4.5-2.2c-24.3-11.3-51.2-16.7-77.9-15.9
			C103.4,18.8,30.1,91.1,25.6,180.4c4.6-4.4,9.7-8.4,13.9-13.3c4.7-34.5,20.4-66.4,45.4-91.5c30.3-30.3,70.6-47,113.5-47
			s83.2,16.7,113.5,47c25.7,25.7,59.9,71.9,35.3,108.6c-9.4,14-27.2,23.7-44.2,22.7c-10.9-0.6-20.8-6.1-25.2-16.4
			c-5.2-12.2-3.7-27.9,1.3-39.9c7-16.8,28.5-21.4,44.9-21c1.4,0,2.8,0.3,4.1,0.2c-0.9,0-5.1-4.9-6.2-5.7c-2.3-1.7-4.8-3.2-7.3-4.5
			c-5.2-2.5-10.8-4-16.5-4.6c-17.6-1.7-36,7.4-49.6,17.8c-8.4,6.4-15.8,13.9-22.5,22c-46.9,56.5-59.3,48-59.3,48
			s-16.2,2.1-12.9-29.6c3.3-31.8,50.8-65.3,50.8-65.3c-34.8-3.3-69.4,11.6-98.8,28.8c-16.8,9.8-33.1,21.1-48.4,33.2
			c-7.8,6.2-15.4,12.7-22.8,19.5c-3.7,3.4-7.2,7-10.9,10.3c-2.4,2.1-6.4,4.3-7.5,7.4c0,0.1,0,0.1,0,0.2c-0.1,2.1-0.2,4.2-0.2,6.4
			c0,23.3,5.1,45.4,14.1,65.3c1.2-8.3,3.9-15.8,6.6-23.7c0-0.1,0-0.1,0.1-0.2c8.2-23.7,28.4-44.1,47.3-59.7
			c10.6-8.8,22-16.6,33.8-23.6c3.4-2,6.8-3.9,10.3-5.8c0.4-0.2,3.7-1.4,3.8-1.9c-22.2,102,36.7,81.8,36.7,81.8
			c36.6-6.8,80.9-69.9,80.9-69.9c1.9,45.9,18.5,53.4,18.5,53.4c14.7,12.6,35.6,10.4,52.6,4.5c17.3-6,34.1-16.1,43-32
			C381.6,170.7,365.2,130.2,348.4,102.2z"/>
		<path class="st2" d="M339.6,285.2c0.8,0.2,1.6,0.4,2.4,0.7c12.8-19,22-40.7,26.4-64.1c-4.7,5.5-10.2,10.5-16.5,14.7
			c-4.5,14.7-13,32.1-21.6,45C333.3,282.9,336.4,284.1,339.6,285.2z"/>
	</g>
	<g>
		<path class="st0" d="M154.5,158.9c-4.8,7.7-8.3,15.9-9.2,24c-1.4,13.5,0.4,23.1,5.3,28.6c3.9,4.3,8.4,4.7,10.2,4.7
			c0.7,0.2,1.7,0.4,2.9,0.4c8.4,0,25.5-8.6,59.6-49.6c26.3-31.6,50.4-38.3,66.1-38.3c0.9,0,1.8,0,2.7,0.1c3.9-3.2,8.3-6.2,13.2-8.9
			c-2.8-0.6-6.4-1.1-10.6-1.1c-15.6,0-39.8,6.6-66.1,38.3c-34.1,41-51.2,49.6-59.6,49.6c-1.3,0-2.2-0.2-2.9-0.4
			c-1.8,0-6.4-0.5-10.2-4.7c-5-5.5-6.8-15.1-5.3-28.6C151,168.3,152.4,163.5,154.5,158.9z"/>
		<path class="st0" d="M20.7,212.2c2.1-1.8,4.1-3.8,6-5.7c1.6-1.6,3.2-3.1,4.9-4.7c7.3-6.7,14.9-13.2,22.6-19.3
			c15.3-12.2,31.5-23.3,48.1-33c30.6-17.9,57.3-27.3,81.5-28.7c4.3-4,8.4-7.4,11.6-10c-0.2,0-0.4,0-0.5,0
			c-25.6,0-54.2,9.4-87.3,28.8c-16.6,9.7-32.8,20.8-48.1,33c-7.7,6.1-15.3,12.6-22.6,19.3c-1.7,1.5-3.3,3.1-4.9,4.7
			c-1.9,1.9-3.9,3.8-6,5.7c-0.8,0.7-1.6,1.3-2.4,1.9c-1.5,1.1-3.4,2.5-4,3.8c-0.1,1.9-0.1,3.6-0.1,5.2
			C19.9,212.9,20.3,212.6,20.7,212.2z"/>
		<path class="st0" d="M305.5,210.4c-0.9,0-1.7,0-2.6-0.1c-17.2-1-28.4-11.3-30.8-28.2c-1.6-11.4-0.5-21.7,3.1-30.8
			c-7.8,11.4-10.6,25-8.4,40.7c2.4,16.9,13.6,27.2,30.8,28.2c0.9,0.1,1.7,0.1,2.6,0.1c17,0,34.9-9.7,44.6-24.2
			c2.2-3.2,3.9-6.5,5.2-9.8C340.4,200.6,322.4,210.4,305.5,210.4z"/>
	</g>
	<g>
		<path class="st2" d="M141,335l-10.5,20.2l-6.8-3.6l5-9.6l-8.4,7.8l-6.8-3.6l1.6-11.4l-5,9.6l-6.8-3.6l10.5-20.2l8.5,4.4l-0.9,14.2
			l11.1-8.9L141,335z"/>
		<path class="st2" d="M152.9,338.7l-7.4,21.6l-7.3-2.5l7.4-21.6L152.9,338.7z"/>
		<path class="st2" d="M162.4,353.2l-2.2,11.2l-7.5-1.5l4.5-22.4l7.5,1.5l7.2,13.1l2.2-11.2l7.5,1.5l-4.5,22.4l-7.5-1.5L162.4,353.2
			z"/>
		<path class="st2" d="M194.3,357.6l-0.1,11.4l-7.7-0.1l0.2-22.8l7.7,0.1l9.5,11.5l0.1-11.4l7.7,0.1l-0.2,22.8l-7.7-0.1L194.3,357.6
			z"/>
		<path class="st2" d="M239.2,342l1.1,6.4l-15.2,2.6l0.3,1.6l11.4-2l1.1,6.4l-11.4,2l0.3,1.6L242,358l1.1,6.4l-22.7,4l-3.9-22.5
			L239.2,342z"/>
		<path class="st2" d="M258.3,351.3c-6,2.2-9.9,1-11.6-3.6c-1.7-4.5,0.5-7.9,6.5-10.2l14.4-5.4l2.3,6.1l-14.4,5.4
			c-1.2,0.4-1.7,0.9-1.5,1.4c0.2,0.5,0.9,0.6,2.1,0.2l5.4-2c6-2.2,9.9-1.1,11.5,3.5c1.7,4.6-0.4,8-6.4,10.3l-14.4,5.4l-2.3-6.1
			l14.4-5.4c1.2-0.4,1.7-0.9,1.5-1.5c-0.2-0.5-0.9-0.5-2.1,0L258.3,351.3z"/>
		<path class="st2" d="M293.3,344c-3.2,1.9-6.5,2.6-9.9,2c-3.4-0.6-5.9-2.2-7.5-4.9c-1.6-2.7-1.9-5.7-0.7-8.9
			c1.1-3.3,3.3-5.8,6.5-7.7c3.2-1.9,6.5-2.6,9.9-2c3.4,0.6,5.9,2.2,7.5,4.9c1.6,2.7,1.9,5.7,0.7,8.9
			C298.6,339.6,296.5,342.1,293.3,344z M292.7,335.1c0.5-1.4,0.4-2.7-0.3-3.8c-0.7-1.2-1.8-1.9-3.2-2.1c-1.5-0.2-2.9,0-4.2,0.9
			c-1.4,0.8-2.3,1.9-2.8,3.3c-0.5,1.4-0.4,2.7,0.3,3.8c0.7,1.2,1.8,1.9,3.2,2.1c1.5,0.2,2.9,0,4.2-0.9
			C291.3,337.6,292.2,336.5,292.7,335.1z"/>
		<path class="st2" d="M309.9,312.1l10.5,12.4l-5.9,5L304.1,317l-6.5,5.5l-4.2-5l19.1-16.1l4.2,5L309.9,312.1z"/>
		<path class="st2" d="M331.2,309.7l1.5,3.2l-5.1,5.8L317,296.3l5.1-5.8l23.4,7.9l-5.1,5.8l-3.3-1.1L331.2,309.7z M331,300.1
			l-6.6-2.4l3.2,6.2L331,300.1z"/>
	</g>
	<path class="st2" d="M88.7,306.2c-3.7-3.5-7.3-7.1-10.7-11c-0.1-0.2-0.3-0.3-0.4-0.5c-0.5-0.6-1-1.2-1.5-1.7
		c-7.3-8.6-13.6-17.9-18.9-27.7l-0.1,0.1c-2-3.7-3.9-7.5-5.6-11.4c-2.4,5-4.5,10.2-6.5,15.4c10.1,19.1,23.6,36.1,39.7,50.1
		c0,0,0,0,0,0c3.4,3,6.9,5.8,10.5,8.5c2-3.3,4.4-6.4,6.2-9.9c0.1-0.3,0.1-0.7,0.1-1C98.4,314.6,92.9,310,88.7,306.2z"/>
</g>
</svg>
