<?xml version="1.0" encoding="UTF-8"?>
<!DOCTYPE svg PUBLIC "-//W3C//DTD SVG 1.1//EN" "http://www.w3.org/Graphics/SVG/1.1/DTD/svg11.dtd">
<svg xmlns="http://www.w3.org/2000/svg" version="1.1" width="138px" height="145px" style="shape-rendering:geometricPrecision; text-rendering:geometricPrecision; image-rendering:optimizeQuality; fill-rule:evenodd; clip-rule:evenodd" xmlns:xlink="http://www.w3.org/1999/xlink">
<g><path style="opacity:0.012" fill="#cbac6e" d="M 39.5,7.5 C 68.9972,6.33615 98.6638,6.16948 128.5,7C 98.8352,7.49998 69.1685,7.66665 39.5,7.5 Z"/></g>
<g><path style="opacity:0.004" fill="#cbad6d" d="M 130.5,8.5 C 131.833,9.16667 131.833,9.16667 130.5,8.5 Z"/></g>
<g><path style="opacity:0.005" fill="#ccac6e" d="M 36.5,12.5 C 35.8333,12.5 35.5,12.8333 35.5,13.5C 34.2875,12.5029 34.4542,11.5029 36,10.5C 36.4643,11.0944 36.631,11.7611 36.5,12.5 Z"/></g>
<g><path style="opacity:0.012" fill="#cbac6c" d="M 126.5,13.5 C 127.833,14.1667 127.833,14.1667 126.5,13.5 Z"/></g>
<g><path style="opacity:0.016" fill="#cbad6c" d="M 125.5,14.5 C 125.833,14.5 126.167,14.5 126.5,14.5C 126.315,15.1701 125.981,15.1701 125.5,14.5 Z"/></g>
<g><path style="opacity:0.016" fill="#caac6c" d="M 124.5,15.5 C 124.833,15.5 125.167,15.5 125.5,15.5C 125.315,16.1701 124.981,16.1701 124.5,15.5 Z"/></g>
<g><path style="opacity:0.02" fill="#cbad6d" d="M 123.5,16.5 C 123.833,16.5 124.167,16.5 124.5,16.5C 124.315,17.1701 123.981,17.1701 123.5,16.5 Z"/></g>
<g><path style="opacity:0.016" fill="#cbac6c" d="M 122.5,17.5 C 122.833,17.5 123.167,17.5 123.5,17.5C 123.315,18.1701 122.981,18.1701 122.5,17.5 Z"/></g>
<g><path style="opacity:0.016" fill="#cbad6d" d="M 121.5,18.5 C 121.833,18.5 122.167,18.5 122.5,18.5C 122.315,19.1701 121.981,19.1701 121.5,18.5 Z"/></g>
<g><path style="opacity:0.006" fill="#ccac6d" d="M 120.5,19.5 C 120.833,19.5 121.167,19.5 121.5,19.5C 120.968,22.4596 120.301,22.7929 119.5,20.5C 120.167,20.5 120.5,20.1667 120.5,19.5 Z"/></g>
<g><path style="opacity:0.005" fill="#cbac6d" d="M 26.5,23.5 C 25.8333,23.5 25.5,23.8333 25.5,24.5C 24.2875,23.5029 24.4542,22.5029 26,21.5C 26.4643,22.0944 26.631,22.7611 26.5,23.5 Z"/></g>
<g><path style="opacity:0.012" fill="#caad6c" d="M 116.5,24.5 C 117.833,25.1667 117.833,25.1667 116.5,24.5 Z"/></g>
<g><path style="opacity:0.016" fill="#cbad6d" d="M 115.5,25.5 C 115.833,25.5 116.167,25.5 116.5,25.5C 116.315,26.1701 115.981,26.1701 115.5,25.5 Z"/></g>
<g><path style="opacity:0.016" fill="#cbad6d" d="M 114.5,26.5 C 114.833,26.5 115.167,26.5 115.5,26.5C 115.315,27.1701 114.981,27.1701 114.5,26.5 Z"/></g>
<g><path style="opacity:0.02" fill="#cbad6d" d="M 113.5,27.5 C 113.833,27.5 114.167,27.5 114.5,27.5C 114.315,28.1701 113.981,28.1701 113.5,27.5 Z"/></g>
<g><path style="opacity:0.016" fill="#cbad6c" d="M 112.5,28.5 C 112.833,28.5 113.167,28.5 113.5,28.5C 113.315,29.1701 112.981,29.1701 112.5,28.5 Z"/></g>
<g><path style="opacity:0.016" fill="#caac6c" d="M 111.5,29.5 C 111.833,29.5 112.167,29.5 112.5,29.5C 112.315,30.1701 111.981,30.1701 111.5,29.5 Z"/></g>
<g><path style="opacity:0.006" fill="#cbad6d" d="M 110.5,30.5 C 110.833,30.5 111.167,30.5 111.5,30.5C 110.968,33.4596 110.301,33.7929 109.5,31.5C 110.167,31.5 110.5,31.1667 110.5,30.5 Z"/></g>
<g><path style="opacity:0.016" fill="#cbad6d" d="M 105.5,36.5 C 106.833,37.1667 106.833,37.1667 105.5,36.5 Z"/></g>
<g><path style="opacity:0.008" fill="#cbad6d" d="M 11.5,37.5 C 12.8333,38.1667 12.8333,38.1667 11.5,37.5 Z"/></g>
<g><path style="opacity:0.016" fill="#caad6c" d="M 104.5,37.5 C 104.833,37.5 105.167,37.5 105.5,37.5C 105.315,38.1701 104.981,38.1701 104.5,37.5 Z"/></g>
<g><path style="opacity:0.012" fill="#cbad6d" d="M 103.5,38.5 C 103.833,38.5 104.167,38.5 104.5,38.5C 104.315,39.1701 103.981,39.1701 103.5,38.5 Z"/></g>
<g><path style="opacity:0.008" fill="#cbad6d" d="M 102.5,39.5 C 102.833,39.5 103.167,39.5 103.5,39.5C 103.315,40.1701 102.981,40.1701 102.5,39.5 Z"/></g>
<g><path style="opacity:0.009" fill="#ccad6d" d="M 36.5,41.5 C 35.8333,41.5 35.5,41.8333 35.5,42.5C 28.2456,41.701 20.9123,41.201 13.5,41C 21.3446,40.1777 29.0113,40.3443 36.5,41.5 Z"/></g>
<g><path style="opacity:0.009" fill="#ccad6d" d="M 82.5,40.5 C 89.1667,40.5 95.8333,40.5 102.5,40.5C 95.8333,41.8333 89.1667,41.8333 82.5,40.5 Z"/></g>
<g><path style="opacity:0.016" fill="#cbad6d" d="M 85.5,44.5 C 86.8333,45.1667 86.8333,45.1667 85.5,44.5 Z"/></g>
<g><path style="opacity:0.008" fill="#cbad6d" d="M 87.5,45.5 C 88.8333,46.1667 88.8333,46.1667 87.5,45.5 Z"/></g>
<g><path style="opacity:0.01" fill="#cbac6d" d="M 107.5,73.5 C 107.167,73.5 106.833,73.5 106.5,73.5C 106.833,69.5 107.167,69.5 107.5,73.5 Z"/></g>
<g><path style="opacity:0.012" fill="#cbad6d" d="M 12.5,73.5 C 11.475,73.1034 11.3083,72.4368 12,71.5C 12.4643,72.0944 12.631,72.7611 12.5,73.5 Z"/></g>
<g><path style="opacity:0.01" fill="#cbac6d" d="M 107.5,73.5 C 108.598,74.6009 108.765,75.9343 108,77.5C 107.51,76.2068 107.343,74.8734 107.5,73.5 Z"/></g>
<g><path style="opacity:0.01" fill="#cbac6d" d="M 11.5,77.5 C 11.1667,77.5 10.8333,77.5 10.5,77.5C 10.8333,73.5 11.1667,73.5 11.5,77.5 Z"/></g>
<g><path style="opacity:0.008" fill="#cbac6d" d="M 10.5,77.5 C 10.6621,79.5273 10.4955,81.5273 10,83.5C 9.21086,81.2884 9.37753,79.2884 10.5,77.5 Z"/></g>
<g><path style="opacity:0.011" fill="#cbad6d" d="M 108.5,79.5 C 109.648,83.9811 109.815,88.6478 109,93.5C 108.501,88.8452 108.334,84.1785 108.5,79.5 Z"/></g>
<g><path style="opacity:0.004" fill="#cbad6d" d="M 8.5,86.5 C 9.57346,87.2506 9.74012,88.2506 9,89.5C 8.51722,88.552 8.35055,87.552 8.5,86.5 Z"/></g>
<g><path style="opacity:0.008" fill="#cbac6d" d="M 9.5,92.5 C 10.6225,94.2884 10.7891,96.2884 10,98.5C 9.50454,96.5273 9.33788,94.5273 9.5,92.5 Z"/></g>
<g><path style="opacity:0.01" fill="#cbac6d" d="M 107.5,94.5 C 108.598,95.6009 108.765,96.9343 108,98.5C 107.51,97.2068 107.343,95.8734 107.5,94.5 Z"/></g>
<g><path style="opacity:0.012" fill="#cbad6d" d="M 106.5,99.5 C 107.525,99.8966 107.692,100.563 107,101.5C 106.536,100.906 106.369,100.239 106.5,99.5 Z"/></g>
<g><path style="opacity:0.01" fill="#cbad6d" d="M 105.5,102.5 C 106.833,103.167 106.833,103.833 105.5,104.5C 105.5,103.833 105.5,103.167 105.5,102.5 Z"/></g>
<g><path style="opacity:0.008" fill="#cbad6d" d="M 104.5,104.5 C 104.833,104.5 105.167,104.5 105.5,104.5C 105.167,107.167 104.833,107.167 104.5,104.5 Z"/></g>
<g><path style="opacity:0.016" fill="#caac6c" d="M 103.5,107.5 C 104.833,108.167 104.833,108.167 103.5,107.5 Z"/></g>
<g><path style="opacity:0.012" fill="#cbad6d" d="M 102.5,109.5 C 103.833,110.167 103.833,110.167 102.5,109.5 Z"/></g>
<g><path style="opacity:0.006" fill="#cbac6d" d="M 101.5,110.5 C 101.833,110.5 102.167,110.5 102.5,110.5C 102.672,111.492 102.338,112.158 101.5,112.5C 101.5,111.833 101.5,111.167 101.5,110.5 Z"/></g>
<g><path style="opacity:0.016" fill="#caac6c" d="M 100.5,112.5 C 100.833,112.5 101.167,112.5 101.5,112.5C 101.315,113.17 100.981,113.17 100.5,112.5 Z"/></g>
<g><path style="opacity:0.008" fill="#caad6c" d="M 99.5,114.5 C 100.833,115.167 100.833,115.167 99.5,114.5 Z"/></g>
<g><path style="opacity:0.016" fill="#caad6c" d="M 98.5,115.5 C 98.8333,115.5 99.1667,115.5 99.5,115.5C 99.3147,116.17 98.9813,116.17 98.5,115.5 Z"/></g>
<g><path style="opacity:0.016" fill="#caad6c" d="M 97.5,116.5 C 97.8333,116.5 98.1667,116.5 98.5,116.5C 98.3147,117.17 97.9813,117.17 97.5,116.5 Z"/></g>
<g><path style="opacity:0.012" fill="#cbad6d" d="M 93.5,121.5 C 94.8333,122.167 94.8333,122.167 93.5,121.5 Z"/></g>
<g><path style="opacity:0.012" fill="#caac6c" d="M 88.5,125.5 C 89.8333,126.167 89.8333,126.167 88.5,125.5 Z"/></g>
<g><path style="opacity:0.499" fill="#ceaf70" d="M 126.5,13.5 C 125.833,13.5 125.5,13.8333 125.5,14.5C 124.833,14.5 124.5,14.8333 124.5,15.5C 123.833,15.5 123.5,15.8333 123.5,16.5C 122.833,16.5 122.5,16.8333 122.5,17.5C 121.833,17.5 121.5,17.8333 121.5,18.5C 120.833,18.5 120.5,18.8333 120.5,19.5C 119.833,19.5 119.5,19.8333 119.5,20.5C 118.026,21.4363 117.026,22.7697 116.5,24.5C 115.833,24.5 115.5,24.8333 115.5,25.5C 114.833,25.5 114.5,25.8333 114.5,26.5C 113.833,26.5 113.5,26.8333 113.5,27.5C 112.833,27.5 112.5,27.8333 112.5,28.5C 111.833,28.5 111.5,28.8333 111.5,29.5C 110.833,29.5 110.5,29.8333 110.5,30.5C 109.833,30.5 109.5,30.8333 109.5,31.5C 107.457,32.5794 106.124,34.246 105.5,36.5C 104.833,36.5 104.5,36.8333 104.5,37.5C 103.833,37.5 103.5,37.8333 103.5,38.5C 102.833,38.5 102.5,38.8333 102.5,39.5C 95.6457,39.176 88.979,39.5093 82.5,40.5C 81.3734,41.1217 80.3734,41.955 79.5,43C 81.4068,44.122 83.4068,44.9553 85.5,45.5C 90.1046,49.6023 94.6046,53.9357 99,58.5C 102.073,63.3133 104.573,68.3133 106.5,73.5C 107.984,83.232 107.651,92.8987 105.5,102.5C 104.662,102.842 104.328,103.508 104.5,104.5C 103.596,105.209 103.263,106.209 103.5,107.5C 102.662,107.842 102.328,108.508 102.5,109.5C 101.833,109.5 101.5,109.833 101.5,110.5C 100.662,110.842 100.328,111.508 100.5,112.5C 99.0937,112.973 98.427,113.973 98.5,115.5C 97.8333,115.5 97.5,115.833 97.5,116.5C 95.457,117.579 94.1237,119.246 93.5,121.5C 91.246,122.124 89.5794,123.457 88.5,125.5C 85.8646,126.811 83.5313,128.478 81.5,130.5C 80.5084,130.328 79.8417,130.662 79.5,131.5C 78.5084,131.328 77.8417,131.662 77.5,132.5C 76.209,132.263 75.209,132.596 74.5,133.5C 73.209,133.263 72.209,133.596 71.5,134.5C 69.5853,134.216 67.9187,134.549 66.5,135.5C 59.4707,135.623 52.4707,135.29 45.5,134.5C 43.7857,133.262 41.7857,132.595 39.5,132.5C 37.8185,130.992 35.8185,129.992 33.5,129.5C 15.7448,116.648 8.41147,99.315 11.5,77.5C 12.4345,76.4324 12.7678,75.099 12.5,73.5C 18.1786,61.8031 25.8453,51.4698 35.5,42.5C 36.1667,42.5 36.5,42.1667 36.5,41.5C 37.2891,41.2172 37.9558,40.7172 38.5,40C 30.1468,39.8317 21.8134,39.3317 13.5,38.5C 17.1484,33.5193 21.1484,28.8527 25.5,24.5C 26.1667,24.5 26.5,24.1667 26.5,23.5C 29.4715,20.1924 32.4715,16.859 35.5,13.5C 36.1667,13.5 36.5,13.1667 36.5,12.5C 37.8366,11.6851 38.8366,10.5185 39.5,9C 69.5056,8.16679 99.5056,8.33346 129.5,9.5C 128.09,10.5695 127.09,11.9028 126.5,13.5 Z"/></g>
<g><path style="opacity:1" fill="#e7dfdf" d="M 44.5,16.5 C 66.8358,16.3334 89.1692,16.5 111.5,17C 110.619,17.7083 109.953,18.5416 109.5,19.5C 106.189,23.1466 102.855,26.8133 99.5,30.5C 92.3447,31.1667 85.3447,31.8334 78.5,32.5C 73.521,36.8123 68.8544,41.479 64.5,46.5C 91.2297,53.2956 102.396,70.2956 98,97.5C 89.7029,120.109 73.5362,129.942 49.5,127C 29.8031,120.946 19.4697,107.612 18.5,87C 19.0038,77.3102 22.3371,68.8102 28.5,61.5C 37.9645,51.5349 47.6311,41.7016 57.5,32C 48.5,31.6667 39.5,31.3333 30.5,31C 31.3734,29.955 32.3734,29.1217 33.5,28.5C 36.4578,23.8744 40.1245,19.8744 44.5,16.5 Z"/></g>
<g><path style="opacity:0.996" fill="#e9e7e3" d="M 32.5,52.5 C 30.1667,55.1667 27.8333,57.8333 25.5,60.5C 14.0322,75.7653 12.5322,92.0987 21,109.5C 34.7733,129.908 53.2733,135.741 76.5,127C 98.3396,115.144 106.506,96.9771 101,72.5C 95.5354,58.5347 85.7021,49.2014 71.5,44.5C 74.189,41.4802 76.8556,38.4802 79.5,35.5C 86.4207,34.7027 93.4207,34.2027 100.5,34C 106.366,27.3036 112.366,20.8036 118.5,14.5C 119.043,14.44 119.376,14.1067 119.5,13.5C 93.6698,12.1709 68.0032,12.1709 42.5,13.5C 36.0328,20.1367 29.6995,26.97 23.5,34C 32.1858,34.1681 40.8525,34.6681 49.5,35.5C 47.8122,37.8545 45.8122,39.8545 43.5,41.5C 43.6596,39.847 44.3263,38.5137 45.5,37.5C 46.0431,37.44 46.3764,37.1067 46.5,36.5C 37.8589,35.502 29.1922,35.1686 20.5,35.5C 27.2924,27.5376 34.2924,19.7043 41.5,12C 68.5,11.3333 95.5,11.3333 122.5,12C 115.167,20 107.833,28 100.5,36C 93.8333,36.3333 87.1667,36.6667 80.5,37C 78.1667,39.3333 75.8333,41.6667 73.5,44C 99.0702,54.6399 108.57,73.4732 102,100.5C 91.5599,125.14 73.0599,135.307 46.5,131C 20.5338,120.911 10.3672,102.078 16,74.5C 19.2007,65.928 24.034,58.428 30.5,52C 31.4368,51.3083 32.1034,51.475 32.5,52.5 Z"/></g>
<g><path style="opacity:0.997" fill="#eadab8" d="M 20.5,35.5 C 29.1922,35.1686 37.8589,35.502 46.5,36.5C 46.3764,37.1067 46.0431,37.44 45.5,37.5C 37.1667,36.8333 28.8333,36.1667 20.5,35.5 Z"/></g>
<g><path style="opacity:1" fill="#060707" d="M 42.5,13.5 C 68.0055,13.1689 93.3388,13.5023 118.5,14.5C 112.366,20.8036 106.366,27.3036 100.5,34C 93.4207,34.2027 86.4207,34.7027 79.5,35.5C 78.8973,34.3652 78.5639,33.3652 78.5,32.5C 85.3447,31.8334 92.3447,31.1667 99.5,30.5C 102.855,26.8133 106.189,23.1466 109.5,19.5C 111.912,19.3059 112.912,17.9726 112.5,15.5C 89.6605,15.1692 66.9939,15.5025 44.5,16.5C 40.1245,19.8744 36.4578,23.8744 33.5,28.5C 32.3734,29.1217 31.3734,29.955 30.5,31C 39.5,31.3333 48.5,31.6667 57.5,32C 47.6311,41.7016 37.9645,51.5349 28.5,61.5C 27.609,60.8902 26.609,60.5569 25.5,60.5C 27.8333,57.8333 30.1667,55.1667 32.5,52.5C 36.5,49.1667 40.1667,45.5 43.5,41.5C 45.8122,39.8545 47.8122,37.8545 49.5,35.5C 40.8525,34.6681 32.1858,34.1681 23.5,34C 29.6995,26.97 36.0328,20.1367 42.5,13.5 Z"/></g>
<g><path style="opacity:1" fill="#feacaf" d="M 33.5,28.5 C 33.8333,28.5 34.1667,28.5 34.5,28.5C 43.7382,29.1405 52.4049,29.8072 60.5,30.5C 51.1045,31.1377 42.1045,30.4711 33.5,28.5 Z"/></g>
<g><path style="opacity:1" fill="#ec2025" d="M 44.5,18.5 C 65.6733,18.1694 86.6733,18.5027 107.5,19.5C 104.704,22.7974 101.704,25.9641 98.5,29C 91.8333,29.3333 85.1667,29.6667 78.5,30C 72.6518,35.6812 66.9851,41.5146 61.5,47.5C 83.5548,51.0538 95.8881,63.8871 98.5,86C 96.4364,107.731 84.7697,121.064 63.5,126C 44.5087,127.589 31.0087,119.756 23,102.5C 18.6431,89.4783 19.9765,77.1449 27,65.5C 38.0059,53.6612 49.1725,41.9946 60.5,30.5C 52.4049,29.8072 43.7382,29.1405 34.5,28.5C 37.4729,24.8604 40.8062,21.5271 44.5,18.5 Z"/></g>
<g><path style="opacity:1" fill="#f04f55" d="M 44.5,18.5 C 65.6704,17.1717 87.0038,17.1717 108.5,18.5C 108.376,19.1067 108.043,19.44 107.5,19.5C 86.6733,18.5027 65.6733,18.1694 44.5,18.5 Z"/></g>
<g><path style="opacity:1" fill="#333535" d="M 44.5,16.5 C 66.9939,15.5025 89.6605,15.1692 112.5,15.5C 112.912,17.9726 111.912,19.3059 109.5,19.5C 109.953,18.5416 110.619,17.7083 111.5,17C 89.1692,16.5 66.8358,16.3334 44.5,16.5 Z"/></g>
<g><path style="opacity:1" fill="#888b8d" d="M 42.5,13.5 C 68.0032,12.1709 93.6698,12.1709 119.5,13.5C 119.376,14.1067 119.043,14.44 118.5,14.5C 93.3388,13.5023 68.0055,13.1689 42.5,13.5 Z"/></g>
<g><path style="opacity:1" fill="#141514" d="M 78.5,32.5 C 78.5639,33.3652 78.8973,34.3652 79.5,35.5C 76.8556,38.4802 74.189,41.4802 71.5,44.5C 85.7021,49.2014 95.5354,58.5347 101,72.5C 106.506,96.9771 98.3396,115.144 76.5,127C 53.2733,135.741 34.7733,129.908 21,109.5C 12.5322,92.0987 14.0322,75.7653 25.5,60.5C 26.609,60.5569 27.609,60.8902 28.5,61.5C 22.3371,68.8102 19.0038,77.3102 18.5,87C 19.4697,107.612 29.8031,120.946 49.5,127C 73.5362,129.942 89.7029,120.109 98,97.5C 102.396,70.2956 91.2297,53.2956 64.5,46.5C 68.8544,41.479 73.521,36.8123 78.5,32.5 Z"/></g>
<g><path style="opacity:1" fill="#e7d6d6" d="M 54.5,60.5 C 76.6904,61.1855 87.1904,72.5188 86,94.5C 80.4592,110.36 69.2925,117.193 52.5,115C 37.754,109.68 30.9207,99.1796 32,83.5C 35.0151,71.3193 42.5151,63.6526 54.5,60.5 Z"/></g>
<g><path style="opacity:1" fill="#0a0b0a" d="M 52.5,62.5 C 75.5205,61.6851 86.0205,72.6851 84,95.5C 76.5364,112.549 64.0364,117.716 46.5,111C 33.1243,101.533 29.9576,89.3665 37,74.5C 41.1839,69.1398 46.3505,65.1398 52.5,62.5 Z"/></g>
<g><path style="opacity:1" fill="#c5a76a" d="M 58.5,67.5 C 60.8025,69.978 62.9692,72.6447 65,75.5C 66.1855,73.4407 67.3521,73.274 68.5,75C 67.3406,78.4513 66.8406,81.9513 67,85.5C 68.6667,84.1667 70.3333,82.8333 72,81.5C 72.5232,83.2226 73.5232,84.556 75,85.5C 76.4651,84.6705 77.9651,84.5038 79.5,85C 76.9576,87.699 76.2909,90.699 77.5,94C 73.8333,96.1667 70.1667,98.3333 66.5,100.5C 65.8333,101.833 65.1667,103.167 64.5,104.5C 62.8067,102.973 60.9734,101.64 59,100.5C 58.6667,98.5 58.3333,96.5 58,94.5C 56.6836,99.2982 54.5169,103.631 51.5,107.5C 51.1667,107.167 50.8333,106.833 50.5,106.5C 52.2225,104.222 53.5559,101.722 54.5,99C 52.411,96.8698 49.911,95.3698 47,94.5C 47,93.1667 47,91.8333 47,90.5C 44.8333,88.3333 42.6667,86.1667 40.5,84C 41.1667,83.6667 41.8333,83.3333 42.5,83C 41.4829,81.9505 41.3162,80.7839 42,79.5C 44.4231,81.9938 46.7564,81.9938 49,79.5C 50.3513,81.019 51.8513,82.3523 53.5,83.5C 54.8094,80.3478 54.4761,77.3478 52.5,74.5C 53.7562,75.0302 55.2562,75.0302 57,74.5C 58.2022,72.3225 58.7022,69.9892 58.5,67.5 Z"/></g>
<g><path style="opacity:0.004" fill="#050807" d="M 88.5,128.5 C 88.8966,127.475 89.5632,127.308 90.5,128C 89.9056,128.464 89.2389,128.631 88.5,128.5 Z"/></g>
<g><path style="opacity:0.004" fill="#030706" d="M 91.5,127.5 C 92.8333,128.167 92.8333,128.167 91.5,127.5 Z"/></g>
<g><path style="opacity:0.004" fill="#030706" d="M 94.5,127.5 C 95.8333,128.167 95.8333,128.167 94.5,127.5 Z"/></g>
<g><path style="opacity:0.012" fill="#cbac6d" d="M 33.5,129.5 C 32.8333,130.167 32.8333,130.167 33.5,129.5 Z"/></g>
<g><path style="opacity:0.012" fill="#cbad6d" d="M 83.5,129.5 C 84.8333,130.167 84.8333,130.167 83.5,129.5 Z"/></g>
<g><path style="opacity:0.326" fill="#030606" d="M 87.5,129.5 C 90.0115,129.838 92.3448,129.838 94.5,129.5C 95.4656,131.396 95.7989,133.396 95.5,135.5C 93.1667,135.5 90.8333,135.5 88.5,135.5C 88.5432,131.107 88.0432,130.774 87,134.5C 86.3603,132.735 86.5269,131.068 87.5,129.5 Z"/></g>
<g><path style="opacity:0.016" fill="#cbac6c" d="M 81.5,130.5 C 82.8333,131.167 82.8333,131.167 81.5,130.5 Z"/></g>
<g><path style="opacity:0.008" fill="#030606" d="M 96.5,130.5 C 97.5983,131.601 97.765,132.934 97,134.5C 96.51,133.207 96.3433,131.873 96.5,130.5 Z"/></g>
<g><path style="opacity:0.01" fill="#cbad6d" d="M 79.5,132.5 C 79.5,132.167 79.5,131.833 79.5,131.5C 80.1667,131.5 80.8333,131.5 81.5,131.5C 81.1583,132.338 80.4916,132.672 79.5,132.5 Z"/></g>
<g><path style="opacity:0.01" fill="#cbad6d" d="M 39.5,132.5 C 39.1034,133.525 38.4368,133.692 37.5,133C 38.0944,132.536 38.7611,132.369 39.5,132.5 Z"/></g>
<g><path style="opacity:0.01" fill="#cbad6d" d="M 77.5,132.5 C 78.1667,132.5 78.8333,132.5 79.5,132.5C 78.8333,133.833 78.1667,133.833 77.5,132.5 Z"/></g>
<g><path style="opacity:0.012" fill="#ccac6d" d="M 74.5,134.5 C 74.5,134.167 74.5,133.833 74.5,133.5C 77.1667,133.833 77.1667,134.167 74.5,134.5 Z"/></g>
<g><path style="opacity:0.008" fill="#cbac6d" d="M 45.5,134.5 C 45.5,134.833 45.5,135.167 45.5,135.5C 41.5,135.167 41.5,134.833 45.5,134.5 Z"/></g>
<g><path style="opacity:0.009" fill="#cbac6d" d="M 71.5,134.5 C 72.5,134.5 73.5,134.5 74.5,134.5C 73.5,135.833 72.5,135.833 71.5,134.5 Z"/></g>
<g><path style="opacity:0.01" fill="#cbad6d" d="M 45.5,135.5 C 46.8734,135.343 48.2068,135.51 49.5,136C 47.9343,136.765 46.6009,136.598 45.5,135.5 Z"/></g>
<g><path style="opacity:0.009" fill="#cbac6d" d="M 66.5,135.5 C 67.8734,135.343 69.2068,135.51 70.5,136C 68.9343,136.765 67.6009,136.598 66.5,135.5 Z"/></g>
<g><path style="opacity:0.01" fill="#cbac6d" d="M 50.5,137.5 C 55.3158,136.35 60.3158,136.184 65.5,137C 60.5111,137.499 55.5111,137.666 50.5,137.5 Z"/></g>
</svg>
